<svg width="50" height="50" viewBox="0 0 50 50" fill="none" xmlns="http://www.w3.org/2000/svg">
<path d="M27.5095 39.2012L27.4986 39.2512L27.4986 17.8383L34.2449 24.5697C34.5742 24.8993 35.0204 25.0801 35.4887 25.0801C35.957 25.0801 36.4001 24.8993 36.7302 24.5697L37.7781 23.5223C38.1075 23.1929 38.2896 22.754 38.2896 22.286C38.2896 21.8177 38.1088 21.3785 37.7794 21.0492L26.2415 9.51019C25.9108 9.17952 25.4704 8.99871 25.0018 9.00001C24.5307 8.99871 24.0899 9.17952 23.7598 9.51019L12.2208 21.0492C11.8917 21.3785 11.7106 21.8174 11.7106 22.286C11.7106 22.754 11.892 23.1929 12.2208 23.5223L13.2687 24.5697C13.5976 24.8993 14.0367 25.0801 14.505 25.0801C14.9731 25.0801 15.3891 24.8993 15.7182 24.5697L22.5022 17.7623L22.5022 39.2252C22.5022 40.1896 23.3334 41 24.2973 41L25.7794 41C26.7433 41 27.5095 40.1657 27.5095 39.2012Z" fill="#101010"/>
</svg>
