<svg width="50" height="50" viewBox="0 0 50 50" fill="none" xmlns="http://www.w3.org/2000/svg">
<rect x="50" width="50" height="50" rx="25" transform="rotate(90 50 0)" fill="#101010"/>
<path d="M26.9606 36.0947L26.952 36.1338L26.952 19.4049L32.2225 24.6638C32.4799 24.9214 32.8284 25.0626 33.1943 25.0626C33.5601 25.0626 33.9063 24.9214 34.1642 24.6638L34.9829 23.8455C35.2402 23.5882 35.3825 23.2453 35.3825 22.8797C35.3825 22.5138 35.2412 22.1707 34.9839 21.9134L25.9699 12.8986C25.7116 12.6402 25.3675 12.499 25.0014 12.5C24.6333 12.499 24.289 12.6402 24.0311 12.8986L15.0162 21.9134C14.7591 22.1707 14.6177 22.5136 14.6177 22.8797C14.6177 23.2453 14.7593 23.5882 15.0162 23.8455L15.8349 24.6638C16.0919 24.9214 16.4349 25.0626 16.8008 25.0626C17.1664 25.0626 17.4914 24.9214 17.7486 24.6638L23.0486 19.3455L23.0486 36.1134C23.0486 36.8669 23.698 37.5 24.451 37.5L25.6089 37.5C26.362 37.5 26.9606 36.8482 26.9606 36.0947Z" fill="white"/>
</svg>
