<svg width="740" height="390" viewBox="0 0 740 390" fill="none" xmlns="http://www.w3.org/2000/svg">
<line x1="4.37114e-08" y1="120.5" x2="740" y2="120.5" stroke="#2F80ED"/>
<line x1="4.37114e-08" y1="30.5" x2="740" y2="30.5001" stroke="#2F80ED" stroke-dasharray="5 5"/>
<line x1="4.37114e-08" y1="345.5" x2="740" y2="345.5" stroke="#2F80ED" stroke-dasharray="5 5"/>
<line x1="-4.37114e-08" y1="255.5" x2="740" y2="255.5" stroke="#2F80ED"/>
<line x1="190.5" y1="-2.51098e-08" x2="190.5" y2="390" stroke="#2F80ED"/>
<line x1="100.5" y1="-2.51098e-08" x2="100.5" y2="390" stroke="#2F80ED" stroke-dasharray="5 5"/>
<line x1="550.5" y1="-2.51098e-08" x2="550.5" y2="390" stroke="#2F80ED"/>
<line x1="640.5" y1="-2.51098e-08" x2="640.5" y2="390" stroke="#2F80ED" stroke-dasharray="5 5"/>
<path d="M269.287 88.1955C263.475 99.9618 253.13 110.932 243.111 108.91C235.607 107.383 231.725 101.381 229.773 96.5846C228.494 93.4441 227.67 89.8949 227.28 86.1521C228.104 86.2166 228.949 86.2381 229.773 86.2381C239.945 86.2381 250.137 82.2156 258.855 74.1707C269.439 64.4264 274.145 51.3911 270.588 41.7328C268.202 35.2797 262.564 31.3863 255.082 31.0206C246.32 30.6119 237.364 34.7204 229.904 42.6363C222.964 49.9929 218.084 59.7586 216.176 70.1697C216.133 70.3633 216.111 70.5569 216.067 70.7505C213.508 69.3308 211.036 67.5024 208.672 65.2868C207.436 64.0607 203.684 60.7051 197.569 55.2845C194.836 52.8323 192.494 50.7673 191.345 49.7563C190.846 49.3045 190.39 48.9173 190 48.5732V64.4049C194.467 68.3629 199.13 72.5144 200.301 73.6759L200.388 73.762C204.964 78.1071 209.952 81.3122 215.157 83.3772C215.352 89.6583 216.566 95.6812 218.713 101.016C223.007 111.577 230.814 118.504 240.725 120.504C242.33 120.827 243.957 120.999 245.583 120.999C251.829 120.999 258.14 118.611 264.082 113.944C270.263 109.061 275.771 101.984 280 93.4226L269.287 88.1955ZM227.908 72.2778C229.383 64.2113 233.287 56.36 238.6 50.7242C243.631 45.3896 249.313 42.5933 254.561 42.8514C258.01 43.0235 259.007 44.6152 259.441 45.7983C261.002 50.0359 258.508 58.4035 250.788 65.502C244.542 71.2453 237.364 74.3213 230.012 74.4073C229.188 74.4073 228.386 74.3858 227.561 74.3213C227.67 73.6329 227.778 72.9446 227.908 72.2778Z" fill="#2F80ED"/>
<path d="M582.804 176.713C571.037 182.525 560.067 192.87 562.089 202.889C563.616 210.393 569.618 214.275 574.414 216.227C577.555 217.506 581.104 218.33 584.847 218.72C584.783 217.896 584.761 217.051 584.761 216.227C584.761 206.055 588.784 195.863 596.828 187.145C606.573 176.561 619.608 171.855 629.266 175.412C635.719 177.798 639.613 183.436 639.979 190.918C640.387 199.68 636.279 208.636 628.363 216.096C621.006 223.036 611.24 227.916 600.829 229.824C600.636 229.867 600.442 229.889 600.249 229.933C601.668 232.492 603.497 234.964 605.712 237.328C606.938 238.564 610.294 242.316 615.715 248.431C618.167 251.164 620.232 253.506 621.243 254.655C621.695 255.154 622.082 255.61 622.426 256L606.594 256C602.636 251.533 598.485 246.87 597.323 245.699L597.237 245.612C592.892 241.036 589.687 236.048 587.622 230.843C581.341 230.648 575.318 229.434 569.983 227.287C559.422 222.993 552.495 215.186 550.495 205.275C550.172 203.67 550 202.043 550 200.417C550 194.171 552.388 187.86 557.056 181.918C561.938 175.737 569.015 170.229 577.577 166L582.804 176.713ZM598.721 218.092C606.788 216.617 614.639 212.713 620.275 207.4C625.61 202.369 628.406 196.687 628.148 191.439C627.976 187.99 626.384 186.993 625.201 186.559C620.963 184.998 612.596 187.492 605.497 195.212C599.754 201.458 596.678 208.636 596.592 215.988C596.592 216.812 596.613 217.614 596.678 218.439C597.366 218.33 598.055 218.222 598.721 218.092Z" fill="#2F80ED"/>
<path d="M132.804 200.287C121.037 194.475 110.067 184.13 112.089 174.111C113.616 166.607 119.618 162.725 124.414 160.773C127.555 159.494 131.104 158.67 134.847 158.28C134.783 159.104 134.761 159.949 134.761 160.773C134.761 170.945 138.783 181.137 146.828 189.855C156.573 200.439 169.608 205.145 179.266 201.588C185.719 199.202 189.613 193.564 189.978 186.082C190.387 177.32 186.279 168.364 178.363 160.904C171.006 153.964 161.24 149.084 150.829 147.176C150.636 147.133 150.442 147.111 150.249 147.067C151.668 144.508 153.497 142.036 155.712 139.672C156.938 138.436 160.294 134.684 165.715 128.569C168.167 125.836 170.232 123.494 171.243 122.345C171.695 121.846 172.082 121.39 172.426 121L156.594 121C152.636 125.467 148.485 130.13 147.323 131.301L147.237 131.388C142.892 135.964 139.687 140.952 137.622 146.157C131.341 146.352 125.318 147.566 119.983 149.713C109.422 154.007 102.495 161.814 100.495 171.725C100.172 173.33 100 174.957 100 176.583C100 182.829 102.388 189.14 107.055 195.082C111.938 201.263 119.015 206.771 127.576 211L132.804 200.287ZM148.721 158.908C156.788 160.383 164.639 164.287 170.275 169.6C175.609 174.631 178.406 180.313 178.148 185.561C177.976 189.01 176.384 190.007 175.201 190.441C170.963 192.002 162.596 189.508 155.497 181.788C149.754 175.542 146.678 168.364 146.592 161.012C146.592 160.188 146.613 159.386 146.678 158.561C147.366 158.67 148.054 158.778 148.721 158.908Z" fill="#2F80ED"/>
<path d="M269.287 313.203C263.475 324.969 253.13 335.939 243.111 333.917C235.607 332.39 231.725 326.389 229.773 321.592C228.494 318.451 227.67 314.902 227.28 311.159C228.104 311.224 228.949 311.245 229.773 311.245C239.945 311.245 250.137 307.223 258.855 299.178C269.439 289.434 274.145 276.398 270.588 266.74C268.202 260.287 262.564 256.393 255.082 256.028C246.32 255.619 237.364 259.728 229.904 267.643C222.964 275 218.084 284.766 216.176 295.177C216.133 295.371 216.111 295.564 216.067 295.758C213.508 294.338 211.036 292.51 208.672 290.294C207.436 289.068 203.684 285.712 197.569 280.292C194.836 277.839 192.494 275.774 191.345 274.763C190.846 274.312 190.39 273.925 190 273.58V289.412C194.467 293.37 199.13 297.522 200.301 298.683L200.388 298.769C204.964 303.114 209.952 306.319 215.157 308.384C215.352 314.665 216.566 320.688 218.713 326.023C223.007 336.585 230.814 343.511 240.725 345.512C242.33 345.834 243.957 346.006 245.583 346.006C251.829 346.006 258.14 343.619 264.082 338.951C270.263 334.068 275.771 326.991 280 318.43L269.287 313.203ZM227.908 297.285C229.383 289.219 233.287 281.367 238.6 275.731C243.631 270.397 249.313 267.6 254.561 267.859C258.01 268.031 259.007 269.622 259.441 270.806C261.002 275.043 258.508 283.411 250.788 290.509C244.542 296.252 237.364 299.328 230.012 299.415C229.188 299.415 228.386 299.393 227.561 299.328C227.67 298.64 227.778 297.952 227.908 297.285Z" fill="#2F80ED"/>
<path d="M226.601 233.558C226.58 243.443 226.623 245.562 226.601 255.446H236.298V255.911H216.456V255.446H225.875C225.875 245.386 225.832 243.875 225.832 233.558" fill="#101010"/>
<path d="M512.614 141.69V154.343C512.441 160.985 506.993 166.324 500.308 166.324V165.652C506.624 165.652 511.768 160.616 511.941 154.343H499.961V141.69H512.614Z" fill="#101010"/>
<path d="M320.487 255.38H324.654V256.009H304.491V255.38H308.658V183.516V182.626C308.528 177.569 306.118 172.924 302.06 169.886C299.303 167.802 296.004 166.674 292.531 166.587C292.531 166.587 292.271 166.587 292.163 166.587C286.172 166.587 280.464 168.475 275.667 172.035V255.401H279.834V256.031H259.671V255.401H263.838V121.702H259.671V121.073H275.667V171.253C280.486 167.802 286.172 165.957 292.163 165.957C292.293 165.957 292.553 165.957 292.553 165.957C298.587 166.044 304.339 167.998 309.157 171.622C312.586 174.205 315.451 177.591 317.405 181.411C319.402 185.318 320.443 189.528 320.487 193.956V194.282V255.38Z" fill="#101010"/>
<path d="M196.316 220.049C196.272 220.005 196.229 219.94 196.164 219.853C192.04 213.906 190.868 208.871 190.456 206.722C190.195 205.333 189.957 204.031 190 202.208C190.022 201.557 190.108 198.822 191.563 195.045C192.496 192.614 193.581 190.856 194.949 188.773C196.75 186.038 199.311 182.37 202.762 178.138C202.849 178.246 202.936 178.333 203.044 178.441C199.506 182.913 196.88 186.798 195.014 189.706C193.473 192.094 192.583 193.721 191.758 196.087C190.868 198.627 190.694 200.493 190.651 201.275C190.629 201.6 190.586 202.447 190.651 203.51C190.738 205.312 191.063 206.809 191.367 207.873C191.367 207.873 191.649 209.023 192.235 210.716C194.818 218.312 199.745 224.628 206.495 229.013C206.712 229.143 206.929 229.295 207.125 229.425C207.19 229.469 207.255 229.49 207.32 229.534C207.494 229.642 207.667 229.751 207.841 229.838C207.884 229.859 207.928 229.903 207.993 229.924C208.21 230.055 208.427 230.185 208.644 230.293C208.687 230.315 208.731 230.337 208.796 230.38C208.991 230.489 209.165 230.575 209.36 230.684C209.404 230.706 209.447 230.727 209.49 230.749C216.458 234.374 224.423 235.611 232.237 234.178L232.844 234.07C233.127 234.005 233.387 233.961 233.669 233.896L233.951 233.831C234.06 233.809 234.168 233.788 234.277 233.744C241.439 231.965 247.625 227.559 251.64 221.373C255.873 214.861 257.327 207.091 255.721 199.473C254.115 191.876 249.622 185.343 243.111 181.111C242.655 180.807 242.177 180.525 241.7 180.243L240.05 179.353C230.891 174.47 214.982 165.94 214.483 165.679C208.08 162.272 204.433 155.218 205.388 148.099C205.388 148.099 205.41 147.86 205.432 147.838C206.105 142.651 207.949 137.746 210.836 133.275L211.379 133.6C209.642 136.291 208.991 141.718 211.075 146.927C212.659 150.833 216.523 153.351 219.279 154.892L245.542 168.957C246.714 169.629 257.023 175.902 260.756 189.858C263.426 199.755 261.755 210.369 256.155 218.964C251.098 226.734 243.371 232.203 234.364 234.374C234.255 234.395 234.147 234.439 234.017 234.461L233.756 234.526C233.604 234.569 233.474 234.591 233.322 234.613C233.192 234.634 232.888 234.699 232.888 234.699L232.28 234.808C224.792 236.175 217.174 235.133 210.38 231.921C207.277 230.445 201.199 226.973 196.316 220.049Z" fill="#101010"/>
<path d="M275.689 255.793V171.449H275.06V255.814H275.689V255.793Z" fill="#101010"/>
<path d="M460.35 221.109V172.404H459.721V221.087H460.35V221.109Z" fill="white"/>
<path d="M264.489 255.793V171.449H263.86V255.814H264.489V255.793Z" fill="#101010"/>
<path d="M246.345 148.727C246.366 146.687 246.149 143.627 244.977 140.132C244.261 138.005 242.915 134.011 239.616 130.973C239.117 130.517 237.815 129.41 235.905 128.455C232.324 126.675 229.09 126.632 226.963 126.632C224.445 126.632 220.169 126.632 215.958 129.302C214.743 130.061 212.855 131.277 211.466 133.642C209.295 137.245 209.816 141.13 210.011 142.715C210.25 144.538 210.636 145.966 211.027 146.921C209.204 146.791 207.472 146.687 205.649 146.557C206.191 143.713 206.929 141.434 207.559 139.807C208.514 137.267 209.252 135.292 210.945 133.143C211.748 132.123 213.354 130.3 215.915 128.781C220.234 126.198 224.445 126.176 226.941 126.176C229.198 126.176 232.432 126.198 235.992 127.934C236.816 128.347 238.379 129.193 239.985 130.669C242.85 133.273 244.044 136.138 244.934 138.266C246.54 142.194 246.974 145.862 246.974 148.705C246.779 148.705 246.562 148.705 246.345 148.727Z" fill="#101010"/>
<path d="M275.667 172.037C275.016 172.558 272.932 174.121 269.829 174.251C266.725 174.381 264.533 172.992 263.86 172.515C263.86 172.211 263.86 171.929 263.86 171.625C264.424 172.081 266.595 173.709 269.807 173.622C273.063 173.535 275.168 171.712 275.689 171.234C275.667 171.516 275.667 171.777 275.667 172.037Z" fill="#101010"/>
<path d="M454.967 186.403C454.989 186.403 472.244 201.661 474.87 204.287C490.584 219.307 510.574 218.243 525.246 204.613C539.918 190.982 539.918 172.121 525.246 171.427C510.574 170.732 495.902 186.793 492.407 206.002C488.913 225.21 495.207 246.394 512.31 249.888C525.224 252.514 537.748 240.729 545.062 225.775" stroke="#101010" stroke-width="11.9374" stroke-miterlimit="10"/>
<path d="M446.568 222.044C448.435 231.029 445.656 240.427 439.145 247.156C439.015 247.286 438.754 247.568 438.733 247.568C433.893 252.365 427.49 255.273 420.696 255.751C420.024 255.794 419.372 255.816 418.721 255.816C412.666 255.816 406.762 253.906 401.9 250.325C401.9 250.325 401.249 249.847 400.989 249.608C399.969 248.957 398.775 248.61 397.581 248.61C393.978 248.61 391.026 251.692 391.026 255.512H390.397V227.665H391.026C391.026 235.023 393.913 241.947 399.144 247.134C399.86 247.85 400.598 248.523 401.379 249.131L402.291 249.825C407.565 253.711 414.098 255.599 420.675 255.143C427.338 254.687 433.589 251.844 438.32 247.134L438.711 246.722C442.184 243.054 444.072 238.257 444.007 233.2C443.942 228.143 441.923 223.389 438.32 219.808C437.018 218.506 435.52 217.399 433.936 216.531C433.35 216.205 432.742 215.923 432.135 215.663H432.113L397.429 198.994C394.195 197.366 391.981 194.675 390.983 191.202C390.093 188.142 390.288 184.647 391.461 181.587C392.589 178.483 394.174 176.009 396.561 173.578C396.626 173.513 396.691 173.448 396.756 173.361L397.212 173.817C397.147 173.882 397.082 173.947 397.017 174.012C395.346 175.727 394.694 177.441 395.02 179.264C395.953 184.539 405.047 189.574 414.706 194.24L426.231 199.775C430.463 201.902 435.716 204.702 438.754 207.741C439.709 208.696 440.599 209.694 441.402 210.736C443.964 214.122 445.722 217.942 446.568 222.044ZM459.699 238.279C459.699 238.431 459.699 238.583 459.699 238.735C459.699 238.886 459.699 239.017 459.699 239.169C459.829 244.226 462.239 248.87 466.297 251.909C469.054 253.993 472.353 255.121 475.826 255.208C475.826 255.208 476.086 255.208 476.195 255.208C482.25 255.208 487.98 253.298 492.82 249.674L493.189 250.173C488.262 253.884 482.38 255.838 476.195 255.838C476.064 255.838 475.804 255.838 475.804 255.838C469.77 255.751 464.018 253.797 459.2 250.173C455.749 247.59 452.906 244.204 450.952 240.384C448.956 236.477 447.914 232.267 447.87 227.839V227.513V166.285H443.725V165.656H447.87V151.548V124.005C442.509 121.639 436.627 120.901 430.811 121.921C424.799 122.963 419.351 125.806 415.01 130.126C408.542 136.594 405.004 146.143 405.764 155.086C406.371 162.118 409.627 168.065 414.945 171.82C416.008 172.493 417.245 172.862 418.526 172.862C422.476 172.862 425.45 169.888 425.45 165.96H426.079V193.437H425.45C425.254 186.383 422.368 179.742 417.354 174.75C416.486 173.882 415.552 173.079 414.597 172.341C409.106 168.477 405.742 162.378 405.134 155.151C404.353 146.035 407.956 136.29 414.554 129.692C418.982 125.286 424.56 122.377 430.68 121.314C436.519 120.293 442.444 120.988 447.849 123.332L448.304 123.527C451.625 125.025 454.62 127.109 457.225 129.692C458.071 130.538 459.699 132.491 459.699 132.491V152.199V154.456C459.678 155.281 459.569 156.084 459.374 156.844C459.287 157.213 459.178 157.582 459.048 157.929C457.507 162.335 453.362 165.526 448.478 165.656H493.167V166.285H459.678L459.699 238.279Z" fill="#101010"/>
<path d="M347.184 256.205C343.863 256.205 340.672 255.511 337.786 254.1C331.708 251.148 327.628 245.396 326.564 238.364C325.306 229.899 328.93 221.066 336.266 214.75C343.733 208.325 353.239 206.068 361.682 208.672C366.088 210.04 369.279 211.407 372.643 213.534C375.334 201.901 374.64 190.745 370.733 183.908C368.519 180.044 365.632 178.091 361.877 177.961C358.405 177.83 354.389 179.22 350.244 181.976C345.621 185.036 341.193 189.616 337.417 195.172L337.308 195.346C330.254 205.026 325.414 215.488 319.858 228.163L308.94 223.366C314.584 210.517 319.901 199.014 327.628 188.401C332.251 181.607 337.786 175.942 343.667 172.057C349.918 167.912 356.386 165.828 362.377 166.067C370.234 166.371 376.897 170.625 381.129 178.026C386.946 188.205 387.836 203.702 383.495 219.46C383.3 220.176 383.083 220.914 382.866 221.608C385.231 223.692 388.01 225.971 389.941 227.772C390.549 228.337 389.789 255.532 389.789 255.532H389.138C388.704 248.37 387.988 245.678 385.448 241.424C384.797 240.339 383.929 239.037 383.083 238.147C382.019 237.04 380.218 235.217 378.134 233.372C377.223 235.152 376.246 236.867 375.226 238.473C371.275 244.658 366.674 249.26 361.574 252.146C356.777 254.838 351.85 256.205 347.184 256.205ZM354.672 219.568C351.09 219.568 347.249 221.066 344.058 223.8C339.913 227.36 337.742 232.265 338.393 236.584C338.871 239.731 340.52 242.141 343.038 243.356C346.381 244.984 351.004 244.398 355.692 241.728C360.64 238.928 365.328 232.96 368.736 225.32C365.155 222.694 362.594 221.456 358.166 220.089C357.037 219.742 355.865 219.568 354.672 219.568Z" fill="#101010"/>
<path d="M321.138 239.624V184.277H320.509V239.624H321.138Z" fill="white"/>
<path d="M390.375 265.883V210.536H389.746V265.883H390.375Z" fill="white"/>
<path d="M460.328 174.982H459.699V208.841H460.328V174.982Z" fill="white"/>
<path d="M235.285 216.315C249.433 214.469 254.884 209.609 255.605 204.803C255.605 217.059 249.837 224.989 241.907 230.035C233.977 235.082 219.558 236.524 206.581 228.593C196.2 222.249 191.923 209.61 191.442 204.803C192.163 203.361 196.344 201.052 204.419 203.359C214.512 206.243 217.733 218.604 235.285 216.315Z" fill="#101010"/>
</svg>
