<svg width="740" height="360" viewBox="0 0 740 360" fill="none" xmlns="http://www.w3.org/2000/svg">
<rect width="740" height="360" fill="#101010"/>
<path d="M151.894 247.158C151.861 262.253 151.926 265.489 151.894 280.584H166.702V281.293H136.401V280.584H150.785C150.785 265.22 150.719 262.913 150.719 247.158" fill="white"/>
<path d="M587.663 106.866V126.19C587.398 136.332 579.079 144.486 568.87 144.486V143.458C578.515 143.458 586.371 135.769 586.636 126.19H568.34V106.866H587.663Z" fill="white"/>
<path d="M294.266 280.482H300.63V281.443H269.838V280.482H276.202V170.739V169.38C276.003 161.658 272.324 154.565 266.126 149.924C261.917 146.742 256.879 145.019 251.576 144.886C251.576 144.886 251.178 144.886 251.012 144.886C241.864 144.886 233.147 147.77 225.822 153.206V280.515H232.186V281.476H201.394V280.515H207.758V76.343H201.394V75.3818H225.822V152.012C233.18 146.742 241.864 143.925 251.012 143.925C251.211 143.925 251.609 143.925 251.609 143.925C260.823 144.058 269.606 147.041 276.964 152.576C282.201 156.52 286.576 161.691 289.559 167.524C292.609 173.49 294.2 179.92 294.266 186.682V187.179V280.482Z" fill="white"/>
<path d="M105.645 226.528C105.579 226.462 105.512 226.362 105.413 226.23C99.1155 217.148 97.3257 209.459 96.6959 206.177C96.2982 204.056 95.9336 202.067 95.9999 199.283C96.033 198.289 96.1656 194.113 98.3863 188.345C99.8115 184.633 101.469 181.948 103.557 178.767C106.308 174.59 110.219 168.989 115.489 162.526C115.622 162.691 115.754 162.824 115.92 162.99C110.517 169.817 106.507 175.75 103.656 180.192C101.303 183.838 99.9441 186.324 98.6846 189.936C97.3257 193.814 97.0605 196.665 96.9942 197.858C96.9611 198.355 96.8948 199.648 96.9942 201.272C97.1268 204.023 97.624 206.31 98.088 207.934C98.088 207.934 98.5189 209.691 99.4138 212.276C103.358 223.877 110.882 233.522 121.19 240.217C121.521 240.416 121.853 240.648 122.151 240.847C122.251 240.913 122.35 240.946 122.449 241.012C122.715 241.178 122.98 241.344 123.245 241.476C123.311 241.51 123.377 241.576 123.477 241.609C123.808 241.808 124.14 242.007 124.471 242.173C124.538 242.206 124.604 242.239 124.703 242.305C125.002 242.471 125.267 242.603 125.565 242.769C125.631 242.802 125.698 242.835 125.764 242.869C136.403 248.404 148.568 250.293 160.5 248.105L161.428 247.94C161.859 247.84 162.256 247.774 162.687 247.675L163.118 247.575C163.284 247.542 163.45 247.509 163.615 247.443C174.553 244.725 183.999 237.996 190.131 228.55C196.594 218.607 198.815 206.741 196.362 195.107C193.909 183.506 187.049 173.53 177.105 167.066C176.409 166.602 175.68 166.172 174.951 165.741L172.432 164.382C158.445 156.924 134.15 143.898 133.387 143.501C123.609 138.297 118.041 127.525 119.5 116.653C119.5 116.653 119.533 116.289 119.566 116.256C120.593 108.334 123.411 100.843 127.819 94.0154L128.647 94.5126C125.996 98.6225 125.002 106.909 128.183 114.863C130.603 120.829 136.503 124.674 140.712 127.028L180.817 148.505C182.607 149.533 198.351 159.112 204.052 180.424C208.129 195.538 205.576 211.746 197.025 224.871C189.302 236.737 177.503 245.089 163.748 248.404C163.582 248.437 163.416 248.503 163.217 248.536L162.82 248.636C162.588 248.702 162.389 248.735 162.157 248.768C161.958 248.801 161.494 248.901 161.494 248.901L160.566 249.067C149.131 251.155 137.497 249.564 127.123 244.658C122.383 242.405 113.103 237.101 105.645 226.528Z" fill="white"/>
<path d="M225.856 281.112V152.312H224.894V281.145H225.856V281.112Z" fill="white"/>
<path d="M507.851 228.147V153.77H506.89V228.114H507.851V228.147Z" fill="#101010"/>
<path d="M208.753 281.112V152.312H207.791V281.145H208.753V281.112Z" fill="white"/>
<path d="M182.044 117.613C182.077 114.497 181.745 109.824 179.956 104.488C178.862 101.239 176.807 95.1407 171.769 90.5004C171.007 89.8044 169.018 88.114 166.101 86.6556C160.632 83.9377 155.694 83.8715 152.446 83.8715C148.601 83.8715 142.071 83.8715 135.641 87.9483C133.785 89.1083 130.901 90.9644 128.78 94.5772C125.466 100.079 126.261 106.012 126.559 108.432C126.924 111.216 127.514 113.396 128.11 114.855C125.326 114.656 122.682 114.497 119.897 114.298C120.726 109.956 121.853 106.476 122.814 103.99C124.272 100.112 125.399 97.0962 127.985 93.8149C129.211 92.2571 131.664 89.4729 135.575 87.1528C142.171 83.2086 148.601 83.1754 152.412 83.1754C155.859 83.1754 160.798 83.2086 166.234 85.8601C167.493 86.4899 169.88 87.7825 172.332 90.0364C176.707 94.0138 178.53 98.3889 179.889 101.637C182.342 107.636 183.005 113.238 183.005 117.58C182.707 117.58 182.375 117.58 182.044 117.613Z" fill="white"/>
<path d="M225.822 153.21C224.828 154.005 221.646 156.392 216.906 156.591C212.167 156.789 208.819 154.668 207.791 153.939C207.791 153.475 207.791 153.044 207.791 152.58C208.653 153.276 211.968 155.762 216.873 155.629C221.845 155.497 225.06 152.713 225.855 151.983C225.822 152.414 225.822 152.812 225.822 153.21Z" fill="white"/>
<path d="M499.631 175.147C499.664 175.147 526.014 198.448 530.024 202.458C554.021 225.395 584.548 223.771 606.953 202.956C629.359 182.141 629.359 153.338 606.953 152.277C584.548 151.217 562.142 175.744 556.805 205.077C551.469 234.41 561.081 266.759 587.199 272.096C606.92 276.106 626.045 258.109 637.215 235.272" stroke="white" stroke-width="18.2296" stroke-miterlimit="10"/>
<path d="M486.804 229.575C489.655 243.296 485.412 257.648 475.469 267.923C475.27 268.122 474.872 268.553 474.839 268.553C467.448 275.878 457.67 280.319 447.296 281.048C446.268 281.115 445.274 281.148 444.28 281.148C435.032 281.148 426.017 278.231 418.592 272.762C418.592 272.762 417.598 272.033 417.2 271.668C415.643 270.674 413.82 270.144 411.997 270.144C406.495 270.144 401.987 274.85 401.987 280.684H401.026V238.159H401.987C401.987 249.395 406.395 259.968 414.383 267.89C415.477 268.984 416.604 270.011 417.797 270.939L419.189 272C427.243 277.933 437.22 280.816 447.263 280.12C457.438 279.424 466.984 275.082 474.209 267.89L474.806 267.26C480.109 261.659 482.993 254.334 482.893 246.611C482.794 238.888 479.711 231.63 474.209 226.161C472.221 224.172 469.934 222.482 467.514 221.156C466.619 220.659 465.691 220.228 464.763 219.83H464.73L411.765 194.375C406.826 191.889 403.445 187.779 401.921 182.476C400.562 177.802 400.86 172.466 402.65 167.793C404.373 163.053 406.793 159.274 410.439 155.562C410.538 155.463 410.638 155.363 410.737 155.231L411.433 155.927C411.334 156.026 411.234 156.126 411.135 156.225C408.583 158.844 407.588 161.462 408.086 164.246C409.511 172.3 423.398 179.99 438.148 187.116L455.748 195.568C462.211 198.816 470.232 203.092 474.872 207.732C476.331 209.191 477.69 210.715 478.916 212.306C482.827 217.477 485.512 223.31 486.804 229.575ZM506.857 254.367C506.857 254.599 506.857 254.831 506.857 255.063C506.857 255.295 506.857 255.494 506.857 255.726C507.056 263.449 510.735 270.541 516.933 275.182C521.142 278.364 526.18 280.087 531.484 280.22C531.484 280.22 531.881 280.22 532.047 280.22C541.294 280.22 550.045 277.303 557.436 271.768L557.999 272.53C550.475 278.198 541.493 281.181 532.047 281.181C531.848 281.181 531.45 281.181 531.45 281.181C522.236 281.048 513.453 278.065 506.095 272.53C500.825 268.586 496.483 263.415 493.5 257.582C490.45 251.616 488.859 245.186 488.793 238.424V237.927V144.426H482.462V143.464H488.793V121.92V79.8596C480.606 76.2468 471.624 75.1199 462.741 76.6777C453.56 78.2687 445.241 82.6106 438.612 89.2065C428.735 99.0836 423.332 113.667 424.492 127.323C425.42 138.062 430.392 147.144 438.512 152.878C440.137 153.905 442.026 154.468 443.981 154.468C450.014 154.468 454.555 149.928 454.555 143.928H455.516V185.89H454.555C454.256 175.118 449.848 164.975 442.192 157.352C440.866 156.026 439.44 154.8 437.982 153.673C429.597 147.773 424.459 138.46 423.531 127.422C422.338 113.502 427.84 98.6196 437.916 88.5436C444.677 81.8152 453.196 77.3738 462.542 75.7497C471.458 74.1919 480.507 75.2525 488.76 78.8321L489.456 79.1304C494.527 81.4174 499.101 84.5993 503.078 88.5436C504.371 89.8362 506.857 92.8192 506.857 92.8192V122.915V126.362C506.824 127.621 506.658 128.848 506.36 130.008C506.227 130.571 506.061 131.135 505.863 131.665C503.509 138.393 497.179 143.266 489.721 143.464H557.966V144.426H506.824L506.857 254.367Z" fill="white"/>
<path d="M335.035 281.742C329.963 281.742 325.091 280.682 320.683 278.527C311.402 274.019 305.171 265.236 303.547 254.497C301.625 241.571 307.16 228.081 318.363 218.436C329.765 208.625 344.282 205.178 357.175 209.155C363.904 211.243 368.776 213.331 373.913 216.58C378.023 198.814 376.963 181.778 370.997 171.337C367.616 165.437 363.208 162.454 357.474 162.255C352.17 162.056 346.039 164.178 339.708 168.387C332.648 173.06 325.887 180.054 320.119 188.539L319.954 188.804C309.182 203.587 301.79 219.563 293.305 238.919L276.634 231.594C285.251 211.972 293.372 194.406 305.171 178.198C312.231 167.824 320.683 159.173 329.665 153.24C339.211 146.909 349.088 143.727 358.236 144.092C370.234 144.556 380.41 151.052 386.873 162.355C395.756 177.9 397.115 201.565 390.486 225.628C390.188 226.722 389.856 227.849 389.525 228.909C393.137 232.091 397.38 235.572 400.33 238.323C401.258 239.184 400.098 280.715 400.098 280.715H399.103C398.441 269.777 397.347 265.667 393.469 259.171C392.474 257.513 391.149 255.525 389.856 254.166C388.232 252.475 385.481 249.691 382.299 246.874C380.907 249.592 379.415 252.21 377.858 254.663C371.825 264.109 364.799 271.136 357.01 275.544C349.685 279.654 342.161 281.742 335.035 281.742ZM346.47 225.794C341.001 225.794 335.134 228.081 330.262 232.257C323.931 237.693 320.617 245.183 321.611 251.779C322.34 256.585 324.859 260.264 328.704 262.12C333.808 264.606 340.868 263.711 348.027 259.635C355.584 255.359 362.744 246.244 367.947 234.577C362.478 230.567 358.567 228.677 351.806 226.589C350.082 226.059 348.293 225.794 346.47 225.794Z" fill="white"/>
<path d="M296 256V172H295V256H296Z" fill="#101010"/>
<path d="M400.992 296.521V212.001H400.031V296.521H400.992Z" fill="#101010"/>
<path d="M507.818 157.707H506.857V209.413H507.818V157.707Z" fill="#101010"/>
<path d="M165.155 220.826C186.76 218.007 195.084 210.586 196.185 203.246C196.185 221.962 187.377 234.072 175.267 241.778C163.157 249.485 141.138 251.687 121.322 239.576C105.468 229.888 98.936 210.586 98.202 203.246C99.303 201.044 105.688 197.519 118.019 201.042C133.432 205.446 138.35 224.322 165.155 220.826Z" fill="white"/>
<line x1="2.18557e-08" y1="74.75" x2="740" y2="74.7501" stroke="#EB5757" stroke-width="0.5"/>
<line x1="-2.18557e-08" y1="281.75" x2="740" y2="281.75" stroke="#EB5757" stroke-width="0.5"/>
<line x1="94.25" y1="-1.25395e-08" x2="94.25" y2="360" stroke="#EB5757" stroke-width="0.5"/>
<line x1="207" y1="-5.0158e-08" x2="207" y2="360" stroke="#EB5757" stroke-width="2"/>
<line x1="295" y1="-5.0158e-08" x2="295" y2="360" stroke="#EB5757" stroke-width="2"/>
<line x1="401" y1="-5.0158e-08" x2="401" y2="360" stroke="#EB5757" stroke-width="2"/>
<line x1="489" y1="-5.0158e-08" x2="489" y2="360" stroke="#EB5757" stroke-width="2"/>
<line x1="507" y1="-5.0158e-08" x2="507" y2="360" stroke="#EB5757" stroke-width="2"/>
<line x1="646.25" y1="-1.25395e-08" x2="646.25" y2="360" stroke="#EB5757" stroke-width="0.5"/>
</svg>
