<svg width="170" height="270" viewBox="0 0 170 270" fill="none" xmlns="http://www.w3.org/2000/svg">
<rect width="170" height="270" fill="#101010"/>
<rect x="22.5861" y="26.0861" width="123.828" height="123.828" rx="9.91389" fill="white" stroke="#101010" stroke-width="0.172222"/>
<g clip-path="url(#clip0)">
<path d="M50.3223 74.4456C57.2175 60.5402 70.3759 54.5299 75.915 64.2177C81.4542 73.9054 76.2943 93.7521 66.7444 99.1649C59.8032 103.084 53.7814 99.9578 52.908 94.1429C51.8163 86.8569 60.1825 79.6629 67.4454 81.9154C70.6287 82.9037 72.364 83.846 75.26 86.1674C75.7197 86.5351 80.5463 90.7642 81.9253 92.1432C90.1996 100.05 100.703 99.4866 108.426 92.3156C116.149 85.1446 116.149 75.227 108.426 74.8593C100.703 74.4915 92.9921 82.9496 91.1534 93.0511C89.3147 103.164 92.6244 114.3 101.634 116.139C108.472 117.529 115.091 111.231 118.941 103.29" stroke="#101010" stroke-width="6.3206" stroke-miterlimit="10"/>
<path d="M84.1318 89.8804C87.4645 93.0522 91.2799 94.7186 95.2101 94.7186C95.2561 94.7186 95.3021 94.7186 95.348 94.7186C98.1061 94.6956 100.83 93.8452 103.346 92.2593L103.151 91.972C100.68 93.5234 98.0372 94.3393 95.348 94.3738C95.3021 94.3738 95.2561 94.3738 95.2101 94.3738C91.3833 94.3738 87.6369 92.7305 84.3732 89.6276C82.8447 88.0992 77.9606 83.8356 77.455 83.4334C74.8003 81.2959 72.9156 80.1582 70.3299 79.1929L70.238 79.5261C72.7777 80.4685 74.628 81.6062 77.2481 83.7092C77.7538 84.1115 82.6034 88.352 84.1318 89.8804Z" fill="white"/>
<path d="M106.989 97.4419C103.289 99.8438 99.2553 101.05 95.2446 101.05C89.7974 101.05 84.3617 98.844 79.7419 94.431L79.6959 94.3851C78.4548 93.1439 73.7775 89.0413 73.2834 88.6391C71.3872 87.1221 70.1346 86.3062 68.4797 85.6396L68.3878 85.9729C69.9852 86.628 71.2148 87.4209 73.065 88.9149C73.5592 89.3171 78.2135 93.3968 79.4546 94.6379L79.5121 94.6954C81.8105 96.9018 84.3502 98.5911 87.0623 99.7289C89.7055 100.844 92.4635 101.407 95.2561 101.407C98.0027 101.407 100.715 100.855 103.335 99.7748C104.668 99.2232 105.955 98.5452 107.196 97.7292L106.989 97.4419Z" fill="white"/>
</g>
<rect x="46.5528" y="174.053" width="75.8944" height="75.8944" rx="9.94722" fill="white" stroke="#101010" stroke-width="0.105556"/>
<g clip-path="url(#clip1)">
<path d="M63.5524 203.693C67.7785 195.17 75.8433 191.486 79.2383 197.424C82.6332 203.362 79.4707 215.526 73.6176 218.843C69.3633 221.245 65.6725 219.329 65.1372 215.765C64.4681 211.3 69.5957 206.89 74.0472 208.271C75.9983 208.877 77.0618 209.454 78.8368 210.877C79.1185 211.103 82.0768 213.695 82.922 214.54C87.9933 219.386 94.4311 219.041 99.1643 214.645C103.898 210.25 103.898 204.172 99.1643 203.946C94.4311 203.721 89.7049 208.905 88.5779 215.096C87.451 221.294 89.4795 228.12 95.0016 229.247C99.1925 230.099 103.25 226.239 105.609 221.372" stroke="#101010" stroke-width="3.87392" stroke-miterlimit="10"/>
<path d="M84.2744 213.153C86.317 215.097 88.6554 216.118 91.0643 216.118C91.0925 216.118 91.1206 216.118 91.1488 216.118C92.8392 216.104 94.5085 215.583 96.0511 214.611L95.9313 214.435C94.417 215.386 92.797 215.886 91.1488 215.907C91.1206 215.907 91.0925 215.907 91.0643 215.907C88.7188 215.907 86.4226 214.9 84.4223 212.998C83.4855 212.061 80.492 209.448 80.1821 209.202C78.5551 207.891 77.3999 207.194 75.8151 206.603L75.7588 206.807C77.3154 207.384 78.4494 208.082 80.0553 209.371C80.3652 209.617 83.3376 212.216 84.2744 213.153Z" fill="white"/>
<path d="M98.2839 217.787C96.0159 219.259 93.5436 219.999 91.0854 219.999C87.7468 219.999 84.4152 218.647 81.5838 215.942L81.5556 215.914C80.7949 215.153 77.9282 212.639 77.6253 212.392C76.4631 211.462 75.6954 210.962 74.6811 210.554L74.6248 210.758C75.6038 211.159 76.3575 211.645 77.4915 212.561C77.7944 212.808 80.647 215.308 81.4077 216.069L81.4429 216.104C82.8516 217.456 84.4082 218.492 86.0705 219.189C87.6905 219.872 89.3809 220.217 91.0925 220.217C92.7759 220.217 94.4381 219.879 96.044 219.217C96.8611 218.879 97.6499 218.464 98.4106 217.963L98.2839 217.787Z" fill="white"/>
</g>
<defs>
<clipPath id="clip0">
<rect x="47.3801" y="56.3105" width="74.4383" height="63.2579" rx="10" fill="white"/>
</clipPath>
<clipPath id="clip1">
<rect x="61.7491" y="192.578" width="45.6235" height="38.7709" rx="10" fill="white"/>
</clipPath>
</defs>
</svg>
