<svg width="740" height="450" viewBox="0 0 740 450" fill="none" xmlns="http://www.w3.org/2000/svg">
<rect width="740" height="450" fill="#101010"/>
<rect x="235.188" y="90.1875" width="269.625" height="269.625" fill="white" stroke="black" stroke-width="0.375"/>
<g clip-path="url(#clip0)">
<path d="M295.581 195.487C310.595 165.21 339.246 152.123 351.307 173.217C363.368 194.311 352.133 237.526 331.339 249.312C316.225 257.845 303.113 251.038 301.211 238.377C298.834 222.512 317.051 206.848 332.865 211.752C339.796 213.904 343.575 215.956 349.881 221.011C350.882 221.812 361.391 231.02 364.394 234.023C382.41 251.239 405.281 250.012 422.097 234.398C438.912 218.784 438.912 197.189 422.097 196.388C405.281 195.588 388.491 214.004 384.487 236C380.484 258.02 387.69 282.267 407.308 286.271C422.197 289.298 436.61 275.586 444.993 258.295" stroke="#101010" stroke-width="13.7626" stroke-miterlimit="10"/>
<path d="M369.198 229.094C376.455 236 384.763 239.628 393.32 239.628C393.421 239.628 393.521 239.628 393.621 239.628C399.626 239.578 405.557 237.726 411.037 234.273L410.611 233.648C405.231 237.026 399.476 238.802 393.621 238.878C393.521 238.878 393.421 238.878 393.32 238.878C384.988 238.878 376.83 235.299 369.724 228.543C366.396 225.215 355.761 215.932 354.66 215.056C348.88 210.401 344.776 207.924 339.146 205.822L338.946 206.548C344.476 208.6 348.504 211.077 354.21 215.656C355.311 216.532 365.87 225.766 369.198 229.094Z" fill="white"/>
<path d="M418.969 245.558C410.912 250.788 402.129 253.416 393.396 253.416C381.535 253.416 369.699 248.611 359.64 239.002L359.54 238.902C356.837 236.2 346.653 227.267 345.577 226.391C341.448 223.088 338.72 221.311 335.117 219.86L334.917 220.586C338.395 222.012 341.073 223.738 345.101 226.991C346.177 227.867 356.312 236.75 359.014 239.453L359.139 239.578C364.144 244.382 369.674 248.061 375.579 250.538C381.334 252.965 387.34 254.191 393.421 254.191C399.401 254.191 405.306 252.99 411.012 250.638C413.914 249.437 416.717 247.961 419.419 246.184L418.969 245.558Z" fill="white"/>
</g>
<line x1="451.188" y1="90" x2="451.188" y2="360" stroke="#EB5757" stroke-width="0.375"/>
<line x1="397.188" y1="90" x2="397.188" y2="360" stroke="#EB5757" stroke-width="0.375"/>
<line x1="343.188" y1="90" x2="343.188" y2="360" stroke="#EB5757" stroke-width="0.375"/>
<line x1="289.188" y1="90" x2="289.188" y2="360" stroke="#EB5757" stroke-width="0.375"/>
<rect x="451" y="90" width="54" height="270" fill="#EB5757" fill-opacity="0.4"/>
<rect x="235" y="90" width="54" height="270" fill="#EB5757" fill-opacity="0.4"/>
<defs>
<clipPath id="clip0">
<rect width="162.083" height="137.739" fill="white" transform="translate(289.174 156)"/>
</clipPath>
</defs>
</svg>
