<svg width="740" height="630" viewBox="0 0 740 630" fill="none" xmlns="http://www.w3.org/2000/svg">
<path d="M101.908 358.1C101.892 365.367 101.924 366.925 101.908 374.192H109.037V374.533H94.4494V374.192H101.374C101.374 366.795 101.343 365.685 101.343 358.1" fill="#101010"/>
<path d="M312.174 290.562V299.865C312.046 304.747 308.041 308.672 303.126 308.672V308.178C307.77 308.178 311.551 304.476 311.679 299.865H302.871V290.562H312.174Z" fill="#101010"/>
<path d="M170.929 374.142H173.993V374.605H159.169V374.142H162.233V321.311V320.657C162.137 316.939 160.366 313.524 157.382 311.29C155.356 309.759 152.93 308.929 150.377 308.865C150.377 308.865 150.186 308.865 150.106 308.865C145.702 308.865 141.506 310.253 137.979 312.87V374.158H141.043V374.621H126.219V374.158H129.283V275.868H126.219V275.405H137.979V312.296C141.522 309.759 145.702 308.402 150.106 308.402C150.202 308.402 150.393 308.402 150.393 308.402C154.829 308.466 159.057 309.902 162.6 312.567C165.121 314.466 167.227 316.955 168.663 319.763C170.131 322.635 170.897 325.731 170.929 328.986V329.225V374.142Z" fill="#101010"/>
<path d="M79.6432 348.168C79.6113 348.137 79.5794 348.089 79.5315 348.025C76.4998 343.653 75.6382 339.951 75.335 338.371C75.1435 337.35 74.968 336.393 74.9999 335.052C75.0159 334.574 75.0797 332.563 76.1488 329.787C76.8349 328 77.6327 326.707 78.638 325.175C79.9623 323.165 81.8452 320.468 84.3822 317.357C84.446 317.437 84.5099 317.5 84.5896 317.58C81.9888 320.867 80.0581 323.723 78.6858 325.862C77.5529 327.617 76.8987 328.813 76.2924 330.553C75.6382 332.42 75.5105 333.792 75.4786 334.366C75.4627 334.606 75.4308 335.228 75.4786 336.01C75.5424 337.334 75.7818 338.435 76.0052 339.217C76.0052 339.217 76.2126 340.063 76.6434 341.307C78.5422 346.892 82.1643 351.535 87.1267 354.758C87.2863 354.854 87.4458 354.966 87.5894 355.062C87.6373 355.093 87.6852 355.109 87.733 355.141C87.8607 355.221 87.9883 355.301 88.116 355.365C88.1479 355.381 88.1798 355.413 88.2277 355.429C88.3872 355.524 88.5468 355.62 88.7064 355.7C88.7383 355.716 88.7702 355.732 88.8181 355.764C88.9617 355.843 89.0893 355.907 89.2329 355.987C89.2648 356.003 89.2968 356.019 89.3287 356.035C94.4506 358.7 100.307 359.609 106.051 358.556L106.498 358.476C106.705 358.428 106.897 358.396 107.104 358.349L107.311 358.301C107.391 358.285 107.471 358.269 107.551 358.237C112.816 356.928 117.364 353.689 120.316 349.142C123.427 344.355 124.496 338.643 123.315 333.042C122.135 327.457 118.832 322.654 114.045 319.543C113.71 319.319 113.359 319.112 113.008 318.905L111.795 318.25C105.062 314.66 93.3656 308.389 92.9986 308.198C88.2915 305.693 85.6109 300.507 86.3129 295.273C86.3129 295.273 86.3289 295.098 86.3448 295.082C86.8395 291.268 88.1958 287.662 90.3179 284.375L90.7169 284.615C89.4404 286.593 88.9617 290.582 90.4935 294.412C91.6583 297.284 94.4985 299.135 96.5249 300.268L115.832 310.607C116.694 311.102 124.273 315.713 127.017 325.973C128.98 333.249 127.751 341.052 123.635 347.371C119.917 353.083 114.236 357.104 107.615 358.7C107.535 358.716 107.455 358.747 107.359 358.763L107.168 358.811C107.056 358.843 106.96 358.859 106.849 358.875C106.753 358.891 106.53 358.939 106.53 358.939L106.083 359.019C100.578 360.024 94.9772 359.258 89.9829 356.896C87.7011 355.811 83.2334 353.258 79.6432 348.168Z" fill="#101010"/>
<path d="M137.995 374.446V312.44H137.533V374.462H137.995V374.446Z" fill="#101010"/>
<path d="M273.751 348.948V313.142H273.289V348.932H273.751V348.948Z" fill="white"/>
<path d="M129.762 374.446V312.44H129.299V374.462H129.762V374.446Z" fill="#101010"/>
<path d="M116.422 295.735C116.438 294.235 116.279 291.986 115.417 289.417C114.891 287.853 113.901 284.917 111.476 282.683C111.109 282.348 110.152 281.534 108.747 280.832C106.115 279.524 103.737 279.492 102.174 279.492C100.323 279.492 97.1792 279.492 94.0837 281.454C93.1901 282.013 91.8019 282.906 90.7807 284.646C89.1851 287.294 89.5681 290.151 89.7117 291.315C89.8872 292.656 90.171 293.705 90.4582 294.408C89.1179 294.312 87.8448 294.235 86.5045 294.14C86.9034 292.049 87.4459 290.374 87.9086 289.177C88.6107 287.31 89.1532 285.858 90.3978 284.279C90.9882 283.529 92.1689 282.188 94.0518 281.071C97.2271 279.173 100.323 279.157 102.158 279.157C103.817 279.157 106.194 279.173 108.811 280.449C109.418 280.752 110.566 281.375 111.747 282.46C113.853 284.374 114.731 286.481 115.385 288.044C116.566 290.932 116.885 293.629 116.885 295.719C116.742 295.719 116.582 295.719 116.422 295.735Z" fill="#101010"/>
<path d="M137.979 312.872C137.501 313.255 135.969 314.404 133.687 314.5C131.405 314.595 129.794 313.574 129.299 313.223C129.299 313 129.299 312.792 129.299 312.569C129.714 312.904 131.31 314.101 133.671 314.037C136.065 313.973 137.612 312.633 137.995 312.282C137.979 312.489 137.979 312.681 137.979 312.872Z" fill="#101010"/>
<path fill-rule="evenodd" clip-rule="evenodd" d="M303.108 316.643C308.022 311.406 314.576 307.704 321.668 308.04C325.347 308.214 328.559 309.578 330.818 312.139C333.032 314.648 333.938 317.861 333.938 321.056C333.938 327.356 330.489 334.422 324.447 340.035C318.363 345.687 310.975 348.906 303.276 348.987C302.582 348.994 301.889 348.976 301.198 348.932C301.478 351.715 302.092 354.346 303.026 356.667C305.046 361.683 308.363 364.892 312.825 365.805C315.906 366.432 319.293 365.436 322.807 362.65C326.33 359.856 329.606 355.521 332.087 350.45L339.97 354.306C337.073 360.229 333.057 365.722 328.259 369.526C323.451 373.339 317.488 375.709 311.076 374.405L311.072 374.404C302.962 372.747 297.68 366.886 294.885 359.944C293.274 355.941 292.424 351.463 292.272 346.896C288.44 345.359 284.767 342.977 281.394 339.753L281.358 339.719L281.323 339.684C280.471 338.832 276.948 335.659 273.471 332.558C271.768 331.039 270.125 329.58 268.906 328.501C268.297 327.961 267.795 327.518 267.446 327.21C267.271 327.056 267.137 326.938 267.047 326.859L266.956 326.78C266.948 326.773 266.949 326.774 266.955 326.778C266.956 326.78 266.958 326.781 266.96 326.783C266.962 326.785 266.985 326.804 267.016 326.83C267.026 326.838 267.073 326.876 267.135 326.924C267.173 326.952 267.282 327.031 267.354 327.08C267.531 327.193 268.721 327.688 269.794 327.821V319.045C270.866 319.178 272.057 319.674 272.235 319.787C272.307 319.836 272.416 319.915 272.454 319.944C272.516 319.991 272.564 320.03 272.576 320.04L272.577 320.04C272.611 320.068 272.639 320.092 272.647 320.099L272.647 320.099C272.67 320.119 272.693 320.138 272.707 320.151C272.741 320.18 272.784 320.217 272.832 320.26C272.931 320.347 273.073 320.471 273.25 320.627C273.605 320.941 274.112 321.389 274.724 321.931C275.949 323.015 277.601 324.481 279.313 326.008C282.624 328.962 286.359 332.318 287.489 333.439C289.256 335.123 291.078 336.466 292.923 337.498C292.948 337.351 292.974 337.203 293.001 337.056C294.433 329.185 298.149 321.928 303.108 316.643ZM301.391 340.147C301.992 340.196 302.59 340.218 303.184 340.211C308.418 340.156 313.771 337.974 318.474 333.606C323.218 329.198 325.162 324.321 325.162 321.056C325.162 319.467 324.72 318.492 324.237 317.944C323.799 317.448 322.967 316.887 321.253 316.806C317.558 316.631 313.326 318.579 309.508 322.648C305.734 326.67 302.773 332.377 301.636 338.627C301.543 339.133 301.462 339.64 301.391 340.147Z" fill="#101010"/>
<path d="M263.619 349.635C264.991 356.241 262.949 363.15 258.162 368.097C258.066 368.192 257.875 368.4 257.859 368.4C254.301 371.926 249.594 374.064 244.599 374.415C244.105 374.447 243.626 374.463 243.147 374.463C238.695 374.463 234.355 373.059 230.781 370.426C230.781 370.426 230.302 370.075 230.111 369.9C229.361 369.421 228.483 369.166 227.606 369.166C224.957 369.166 222.787 371.432 222.787 374.24H222.324V353.768H222.787C222.787 359.177 224.909 364.267 228.755 368.081C229.281 368.607 229.824 369.102 230.398 369.549L231.068 370.059C234.946 372.915 239.749 374.304 244.583 373.969C249.482 373.633 254.077 371.543 257.556 368.081L257.843 367.778C260.396 365.081 261.784 361.555 261.736 357.837C261.688 354.119 260.204 350.625 257.556 347.992C256.598 347.034 255.497 346.221 254.333 345.582C253.902 345.343 253.455 345.136 253.008 344.944H252.992L227.494 332.69C225.117 331.493 223.489 329.514 222.755 326.961C222.101 324.712 222.244 322.143 223.106 319.893C223.936 317.611 225.101 315.792 226.856 314.005C226.904 313.957 226.952 313.909 226.999 313.845L227.335 314.18C227.287 314.228 227.239 314.276 227.191 314.324C225.962 315.585 225.484 316.845 225.723 318.185C226.409 322.063 233.095 325.765 240.195 329.195L248.668 333.264C251.78 334.828 255.641 336.886 257.875 339.12C258.577 339.822 259.231 340.556 259.821 341.322C261.704 343.811 262.997 346.62 263.619 349.635ZM273.273 361.571C273.273 361.682 273.273 361.794 273.273 361.906C273.273 362.017 273.273 362.113 273.273 362.225C273.368 365.943 275.139 369.357 278.123 371.591C280.15 373.123 282.575 373.953 285.128 374.016C285.128 374.016 285.32 374.016 285.399 374.016C289.851 374.016 294.064 372.612 297.622 369.948L297.893 370.315C294.271 373.043 289.947 374.479 285.399 374.479C285.304 374.479 285.112 374.479 285.112 374.479C280.676 374.415 276.448 372.979 272.906 370.315C270.369 368.416 268.278 365.927 266.842 363.118C265.374 360.246 264.608 357.151 264.576 353.896V353.656V308.644H261.529V308.181H264.576V297.809V277.561C260.635 275.822 256.311 275.279 252.035 276.029C247.615 276.795 243.61 278.885 240.419 282.06C235.664 286.815 233.063 293.836 233.621 300.41C234.068 305.58 236.462 309.952 240.371 312.712C241.153 313.207 242.062 313.478 243.004 313.478C245.908 313.478 248.094 311.292 248.094 308.404H248.556V328.605H248.094C247.95 323.419 245.828 318.537 242.142 314.867C241.504 314.228 240.818 313.638 240.115 313.095C236.079 310.255 233.605 305.771 233.159 300.458C232.584 293.756 235.233 286.592 240.084 281.741C243.339 278.502 247.439 276.364 251.939 275.582C256.231 274.832 260.587 275.343 264.56 277.066L264.896 277.21C267.337 278.311 269.539 279.843 271.454 281.741C272.076 282.364 273.273 283.8 273.273 283.8V298.288V299.947C273.257 300.554 273.177 301.144 273.033 301.703C272.969 301.974 272.89 302.245 272.794 302.5C271.661 305.74 268.613 308.085 265.023 308.181H297.877V308.644H273.257L273.273 361.571Z" fill="#101010"/>
<path d="M190.555 374.749C188.114 374.749 185.769 374.239 183.646 373.201C179.179 371.031 176.179 366.803 175.397 361.633C174.471 355.41 177.136 348.916 182.529 344.273C188.018 339.55 195.007 337.89 201.214 339.805C204.453 340.81 206.799 341.815 209.272 343.379C211.251 334.827 210.74 326.625 207.868 321.599C206.24 318.759 204.118 317.323 201.358 317.227C198.805 317.131 195.853 318.152 192.805 320.179C189.407 322.429 186.151 325.795 183.375 329.88L183.295 330.008C178.11 337.124 174.551 344.815 170.466 354.134L162.44 350.607C166.589 341.161 170.498 332.704 176.179 324.902C179.577 319.907 183.646 315.743 187.97 312.887C192.566 309.839 197.321 308.307 201.725 308.483C207.501 308.706 212.4 311.834 215.511 317.275C219.787 324.758 220.441 336.151 217.25 347.735C217.107 348.262 216.947 348.804 216.787 349.315C218.527 350.847 220.569 352.522 221.989 353.846C222.436 354.261 221.878 374.255 221.878 374.255H221.399C221.08 368.989 220.553 367.01 218.686 363.883C218.208 363.085 217.569 362.128 216.947 361.474C216.165 360.66 214.841 359.319 213.309 357.963C212.639 359.272 211.921 360.532 211.171 361.713C208.267 366.26 204.884 369.643 201.134 371.765C197.608 373.744 193.986 374.749 190.555 374.749ZM196.06 347.815C193.428 347.815 190.603 348.916 188.258 350.926C185.21 353.543 183.614 357.149 184.093 360.325C184.444 362.638 185.657 364.41 187.508 365.303C189.965 366.5 193.364 366.069 196.81 364.106C200.448 362.048 203.895 357.66 206.4 352.043C203.767 350.113 201.884 349.203 198.629 348.198C197.8 347.943 196.938 347.815 196.06 347.815Z" fill="#101010"/>
<path d="M171.408 362.559V321.871H170.945V362.559H171.408Z" fill="white"/>
<path d="M222.308 381.864V341.175H221.845V381.864H222.308Z" fill="white"/>
<path d="M273.735 315.037H273.272V339.929H273.735V315.037Z" fill="white"/>
<path d="M108.292 345.423C118.693 344.067 122.7 340.494 123.23 336.96C123.23 345.97 118.99 351.8 113.16 355.51C107.33 359.22 96.7301 360.28 87.1901 354.45C79.5581 349.786 76.4134 340.494 76.0601 336.96C76.5901 335.9 79.6641 334.203 85.6001 335.899C93.0201 338.019 95.3879 347.106 108.292 345.423Z" fill="#101010"/>
<path d="M92.3305 484.031C92.3203 488.711 92.3406 489.714 92.3305 494.395H96.9218V494.615H87.5267V494.395H91.9866C91.9866 489.631 91.9664 488.916 91.9664 484.031" fill="#101010"/>
<path d="M227.756 440.531V446.523C227.674 449.668 225.094 452.196 221.929 452.196V451.877C224.919 451.877 227.355 449.493 227.437 446.523H221.764V440.531H227.756Z" fill="#101010"/>
<path d="M136.785 494.363H138.758V494.661H129.211V494.363H131.184V460.336V459.915C131.122 457.52 129.981 455.321 128.06 453.882C126.754 452.895 125.192 452.361 123.548 452.32C123.548 452.32 123.425 452.32 123.373 452.32C120.537 452.32 117.834 453.214 115.563 454.899V494.373H117.536V494.671H107.989V494.373H109.962V431.067H107.989V430.769H115.563V454.53C117.844 452.895 120.537 452.022 123.373 452.022C123.435 452.022 123.558 452.022 123.558 452.022C126.415 452.063 129.139 452.988 131.42 454.704C133.044 455.927 134.4 457.53 135.325 459.339C136.271 461.189 136.764 463.183 136.785 465.279V465.433V494.363Z" fill="#101010"/>
<path d="M77.9905 477.634C77.97 477.613 77.9494 477.583 77.9186 477.542C75.966 474.726 75.411 472.341 75.2158 471.324C75.0925 470.666 74.9794 470.05 75 469.186C75.0102 468.878 75.0513 467.583 75.7399 465.795C76.1818 464.644 76.6957 463.812 77.3431 462.825C78.1961 461.53 79.4088 459.793 81.0428 457.789C81.0839 457.841 81.125 457.882 81.1764 457.933C79.5012 460.05 78.2577 461.89 77.3739 463.267C76.6443 464.397 76.2229 465.168 75.8324 466.288C75.411 467.491 75.3288 468.374 75.3083 468.744C75.298 468.899 75.2774 469.299 75.3083 469.803C75.3494 470.656 75.5035 471.365 75.6474 471.869C75.6474 471.869 75.781 472.413 76.0585 473.215C77.2814 476.812 79.6143 479.802 82.8104 481.878C82.9132 481.94 83.016 482.012 83.1084 482.074C83.1393 482.094 83.1701 482.104 83.2009 482.125C83.2832 482.176 83.3654 482.228 83.4476 482.269C83.4681 482.279 83.4887 482.3 83.5195 482.31C83.6223 482.372 83.7251 482.433 83.8278 482.485C83.8484 482.495 83.8689 482.505 83.8998 482.526C83.9923 482.577 84.0745 482.618 84.167 482.67C84.1875 482.68 84.2081 482.69 84.2286 482.701C87.5275 484.417 91.2992 485.003 94.9988 484.324L95.2866 484.273C95.4202 484.242 95.5435 484.221 95.6771 484.191L95.8107 484.16C95.8621 484.15 95.9135 484.139 95.9649 484.119C99.3563 483.276 102.285 481.19 104.186 478.261C106.19 475.178 106.879 471.499 106.118 467.891C105.358 464.295 103.231 461.201 100.148 459.197C99.9317 459.053 99.7057 458.92 99.4796 458.786L98.6985 458.365C94.3617 456.052 86.8287 452.014 86.5923 451.89C83.5606 450.277 81.8341 446.937 82.2863 443.566C82.2863 443.566 82.2966 443.453 82.3068 443.443C82.6254 440.987 83.499 438.664 84.8658 436.547L85.1227 436.701C84.3006 437.975 83.9923 440.545 84.9788 443.011C85.7291 444.861 87.5584 446.053 88.8635 446.783L101.299 453.442C101.854 453.761 106.735 456.731 108.503 463.339C109.767 468.025 108.975 473.05 106.324 477.12C103.929 480.799 100.271 483.389 96.006 484.417C95.9546 484.427 95.9032 484.448 95.8415 484.458L95.7182 484.489C95.6463 484.509 95.5846 484.52 95.5127 484.53C95.451 484.54 95.3071 484.571 95.3071 484.571L95.0194 484.622C91.4739 485.27 87.8667 484.776 84.65 483.255C83.1804 482.557 80.3028 480.912 77.9905 477.634Z" fill="#101010"/>
<path d="M115.573 494.558V454.622H115.275V494.569H115.573V494.558Z" fill="#101010"/>
<path d="M203.009 478.136V455.074H202.711V478.126H203.009V478.136Z" fill="white"/>
<path d="M110.27 494.558V454.622H109.972V494.569H110.27V494.558Z" fill="#101010"/>
<path d="M101.679 443.864C101.689 442.897 101.586 441.448 101.031 439.794C100.692 438.787 100.055 436.896 98.493 435.457C98.2567 435.241 97.64 434.717 96.7357 434.265C95.04 433.422 93.5087 433.402 92.5016 433.402C91.3095 433.402 89.2849 433.402 87.2912 434.666C86.7157 435.025 85.8216 435.601 85.1639 436.721C84.1362 438.427 84.3828 440.267 84.4753 441.017C84.5884 441.88 84.7712 442.556 84.9561 443.008C84.0929 442.947 83.2729 442.897 82.4097 442.836C82.6666 441.49 83.016 440.41 83.314 439.64C83.7662 438.437 84.1156 437.502 84.9172 436.485C85.2975 436.002 86.058 435.138 87.2706 434.419C89.3157 433.196 91.3095 433.186 92.4913 433.186C93.5601 433.186 95.0914 433.196 96.7768 434.018C97.1673 434.213 97.9072 434.614 98.6677 435.313C100.024 436.546 100.59 437.903 101.011 438.91C101.771 440.77 101.977 442.507 101.977 443.853C101.884 443.853 101.782 443.853 101.679 443.864Z" fill="#101010"/>
<path d="M115.563 454.901C115.255 455.147 114.268 455.887 112.798 455.949C111.329 456.011 110.291 455.353 109.972 455.127C109.972 454.983 109.972 454.849 109.972 454.705C110.239 454.921 111.267 455.692 112.788 455.651C114.33 455.61 115.327 454.747 115.573 454.521C115.563 454.654 115.563 454.777 115.563 454.901Z" fill="#101010"/>
<path fill-rule="evenodd" clip-rule="evenodd" d="M221.917 457.329C225.082 453.956 229.303 451.572 233.871 451.789C236.24 451.901 238.309 452.779 239.764 454.428C241.19 456.044 241.774 458.114 241.774 460.171C241.774 464.229 239.552 468.78 235.661 472.395C231.742 476.036 226.984 478.109 222.025 478.161C221.579 478.166 221.132 478.154 220.687 478.126C220.867 479.918 221.263 481.612 221.864 483.107C223.165 486.338 225.302 488.405 228.175 488.993C230.16 489.397 232.341 488.755 234.604 486.961C236.874 485.161 238.984 482.369 240.581 479.103L245.659 481.587C243.793 485.401 241.206 488.94 238.116 491.39C235.02 493.845 231.179 495.372 227.049 494.532L227.046 494.531C221.823 493.464 218.421 489.689 216.621 485.218C215.583 482.64 215.036 479.756 214.938 476.814C212.47 475.824 210.104 474.29 207.932 472.214L207.909 472.192L207.886 472.169C207.338 471.621 205.068 469.577 202.829 467.579C201.732 466.601 200.674 465.662 199.889 464.967C199.496 464.619 199.173 464.334 198.948 464.135C198.836 464.036 198.749 463.96 198.691 463.909L198.633 463.858C198.628 463.854 198.628 463.854 198.632 463.857C198.633 463.858 198.634 463.859 198.636 463.86C198.637 463.861 198.652 463.874 198.671 463.89C198.678 463.896 198.708 463.92 198.748 463.951C198.772 463.969 198.842 464.02 198.889 464.051C199.003 464.124 199.77 464.443 200.46 464.529V458.876C201.151 458.962 201.918 459.281 202.032 459.354C202.079 459.386 202.149 459.437 202.174 459.455C202.214 459.485 202.244 459.511 202.252 459.517L202.253 459.517C202.275 459.536 202.293 459.551 202.298 459.555L202.298 459.555C202.313 459.568 202.327 459.58 202.337 459.589C202.358 459.607 202.386 459.631 202.417 459.659C202.481 459.715 202.572 459.795 202.686 459.896C202.915 460.097 203.242 460.386 203.636 460.735C204.425 461.434 205.489 462.378 206.591 463.361C208.724 465.264 211.13 467.425 211.857 468.147C212.995 469.232 214.169 470.097 215.357 470.762C215.374 470.667 215.39 470.572 215.408 470.477C216.33 465.407 218.723 460.733 221.917 457.329ZM220.811 472.467C221.198 472.499 221.583 472.513 221.966 472.509C225.337 472.474 228.785 471.068 231.814 468.254C234.869 465.416 236.121 462.274 236.121 460.171C236.121 459.148 235.837 458.52 235.526 458.168C235.243 457.848 234.708 457.487 233.603 457.434C231.224 457.322 228.498 458.576 226.039 461.197C223.608 463.787 221.701 467.463 220.969 471.488C220.909 471.814 220.857 472.141 220.811 472.467Z" fill="#101010"/>
<path d="M196.483 478.579C197.367 482.833 196.052 487.283 192.969 490.469C192.907 490.531 192.784 490.664 192.773 490.664C190.482 492.936 187.45 494.313 184.233 494.539C183.915 494.559 183.606 494.57 183.298 494.57C180.431 494.57 177.636 493.665 175.334 491.97C175.334 491.97 175.025 491.743 174.902 491.63C174.419 491.322 173.854 491.158 173.288 491.158C171.582 491.158 170.185 492.617 170.185 494.426H169.887V481.24H170.185C170.185 484.724 171.552 488.003 174.028 490.459C174.368 490.798 174.717 491.117 175.087 491.404L175.519 491.733C178.016 493.573 181.109 494.467 184.223 494.251C187.378 494.035 190.338 492.689 192.578 490.459L192.763 490.264C194.408 488.527 195.302 486.256 195.271 483.861C195.24 481.467 194.284 479.216 192.578 477.52C191.962 476.904 191.253 476.379 190.502 475.968C190.225 475.814 189.937 475.681 189.649 475.557H189.639L173.217 467.665C171.685 466.894 170.637 465.62 170.164 463.975C169.743 462.526 169.835 460.872 170.39 459.423C170.925 457.953 171.675 456.781 172.805 455.63C172.836 455.6 172.867 455.569 172.898 455.528L173.114 455.743C173.083 455.774 173.052 455.805 173.021 455.836C172.23 456.648 171.922 457.46 172.076 458.323C172.518 460.82 176.824 463.204 181.397 465.414L186.854 468.035C188.858 469.042 191.345 470.367 192.784 471.806C193.236 472.258 193.657 472.731 194.038 473.224C195.25 474.828 196.083 476.636 196.483 478.579ZM202.701 486.266C202.701 486.338 202.701 486.41 202.701 486.482C202.701 486.554 202.701 486.615 202.701 486.687C202.763 489.082 203.903 491.281 205.825 492.72C207.13 493.706 208.692 494.241 210.337 494.282C210.337 494.282 210.46 494.282 210.511 494.282C213.379 494.282 216.092 493.378 218.384 491.661L218.558 491.898C216.225 493.655 213.44 494.58 210.511 494.58C210.45 494.58 210.326 494.58 210.326 494.58C207.469 494.539 204.746 493.614 202.465 491.898C200.831 490.675 199.484 489.071 198.559 487.263C197.614 485.413 197.121 483.419 197.1 481.323V481.169V452.177H195.137V451.879H197.1V445.199V432.158C194.562 431.038 191.777 430.688 189.022 431.171C186.176 431.665 183.596 433.011 181.541 435.056C178.478 438.119 176.803 442.64 177.163 446.874C177.451 450.204 178.992 453.02 181.51 454.798C182.014 455.117 182.599 455.291 183.206 455.291C185.076 455.291 186.484 453.883 186.484 452.023H186.782V465.034H186.484C186.392 461.694 185.025 458.549 182.651 456.185C182.24 455.774 181.798 455.394 181.346 455.045C178.745 453.215 177.153 450.327 176.865 446.905C176.495 442.589 178.201 437.975 181.325 434.85C183.421 432.764 186.063 431.387 188.961 430.884C191.725 430.401 194.531 430.729 197.09 431.839L197.306 431.932C198.878 432.641 200.296 433.628 201.529 434.85C201.93 435.251 202.701 436.176 202.701 436.176V445.508V446.576C202.691 446.967 202.639 447.347 202.547 447.707C202.506 447.882 202.454 448.056 202.393 448.221C201.663 450.307 199.7 451.818 197.388 451.879H218.548V452.177H202.691L202.701 486.266Z" fill="#101010"/>
<path d="M149.425 494.754C147.853 494.754 146.342 494.425 144.976 493.757C142.098 492.359 140.166 489.636 139.662 486.306C139.066 482.298 140.783 478.115 144.256 475.125C147.791 472.083 152.293 471.014 156.29 472.247C158.377 472.895 159.887 473.542 161.48 474.549C162.755 469.041 162.426 463.759 160.576 460.521C159.528 458.692 158.161 457.767 156.383 457.705C154.739 457.644 152.837 458.301 150.875 459.607C148.686 461.056 146.589 463.224 144.801 465.855L144.749 465.937C141.409 470.521 139.118 475.474 136.487 481.476L131.318 479.205C133.99 473.121 136.507 467.674 140.166 462.649C142.355 459.432 144.976 456.75 147.761 454.91C150.72 452.947 153.783 451.961 156.619 452.074C160.34 452.218 163.495 454.232 165.499 457.736C168.253 462.556 168.674 469.894 166.619 477.355C166.526 477.694 166.424 478.043 166.321 478.372C167.441 479.359 168.756 480.438 169.671 481.291C169.959 481.558 169.599 494.435 169.599 494.435H169.291C169.085 491.044 168.746 489.769 167.544 487.755C167.235 487.241 166.824 486.625 166.424 486.203C165.92 485.679 165.067 484.816 164.08 483.942C163.649 484.785 163.186 485.597 162.703 486.357C160.833 489.286 158.654 491.465 156.239 492.832C153.968 494.106 151.635 494.754 149.425 494.754ZM152.971 477.406C151.275 477.406 149.456 478.115 147.946 479.41C145.983 481.096 144.955 483.418 145.263 485.463C145.489 486.954 146.27 488.094 147.463 488.67C149.045 489.441 151.234 489.163 153.454 487.899C155.797 486.573 158.017 483.747 159.63 480.13C157.935 478.886 156.722 478.3 154.626 477.653C154.091 477.488 153.536 477.406 152.971 477.406Z" fill="#101010"/>
<path d="M137.093 486.902V460.696H136.795V486.902H137.093Z" fill="white"/>
<path d="M169.876 499.336V473.13H169.578V499.336H169.876Z" fill="white"/>
<path d="M202.999 456.295H202.701V472.327H202.999V456.295Z" fill="white"/>
<path d="M96.4422 475.866C103.141 474.992 105.722 472.691 106.063 470.415C106.063 476.218 103.333 479.973 99.5777 482.362C95.8228 484.752 88.9956 485.435 82.8512 481.68C77.9357 478.676 75.9103 472.691 75.6828 470.415C76.0241 469.732 78.004 468.639 81.8272 469.732C86.6062 471.097 88.1312 476.95 96.4422 475.866Z" fill="#101010"/>
<path d="M82.5611 571.318C82.5567 573.36 82.5655 573.798 82.5611 575.84H84.5642V575.936H80.4653V575.84H82.4111C82.4111 573.761 82.4022 573.449 82.4022 571.318" fill="#101010"/>
<path d="M141.646 552.34V554.954C141.61 556.326 140.484 557.429 139.103 557.429V557.29C140.408 557.29 141.471 556.25 141.507 554.954H139.032V552.34H141.646Z" fill="#101010"/>
<path d="M101.956 575.826H102.817V575.956H98.6515V575.826H99.5123V560.98V560.796C99.4854 559.752 98.9877 558.792 98.1493 558.164C97.5799 557.734 96.8983 557.501 96.1809 557.483C96.1809 557.483 96.1271 557.483 96.1047 557.483C94.8672 557.483 93.688 557.873 92.6971 558.608V575.83H93.558V575.96H89.3926V575.83H90.2535V548.211H89.3926V548.081H92.6971V558.447C93.6925 557.734 94.8672 557.353 96.1047 557.353C96.1316 557.353 96.1854 557.353 96.1854 557.353C97.4319 557.371 98.6201 557.774 99.6155 558.523C100.324 559.057 100.916 559.756 101.319 560.545C101.732 561.352 101.947 562.222 101.956 563.137V563.204V575.826Z" fill="#101010"/>
<path d="M76.3047 568.527C76.2958 568.518 76.2868 568.505 76.2734 568.487C75.4215 567.258 75.1793 566.218 75.0942 565.774C75.0403 565.487 74.991 565.218 75 564.842C75.0045 564.707 75.0224 564.142 75.3228 563.362C75.5156 562.86 75.7398 562.497 76.0223 562.066C76.3944 561.501 76.9235 560.743 77.6364 559.869C77.6543 559.892 77.6723 559.909 77.6947 559.932C76.9639 560.856 76.4213 561.658 76.0357 562.259C75.7174 562.752 75.5336 563.088 75.3632 563.577C75.1793 564.102 75.1435 564.487 75.1345 564.649C75.13 564.716 75.1211 564.891 75.1345 565.111C75.1524 565.483 75.2197 565.792 75.2825 566.012C75.2825 566.012 75.3408 566.249 75.4618 566.599C75.9954 568.168 77.0132 569.473 78.4076 570.379C78.4524 570.406 78.4973 570.437 78.5376 570.464C78.5511 570.473 78.5645 570.478 78.578 570.487C78.6139 570.509 78.6497 570.531 78.6856 570.549C78.6946 570.554 78.7035 570.563 78.717 570.567C78.7618 570.594 78.8067 570.621 78.8515 570.643C78.8605 570.648 78.8694 570.652 78.8829 570.661C78.9232 570.684 78.9591 570.702 78.9995 570.724C79.0084 570.729 79.0174 570.733 79.0264 570.738C80.4656 571.486 82.1111 571.742 83.7253 571.446L83.8508 571.424C83.9091 571.41 83.9629 571.401 84.0212 571.388L84.0795 571.374C84.1019 571.37 84.1243 571.365 84.1467 571.356C85.6264 570.989 86.9042 570.079 87.7337 568.801C88.608 567.456 88.9084 565.85 88.5766 564.277C88.2448 562.707 87.3167 561.358 85.9716 560.483C85.8774 560.421 85.7788 560.362 85.6802 560.304L85.3394 560.12C83.4473 559.111 80.1607 557.349 80.0576 557.295C78.7349 556.592 77.9817 555.134 78.1789 553.664C78.1789 553.664 78.1834 553.614 78.1879 553.61C78.3269 552.538 78.708 551.525 79.3043 550.601L79.4164 550.669C79.0577 551.225 78.9232 552.345 79.3537 553.422C79.681 554.229 80.4791 554.749 81.0485 555.067L86.4738 557.973C86.7159 558.112 88.8456 559.407 89.6168 562.29C90.1683 564.335 89.8231 566.527 88.6663 568.303C87.6216 569.908 86.0254 571.038 84.1647 571.486C84.1423 571.491 84.1198 571.5 84.0929 571.504L84.0391 571.518C84.0077 571.527 83.9808 571.531 83.9495 571.536C83.9226 571.54 83.8598 571.554 83.8598 571.554L83.7342 571.576C82.1874 571.859 80.6136 571.643 79.2102 570.98C78.569 570.675 77.3136 569.957 76.3047 568.527Z" fill="#101010"/>
<path d="M92.7016 575.911V558.488H92.5716V575.916H92.7016V575.911Z" fill="#101010"/>
<path d="M130.849 568.746V558.685H130.719V568.742H130.849V568.746Z" fill="white"/>
<path d="M90.388 575.911V558.488H90.258V575.916H90.388V575.911Z" fill="#101010"/>
<path d="M86.6397 553.794C86.6442 553.372 86.5993 552.74 86.3572 552.018C86.2092 551.579 85.9313 550.754 85.2497 550.126C85.1466 550.032 84.8776 549.803 84.483 549.606C83.7432 549.238 83.0751 549.229 82.6357 549.229C82.1156 549.229 81.2323 549.229 80.3625 549.781C80.1114 549.938 79.7213 550.189 79.4344 550.677C78.986 551.422 79.0936 552.224 79.134 552.552C79.1833 552.928 79.263 553.223 79.3437 553.42C78.9671 553.394 78.6094 553.372 78.2327 553.345C78.3448 552.758 78.4973 552.287 78.6273 551.951C78.8246 551.426 78.977 551.018 79.3268 550.574C79.4927 550.364 79.8245 549.987 80.3535 549.673C81.2458 549.139 82.1156 549.135 82.6312 549.135C83.0976 549.135 83.7656 549.139 84.501 549.498C84.6713 549.583 84.9942 549.758 85.326 550.063C85.9178 550.601 86.1644 551.193 86.3482 551.632C86.68 552.444 86.7697 553.202 86.7697 553.789C86.7293 553.789 86.6845 553.789 86.6397 553.794Z" fill="#101010"/>
<path d="M92.6971 558.609C92.5626 558.717 92.1322 559.039 91.491 559.066C90.8498 559.093 90.397 558.806 90.258 558.708C90.258 558.645 90.258 558.587 90.258 558.524C90.3746 558.618 90.8229 558.954 91.4865 558.936C92.1591 558.918 92.594 558.542 92.7016 558.443C92.6971 558.501 92.6971 558.555 92.6971 558.609Z" fill="#101010"/>
<path fill-rule="evenodd" clip-rule="evenodd" d="M139.098 559.669C140.479 558.197 142.321 557.157 144.313 557.251C145.347 557.3 146.25 557.684 146.885 558.403C147.507 559.108 147.761 560.011 147.761 560.909C147.761 562.679 146.792 564.665 145.094 566.242C143.385 567.83 141.309 568.735 139.145 568.757C138.95 568.759 138.756 568.754 138.561 568.742C138.64 569.524 138.813 570.263 139.075 570.915C139.643 572.325 140.575 573.227 141.829 573.483C142.694 573.659 143.646 573.379 144.634 572.597C145.624 571.812 146.544 570.593 147.241 569.168L149.456 570.252C148.642 571.916 147.514 573.46 146.166 574.529C144.815 575.6 143.139 576.266 141.337 575.9L141.336 575.9C139.057 575.434 137.573 573.787 136.788 571.836C136.335 570.711 136.096 569.453 136.053 568.17C134.977 567.738 133.944 567.068 132.997 566.163L132.986 566.153L132.977 566.143C132.737 565.904 131.747 565.012 130.77 564.141C130.292 563.714 129.83 563.304 129.488 563.001C129.316 562.849 129.175 562.725 129.077 562.638C129.028 562.595 128.99 562.561 128.965 562.539L128.939 562.517C128.937 562.515 128.938 562.515 128.939 562.517C128.94 562.517 128.94 562.518 128.941 562.518C128.941 562.519 128.948 562.524 128.956 562.531C128.959 562.534 128.972 562.544 128.99 562.558C129 562.565 129.031 562.588 129.051 562.601C129.101 562.633 129.436 562.772 129.737 562.81V560.344C130.038 560.381 130.373 560.52 130.423 560.552C130.443 560.566 130.474 560.588 130.485 560.596C130.502 560.609 130.515 560.62 130.519 560.623L130.519 560.623C130.529 560.631 130.536 560.638 130.539 560.64L130.539 560.64C130.545 560.645 130.551 560.651 130.556 560.654C130.565 560.663 130.577 560.673 130.591 560.685C130.618 560.709 130.658 560.744 130.708 560.788C130.808 560.876 130.95 561.002 131.122 561.155C131.467 561.459 131.931 561.871 132.412 562.3C133.342 563.13 134.392 564.073 134.709 564.388C135.206 564.862 135.718 565.239 136.236 565.529C136.243 565.488 136.251 565.446 136.258 565.405C136.661 563.193 137.705 561.154 139.098 559.669ZM138.616 566.273C138.784 566.287 138.953 566.293 139.12 566.291C140.59 566.276 142.094 565.663 143.416 564.435C144.749 563.197 145.295 561.826 145.295 560.909C145.295 560.462 145.171 560.188 145.035 560.034C144.912 559.895 144.679 559.737 144.197 559.715C143.159 559.665 141.969 560.213 140.896 561.356C139.836 562.486 139.004 564.09 138.684 565.846C138.659 565.988 138.636 566.131 138.616 566.273Z" fill="#101010"/>
<path d="M128.002 568.939C128.387 570.796 127.814 572.737 126.468 574.127C126.442 574.154 126.388 574.212 126.383 574.212C125.383 575.203 124.061 575.804 122.657 575.903C122.518 575.912 122.384 575.916 122.249 575.916C120.998 575.916 119.779 575.521 118.774 574.782C118.774 574.782 118.64 574.683 118.586 574.634C118.375 574.499 118.129 574.427 117.882 574.427C117.138 574.427 116.528 575.064 116.528 575.853H116.398V570.101H116.528C116.528 571.621 117.124 573.051 118.205 574.123C118.353 574.27 118.505 574.409 118.667 574.535L118.855 574.679C119.945 575.481 121.294 575.871 122.653 575.777C124.029 575.683 125.321 575.095 126.298 574.123L126.379 574.037C127.096 573.28 127.486 572.289 127.473 571.244C127.459 570.199 127.042 569.217 126.298 568.478C126.029 568.209 125.72 567.98 125.392 567.801C125.271 567.733 125.146 567.675 125.02 567.621H125.016L117.851 564.178C117.183 563.841 116.725 563.285 116.519 562.568C116.335 561.936 116.376 561.214 116.618 560.582C116.851 559.941 117.178 559.429 117.671 558.927C117.685 558.914 117.698 558.9 117.712 558.882L117.806 558.977C117.792 558.99 117.779 559.003 117.766 559.017C117.42 559.371 117.286 559.725 117.353 560.102C117.546 561.192 119.425 562.232 121.42 563.196L123.801 564.339C124.675 564.778 125.76 565.357 126.388 565.985C126.585 566.182 126.769 566.388 126.935 566.603C127.464 567.303 127.827 568.092 128.002 568.939ZM130.714 572.293C130.714 572.325 130.714 572.356 130.714 572.387C130.714 572.419 130.714 572.446 130.714 572.477C130.741 573.522 131.239 574.481 132.078 575.109C132.647 575.539 133.328 575.773 134.046 575.79C134.046 575.79 134.1 575.79 134.122 575.79C135.373 575.79 136.557 575.396 137.557 574.647L137.633 574.75C136.615 575.517 135.4 575.92 134.122 575.92C134.095 575.92 134.041 575.92 134.041 575.92C132.795 575.903 131.607 575.499 130.611 574.75C129.898 574.217 129.311 573.517 128.908 572.728C128.495 571.921 128.28 571.051 128.271 570.137V570.069V557.421H127.414V557.291H128.271V554.376V548.686C127.163 548.198 125.948 548.045 124.747 548.256C123.505 548.471 122.379 549.059 121.483 549.951C120.146 551.287 119.416 553.26 119.572 555.107C119.698 556.56 120.371 557.788 121.469 558.564C121.689 558.703 121.944 558.779 122.209 558.779C123.025 558.779 123.639 558.165 123.639 557.353H123.769V563.03H123.639C123.599 561.573 123.003 560.201 121.967 559.169C121.787 558.99 121.595 558.824 121.397 558.672C120.263 557.874 119.568 556.614 119.442 555.121C119.281 553.237 120.025 551.224 121.388 549.861C122.303 548.951 123.455 548.35 124.72 548.131C125.926 547.92 127.15 548.063 128.266 548.548L128.361 548.588C129.047 548.897 129.665 549.328 130.203 549.861C130.378 550.036 130.714 550.44 130.714 550.44V554.511V554.977C130.71 555.148 130.688 555.313 130.647 555.47C130.629 555.547 130.607 555.623 130.58 555.695C130.262 556.605 129.405 557.264 128.396 557.291H137.628V557.421H130.71L130.714 572.293Z" fill="#101010"/>
<path d="M107.471 575.996C106.785 575.996 106.126 575.853 105.53 575.562C104.274 574.952 103.431 573.764 103.211 572.311C102.951 570.562 103.7 568.737 105.216 567.433C106.758 566.105 108.722 565.639 110.466 566.177C111.376 566.46 112.035 566.742 112.73 567.181C113.286 564.778 113.143 562.474 112.336 561.061C111.878 560.263 111.282 559.86 110.506 559.833C109.789 559.806 108.96 560.093 108.103 560.662C107.148 561.294 106.233 562.24 105.453 563.388L105.431 563.424C103.974 565.424 102.974 567.585 101.826 570.203L99.5707 569.213C100.736 566.558 101.835 564.182 103.431 561.989C104.386 560.586 105.53 559.416 106.745 558.613C108.036 557.757 109.372 557.326 110.61 557.376C112.233 557.438 113.609 558.317 114.483 559.846C115.685 561.949 115.869 565.15 114.972 568.406C114.932 568.553 114.887 568.706 114.842 568.849C115.331 569.28 115.905 569.751 116.304 570.123C116.429 570.239 116.272 575.857 116.272 575.857H116.138C116.048 574.378 115.9 573.822 115.376 572.943C115.241 572.719 115.062 572.45 114.887 572.266C114.667 572.037 114.295 571.661 113.865 571.28C113.676 571.647 113.475 572.001 113.264 572.333C112.448 573.611 111.497 574.562 110.444 575.158C109.453 575.714 108.435 575.996 107.471 575.996ZM109.018 568.428C108.278 568.428 107.484 568.737 106.825 569.302C105.969 570.038 105.521 571.051 105.655 571.943C105.754 572.593 106.094 573.091 106.615 573.342C107.305 573.678 108.26 573.557 109.229 573.006C110.251 572.427 111.219 571.194 111.923 569.616C111.183 569.074 110.654 568.818 109.74 568.536C109.507 568.464 109.264 568.428 109.018 568.428Z" fill="#101010"/>
<path d="M102.09 572.571V561.138H101.96V572.571H102.09Z" fill="white"/>
<path d="M116.393 577.996V566.562H116.263V577.996H116.393Z" fill="white"/>
<path d="M130.844 559.217H130.714V566.212H130.844V559.217Z" fill="white"/>
<path d="M84.355 567.756C87.2777 567.375 88.4037 566.371 88.5526 565.378C88.5526 567.91 87.3612 569.548 85.723 570.59C84.0847 571.633 81.1062 571.931 78.4254 570.292C76.2808 568.982 75.3972 566.371 75.2979 565.378C75.4468 565.08 76.3106 564.603 77.9786 565.08C80.0636 565.675 80.729 568.229 84.355 567.756Z" fill="#101010"/>
<path d="M121.2 196.7C121.173 209.177 121.227 211.852 121.2 224.329H133.44V224.916H108.394V224.329H120.284C120.284 211.63 120.23 209.723 120.23 196.7" fill="#101010"/>
<path d="M482.223 80.7385V96.7107C482.004 105.094 475.127 111.834 466.689 111.834V110.984C474.661 110.984 481.154 104.628 481.373 96.7107H466.251V80.7385H482.223Z" fill="#101010"/>
<path d="M239.708 224.244H244.968V225.039H219.517V224.244H224.777V133.534V132.411C224.613 126.027 221.572 120.164 216.448 116.329C212.969 113.699 208.805 112.274 204.421 112.165C204.421 112.165 204.093 112.165 203.956 112.165C196.394 112.165 189.189 114.548 183.134 119.041V224.271H188.394V225.066H162.943V224.271H168.203V55.5084H162.943V54.7139H183.134V118.055C189.216 113.699 196.394 111.37 203.956 111.37C204.12 111.37 204.449 111.37 204.449 111.37C212.065 111.48 219.325 113.945 225.407 118.521C229.736 121.781 233.352 126.055 235.818 130.876C238.338 135.808 239.653 141.123 239.708 146.712V147.123V224.244Z" fill="#101010"/>
<path d="M82.9723 179.648C82.9175 179.593 82.8627 179.511 82.7805 179.401C77.5752 171.894 76.0957 165.538 75.5752 162.826C75.2464 161.073 74.9451 159.429 74.9999 157.128C75.0273 156.306 75.1369 152.854 76.9724 148.087C78.1505 145.018 79.5203 142.799 81.2463 140.169C83.5202 136.717 86.753 132.087 91.1091 126.745C91.2187 126.882 91.3283 126.991 91.4652 127.128C86.9996 132.772 83.6846 137.676 81.3285 141.347C79.3833 144.361 78.2601 146.416 77.219 149.402C76.0957 152.607 75.8766 154.963 75.8218 155.95C75.7944 156.361 75.7396 157.429 75.8218 158.771C75.9314 161.045 76.3423 162.936 76.7259 164.278C76.7259 164.278 77.082 165.73 77.8217 167.867C81.0819 177.456 87.301 185.428 95.8213 190.962C96.0953 191.127 96.3692 191.319 96.6158 191.483C96.698 191.538 96.7802 191.565 96.8624 191.62C97.0816 191.757 97.3007 191.894 97.5199 192.004C97.5747 192.031 97.6295 192.086 97.7117 192.113C97.9856 192.277 98.2596 192.442 98.5336 192.579C98.5884 192.606 98.6432 192.634 98.7253 192.688C98.9719 192.825 99.1911 192.935 99.4377 193.072C99.4924 193.099 99.5472 193.127 99.602 193.154C108.396 197.729 118.451 199.291 128.314 197.483L129.081 197.346C129.437 197.264 129.766 197.209 130.122 197.127L130.478 197.044C130.615 197.017 130.752 196.99 130.889 196.935C139.93 194.688 147.738 189.127 152.806 181.319C158.149 173.1 159.984 163.292 157.957 153.676C155.929 144.087 150.258 135.84 142.039 130.498C141.464 130.115 140.861 129.758 140.259 129.402L138.176 128.279C126.615 122.115 106.533 111.348 105.903 111.019C97.8213 106.718 93.2186 97.8139 94.4241 88.8279C94.4241 88.8279 94.4515 88.5265 94.4789 88.4991C95.3282 81.9513 97.6569 75.7597 101.301 70.116L101.986 70.5269C99.7938 73.9241 98.9719 80.7732 101.602 87.3484C103.602 92.2798 108.479 95.4578 111.958 97.403L145.108 115.156C146.587 116.005 159.601 123.923 164.313 141.539C167.683 154.032 165.573 167.429 158.505 178.278C152.121 188.086 142.368 194.99 130.999 197.729C130.862 197.757 130.725 197.812 130.56 197.839L130.231 197.921C130.04 197.976 129.875 198.003 129.684 198.031C129.519 198.058 129.136 198.14 129.136 198.14L128.368 198.277C118.917 200.003 109.3 198.688 100.725 194.634C96.8076 192.771 89.1365 188.387 82.9723 179.648Z" fill="#101010"/>
<path d="M183.162 224.766V118.303H182.367V224.793H183.162V224.766Z" fill="#101010"/>
<path d="M416.252 180.986V119.508H415.458V180.959H416.252V180.986Z" fill="white"/>
<path d="M169.025 224.766V118.303H168.23V224.793H169.025V224.766Z" fill="#101010"/>
<path d="M146.122 89.6211C146.149 87.0458 145.875 83.1829 144.396 78.772C143.491 76.0872 141.793 71.0462 137.629 67.2107C136.998 66.6353 135.355 65.2381 132.944 64.0326C128.423 61.7861 124.341 61.7313 121.656 61.7313C118.478 61.7313 113.081 61.7313 107.766 65.1011C106.232 66.06 103.849 67.5942 102.095 70.5804C99.3556 75.1283 100.013 80.0323 100.26 82.0322C100.561 84.3335 101.048 86.1359 101.541 87.3413C99.2402 87.177 97.0542 87.0458 94.7529 86.8814C95.4378 83.2925 96.3693 80.4158 97.1638 78.3611C98.3693 75.1557 99.3008 72.6626 101.438 69.9503C102.451 68.6627 104.479 66.3614 107.712 64.4436C113.163 61.1834 118.478 61.156 121.629 61.156C124.478 61.156 128.56 61.1834 133.053 63.3751C134.094 63.8957 136.067 64.9641 138.094 66.8271C141.711 70.1147 143.218 73.731 144.341 76.4159C146.368 81.3747 146.916 86.0047 146.916 89.5937C146.669 89.5937 146.396 89.5937 146.122 89.6211Z" fill="#101010"/>
<path d="M183.134 119.045C182.312 119.702 179.682 121.675 175.765 121.839C171.847 122.004 169.08 120.25 168.23 119.647C168.23 119.264 168.23 118.908 168.23 118.524C168.943 119.099 171.682 121.154 175.737 121.045C179.847 120.935 182.504 118.634 183.162 118.031C183.134 118.387 183.134 118.716 183.134 119.045Z" fill="#101010"/>
<path fill-rule="evenodd" clip-rule="evenodd" d="M466.657 125.519C475.094 116.527 486.348 110.172 498.524 110.748C504.84 111.047 510.357 113.389 514.235 117.785C518.036 122.093 519.592 127.611 519.592 133.095C519.592 143.914 513.67 156.045 503.295 165.683C492.85 175.387 480.165 180.914 466.946 181.053C465.755 181.065 464.565 181.034 463.378 180.959C463.859 185.737 464.913 190.254 466.517 194.239C469.984 202.852 475.681 208.362 483.341 209.93C488.632 211.006 494.447 209.295 500.48 204.512C506.529 199.715 512.154 192.271 516.413 183.565L529.949 190.185C524.974 200.355 518.079 209.787 509.841 216.319C501.587 222.864 491.348 226.935 480.338 224.696L480.331 224.694C466.406 221.849 457.338 211.785 452.539 199.867C449.772 192.993 448.313 185.304 448.052 177.463C441.473 174.824 435.165 170.734 429.374 165.199L429.313 165.14L429.253 165.08C427.791 163.618 421.742 158.17 415.771 152.844C412.847 150.237 410.025 147.732 407.933 145.879C406.887 144.953 406.026 144.191 405.426 143.663C405.126 143.398 404.895 143.195 404.741 143.06L404.585 142.923C404.572 142.912 404.573 142.913 404.583 142.922C404.585 142.924 404.589 142.927 404.592 142.93C404.596 142.933 404.635 142.966 404.688 143.01C404.706 143.024 404.786 143.09 404.892 143.171C404.957 143.219 405.144 143.355 405.267 143.439C405.572 143.633 407.616 144.483 409.457 144.712V129.643C411.299 129.872 413.343 130.722 413.648 130.916C413.772 131.001 413.96 131.137 414.025 131.186C414.132 131.267 414.213 131.334 414.235 131.351L414.236 131.352C414.294 131.4 414.342 131.441 414.356 131.453L414.356 131.453C414.396 131.487 414.434 131.52 414.46 131.542C414.517 131.592 414.591 131.656 414.674 131.729C414.844 131.878 415.087 132.092 415.391 132.36C416.001 132.898 416.871 133.667 417.923 134.598C420.026 136.46 422.861 138.978 425.801 141.599C431.487 146.671 437.9 152.433 439.839 154.357C442.873 157.249 446.001 159.556 449.17 161.327C449.213 161.074 449.258 160.821 449.304 160.568C451.763 147.054 458.143 134.593 466.657 125.519ZM463.709 165.875C464.74 165.96 465.767 165.996 466.788 165.985C475.774 165.891 484.965 162.145 493.04 154.643C501.186 147.076 504.524 138.701 504.524 133.095C504.524 130.368 503.765 128.694 502.935 127.754C502.183 126.901 500.755 125.939 497.811 125.799C491.467 125.499 484.201 128.843 477.645 135.829C471.166 142.735 466.081 152.533 464.129 163.265C463.971 164.134 463.831 165.004 463.709 165.875Z" fill="#101010"/>
<path d="M398.855 182.166C401.211 193.508 397.705 205.371 389.486 213.864C389.321 214.029 388.993 214.385 388.965 214.385C382.856 220.439 374.774 224.111 366.199 224.713C365.349 224.768 364.527 224.795 363.706 224.795C356.062 224.795 348.61 222.385 342.473 217.864C342.473 217.864 341.651 217.261 341.323 216.96C340.035 216.138 338.528 215.7 337.021 215.7C332.473 215.7 328.747 219.59 328.747 224.412H327.953V189.262H328.747C328.747 198.549 332.391 207.289 338.994 213.837C339.898 214.741 340.829 215.59 341.816 216.357L342.966 217.234C349.624 222.138 357.87 224.521 366.171 223.946C374.582 223.371 382.472 219.782 388.445 213.837L388.938 213.316C393.321 208.686 395.705 202.632 395.623 196.248C395.54 189.865 392.993 183.865 388.445 179.344C386.801 177.701 384.911 176.303 382.911 175.208C382.171 174.797 381.404 174.44 380.637 174.112H380.609L336.829 153.071C332.747 151.016 329.953 147.619 328.693 143.236C327.569 139.373 327.816 134.962 329.295 131.099C330.72 127.181 332.72 124.058 335.734 120.99C335.816 120.907 335.898 120.825 335.98 120.716L336.556 121.291C336.473 121.373 336.391 121.455 336.309 121.538C334.199 123.702 333.377 125.866 333.788 128.168C334.966 134.825 346.446 141.181 358.637 147.071L373.185 154.057C378.527 156.742 385.157 160.276 388.993 164.112C390.198 165.317 391.321 166.578 392.335 167.893C395.568 172.167 397.787 176.988 398.855 182.166ZM415.43 202.659C415.43 202.851 415.43 203.043 415.43 203.234C415.43 203.426 415.43 203.59 415.43 203.782C415.595 210.166 418.636 216.029 423.759 219.864C427.238 222.494 431.403 223.919 435.786 224.028C435.786 224.028 436.115 224.028 436.252 224.028C443.895 224.028 451.128 221.617 457.238 217.042L457.703 217.672C451.484 222.357 444.06 224.823 436.252 224.823C436.087 224.823 435.759 224.823 435.759 224.823C428.142 224.713 420.882 222.248 414.8 217.672C410.444 214.412 406.855 210.138 404.39 205.316C401.869 200.385 400.554 195.07 400.499 189.481V189.07V111.784H395.266V110.99H400.499V93.1821V58.4158C393.732 55.4296 386.308 54.4981 378.965 55.7857C371.377 57.1008 364.5 60.6897 359.021 66.1416C350.857 74.3058 346.391 86.3603 347.35 97.6478C348.117 106.524 352.226 114.031 358.939 118.771C360.281 119.62 361.843 120.086 363.459 120.086C368.445 120.086 372.198 116.332 372.198 111.373H372.993V146.058H372.198C371.952 137.154 368.308 128.77 361.98 122.469C360.884 121.373 359.706 120.36 358.5 119.428C351.569 114.551 347.322 106.853 346.555 97.7299C345.569 86.2234 350.117 73.9223 358.445 65.5937C364.034 60.0322 371.075 56.3611 378.801 55.0186C386.171 53.731 393.65 54.6077 400.472 57.5665L401.047 57.8131C405.239 59.7034 409.02 62.3335 412.307 65.5937C413.376 66.6622 415.43 69.1279 415.43 69.1279V94.004V96.8532C415.403 97.8943 415.266 98.908 415.019 99.8669C414.91 100.333 414.773 100.798 414.608 101.237C412.663 106.798 407.431 110.826 401.266 110.99H457.676V111.784H415.403L415.43 202.659Z" fill="#101010"/>
<path d="M273.406 225.287C269.215 225.287 265.187 224.41 261.544 222.629C253.873 218.903 248.722 211.643 247.38 202.767C245.791 192.082 250.366 180.931 259.626 172.959C269.05 164.85 281.05 162 291.707 165.288C297.269 167.014 301.296 168.74 305.543 171.425C308.94 156.74 308.063 142.658 303.132 134.028C300.337 129.152 296.694 126.686 291.954 126.522C287.57 126.357 282.502 128.111 277.269 131.59C271.434 135.453 265.845 141.234 261.078 148.247L260.941 148.466C252.037 160.685 245.928 173.89 238.914 189.89L225.134 183.835C232.257 167.617 238.969 153.096 248.722 139.7C254.558 131.124 261.544 123.974 268.968 119.07C276.858 113.837 285.023 111.207 292.584 111.508C302.502 111.892 310.912 117.262 316.255 126.604C323.597 139.453 324.72 159.014 319.241 178.904C318.994 179.808 318.72 180.74 318.446 181.616C321.433 184.246 324.939 187.123 327.378 189.397C328.145 190.109 327.186 224.437 327.186 224.437H326.364C325.816 215.396 324.912 211.999 321.707 206.629C320.885 205.26 319.789 203.616 318.72 202.493C317.378 201.095 315.104 198.794 312.474 196.465C311.323 198.712 310.09 200.876 308.803 202.903C303.817 210.712 298.009 216.52 291.57 220.163C285.516 223.561 279.297 225.287 273.406 225.287ZM282.858 179.041C278.338 179.041 273.489 180.931 269.461 184.383C264.229 188.876 261.489 195.068 262.311 200.52C262.914 204.492 264.996 207.534 268.174 209.068C272.393 211.122 278.228 210.383 284.146 207.013C290.392 203.479 296.31 195.945 300.611 186.301C296.091 182.986 292.858 181.425 287.269 179.699C285.844 179.26 284.365 179.041 282.858 179.041Z" fill="#101010"/>
<path d="M240.53 204.356V134.495H239.736V204.356H240.53Z" fill="white"/>
<path d="M327.925 237.501V167.64H327.131V237.501H327.925Z" fill="white"/>
<path d="M416.225 122.762H415.43V165.501H416.225V122.762Z" fill="white"/>
<path d="M132.161 174.934C150.02 172.605 156.9 166.47 157.81 160.404C157.81 175.874 150.53 185.883 140.52 192.253C130.51 198.623 112.31 200.443 95.9302 190.433C82.8262 182.425 77.4268 166.471 76.8202 160.404C77.7302 158.584 83.0082 155.67 93.2002 158.582C105.94 162.222 110.006 177.824 132.161 174.934Z" fill="#101010"/>
<rect x="0.25" y="0.25" width="739.5" height="629.5" stroke="#101010" stroke-width="0.5"/>
</svg>
