<svg width="360" height="300" viewBox="0 0 360 300" fill="none" xmlns="http://www.w3.org/2000/svg">
<rect width="360" height="300" fill="#101010"/>
<path d="M77.9078 180.1C77.8921 187.367 77.9235 188.925 77.9078 196.192H85.0365V196.533H70.4494V196.192H77.374C77.374 188.795 77.3425 187.685 77.3425 180.1" fill="white"/>
<path d="M288.174 112.562V121.865C288.046 126.747 284.041 130.672 279.126 130.672V130.178C283.77 130.178 287.551 126.476 287.679 121.865H278.871V112.562H288.174Z" fill="white"/>
<path d="M146.929 196.142H149.993V196.605H135.169V196.142H138.233V143.311V142.657C138.137 138.939 136.366 135.524 133.382 133.29C131.356 131.759 128.93 130.929 126.377 130.865C126.377 130.865 126.186 130.865 126.106 130.865C121.702 130.865 117.506 132.253 113.979 134.87V196.158H117.043V196.621H102.219V196.158H105.283V97.8675H102.219V97.4048H113.979V134.296C117.522 131.759 121.702 130.402 126.106 130.402C126.202 130.402 126.393 130.402 126.393 130.402C130.829 130.466 135.057 131.902 138.6 134.567C141.121 136.466 143.227 138.955 144.663 141.763C146.131 144.635 146.897 147.731 146.929 150.986V151.225V196.142Z" fill="white"/>
<path d="M55.6432 170.168C55.6113 170.137 55.5794 170.089 55.5315 170.025C52.4998 165.653 51.6382 161.951 51.335 160.371C51.1436 159.35 50.968 158.393 50.9999 157.052C51.0159 156.574 51.0797 154.563 52.1488 151.787C52.8349 150 53.6327 148.707 54.638 147.175C55.9623 145.165 57.8452 142.468 60.3822 139.357C60.4461 139.437 60.5099 139.5 60.5897 139.58C57.9888 142.867 56.0581 145.723 54.6858 147.862C53.5529 149.617 52.8987 150.813 52.2924 152.553C51.6382 154.42 51.5105 155.792 51.4786 156.366C51.4627 156.606 51.4308 157.228 51.4786 158.01C51.5425 159.334 51.7818 160.435 52.0052 161.217C52.0052 161.217 52.2126 162.063 52.6434 163.307C54.5422 168.892 58.1643 173.535 63.1267 176.758C63.2863 176.854 63.4458 176.966 63.5894 177.062C63.6373 177.093 63.6852 177.109 63.7331 177.141C63.8607 177.221 63.9883 177.301 64.116 177.365C64.1479 177.381 64.1798 177.413 64.2277 177.429C64.3873 177.524 64.5468 177.62 64.7064 177.7C64.7383 177.716 64.7702 177.732 64.8181 177.764C64.9617 177.843 65.0893 177.907 65.2329 177.987C65.2648 178.003 65.2968 178.019 65.3287 178.035C70.4506 180.7 76.3066 181.609 82.0509 180.556L82.4976 180.476C82.7051 180.428 82.8965 180.396 83.104 180.349L83.3114 180.301C83.3912 180.285 83.471 180.269 83.5507 180.237C88.8163 178.928 93.3638 175.689 96.3157 171.142C99.4272 166.355 100.496 160.643 99.3155 155.042C98.1347 149.457 94.8318 144.654 90.0449 141.543C89.7098 141.319 89.3588 141.112 89.0078 140.905L87.7951 140.25C81.0615 136.66 69.3656 130.389 68.9986 130.198C64.2915 127.693 61.6109 122.507 62.3129 117.273C62.3129 117.273 62.3289 117.098 62.3449 117.082C62.8395 113.268 64.1958 109.662 66.318 106.375L66.7169 106.615C65.4404 108.593 64.9617 112.582 66.4935 116.412C67.6583 119.284 70.4985 121.135 72.525 122.268L91.832 132.607C92.6936 133.102 100.273 137.713 103.017 147.973C104.98 155.249 103.751 163.052 99.6346 169.371C95.9168 175.083 90.2364 179.104 83.6146 180.7C83.5348 180.716 83.455 180.747 83.3593 180.763L83.1678 180.811C83.0561 180.843 82.9604 180.859 82.8487 180.875C82.7529 180.891 82.5295 180.939 82.5295 180.939L82.0828 181.019C76.5778 182.024 70.9772 181.258 65.9829 178.896C63.7011 177.811 59.2334 175.258 55.6432 170.168Z" fill="white"/>
<path d="M113.995 196.446V134.44H113.533V196.462H113.995V196.446Z" fill="white"/>
<path d="M249.751 170.948V135.142H249.289V170.932H249.751V170.948Z" fill="#101010"/>
<path d="M105.762 196.446V134.44H105.299V196.462H105.762V196.446Z" fill="white"/>
<path d="M92.4224 117.735C92.4384 116.235 92.2788 113.986 91.4172 111.417C90.8906 109.853 89.9014 106.917 87.476 104.683C87.109 104.348 86.1516 103.534 84.7475 102.832C82.1147 101.524 79.7372 101.492 78.1735 101.492C76.3226 101.492 73.1792 101.492 70.0837 103.454C69.1901 104.013 67.8019 104.906 66.7807 106.646C65.1851 109.294 65.5681 112.151 65.7117 113.315C65.8872 114.656 66.171 115.705 66.4582 116.408C65.1179 116.312 63.8448 116.235 62.5045 116.14C62.9034 114.049 63.4459 112.374 63.9086 111.177C64.6107 109.31 65.1532 107.858 66.3978 106.279C66.9882 105.529 68.1689 104.188 70.0518 103.071C73.2271 101.173 76.3226 101.157 78.1575 101.157C79.817 101.157 82.1945 101.173 84.8113 102.449C85.4177 102.752 86.5665 103.375 87.7473 104.46C89.8535 106.374 90.7311 108.481 91.3853 110.044C92.5661 112.932 92.8852 115.629 92.8852 117.719C92.7416 117.719 92.582 117.719 92.4224 117.735Z" fill="white"/>
<path d="M113.979 134.872C113.501 135.255 111.969 136.404 109.687 136.5C107.405 136.595 105.794 135.574 105.299 135.223C105.299 135 105.299 134.792 105.299 134.569C105.714 134.904 107.31 136.101 109.671 136.037C112.065 135.973 113.612 134.633 113.995 134.282C113.979 134.489 113.979 134.681 113.979 134.872Z" fill="white"/>
<path d="M245.794 145.433C245.81 145.433 258.495 156.65 260.426 158.581C271.978 169.623 286.674 168.841 297.46 158.82C308.247 148.8 308.247 134.934 297.46 134.423C286.674 133.913 275.887 145.72 273.318 159.842C270.749 173.963 275.377 189.536 287.95 192.105C297.444 194.036 306.651 185.372 312.028 174.378" stroke="white" stroke-width="8.77595" stroke-miterlimit="10"/>
<path d="M239.619 171.635C240.991 178.241 238.949 185.15 234.162 190.097C234.066 190.192 233.875 190.4 233.859 190.4C230.301 193.926 225.594 196.064 220.599 196.415C220.105 196.447 219.626 196.463 219.147 196.463C214.695 196.463 210.355 195.059 206.781 192.426C206.781 192.426 206.302 192.075 206.111 191.9C205.361 191.421 204.483 191.166 203.606 191.166C200.957 191.166 198.787 193.432 198.787 196.24H198.324V175.768H198.787C198.787 181.177 200.909 186.267 204.755 190.081C205.281 190.607 205.824 191.102 206.398 191.549L207.068 192.059C210.946 194.915 215.749 196.304 220.583 195.969C225.482 195.633 230.077 193.543 233.556 190.081L233.843 189.778C236.396 187.081 237.784 183.555 237.736 179.837C237.688 176.119 236.204 172.625 233.556 169.992C232.598 169.034 231.497 168.221 230.333 167.582C229.902 167.343 229.455 167.136 229.008 166.944H228.992L203.494 154.69C201.117 153.493 199.489 151.514 198.755 148.961C198.101 146.712 198.244 144.143 199.106 141.893C199.936 139.611 201.101 137.792 202.856 136.005C202.904 135.957 202.952 135.909 202.999 135.845L203.335 136.18C203.287 136.228 203.239 136.276 203.191 136.324C201.962 137.585 201.484 138.845 201.723 140.185C202.409 144.063 209.095 147.765 216.195 151.195L224.668 155.264C227.78 156.828 231.641 158.886 233.875 161.12C234.577 161.822 235.231 162.556 235.821 163.322C237.704 165.811 238.997 168.62 239.619 171.635ZM249.273 183.571C249.273 183.682 249.273 183.794 249.273 183.906C249.273 184.017 249.273 184.113 249.273 184.225C249.368 187.943 251.139 191.357 254.123 193.591C256.15 195.123 258.575 195.953 261.128 196.016C261.128 196.016 261.32 196.016 261.399 196.016C265.851 196.016 270.064 194.612 273.622 191.948L273.893 192.315C270.271 195.043 265.947 196.479 261.399 196.479C261.304 196.479 261.112 196.479 261.112 196.479C256.676 196.415 252.448 194.979 248.906 192.315C246.369 190.416 244.278 187.927 242.842 185.118C241.374 182.246 240.608 179.151 240.576 175.896V175.656V130.644H237.529V130.181H240.576V119.809V99.5608C236.635 97.8216 232.311 97.2791 228.035 98.029C223.615 98.7949 219.61 100.885 216.419 104.06C211.664 108.815 209.063 115.836 209.621 122.41C210.068 127.58 212.462 131.952 216.371 134.712C217.153 135.207 218.062 135.478 219.004 135.478C221.908 135.478 224.094 133.292 224.094 130.404H224.556V150.605H224.094C223.95 145.419 221.828 140.537 218.142 136.867C217.504 136.228 216.818 135.638 216.115 135.095C212.079 132.255 209.605 127.771 209.159 122.458C208.584 115.756 211.233 108.592 216.084 103.741C219.339 100.502 223.439 98.3641 227.939 97.5822C232.231 96.8323 236.587 97.3429 240.56 99.0662L240.896 99.2098C243.337 100.311 245.539 101.843 247.454 103.741C248.076 104.364 249.273 105.8 249.273 105.8V120.288V121.947C249.257 122.554 249.177 123.144 249.033 123.703C248.969 123.974 248.89 124.245 248.794 124.5C247.661 127.74 244.613 130.085 241.023 130.181H273.877V130.644H249.257L249.273 183.571Z" fill="white"/>
<path d="M166.555 196.749C164.114 196.749 161.769 196.239 159.646 195.201C155.179 193.031 152.179 188.803 151.397 183.633C150.471 177.41 153.136 170.916 158.529 166.273C164.018 161.55 171.007 159.89 177.214 161.805C180.453 162.81 182.799 163.815 185.272 165.379C187.251 156.827 186.74 148.625 183.868 143.599C182.24 140.759 180.118 139.323 177.358 139.227C174.805 139.131 171.853 140.152 168.805 142.179C165.407 144.429 162.151 147.795 159.375 151.88L159.295 152.008C154.109 159.124 150.551 166.815 146.466 176.134L138.44 172.607C142.589 163.161 146.498 154.704 152.179 146.902C155.577 141.907 159.646 137.743 163.97 134.887C168.566 131.839 173.321 130.307 177.725 130.483C183.501 130.706 188.4 133.834 191.511 139.275C195.787 146.758 196.441 158.151 193.25 169.735C193.107 170.262 192.947 170.804 192.787 171.315C194.527 172.847 196.569 174.522 197.989 175.846C198.436 176.261 197.878 196.255 197.878 196.255H197.399C197.08 190.989 196.553 189.01 194.686 185.883C194.208 185.085 193.569 184.128 192.947 183.474C192.165 182.66 190.841 181.319 189.309 179.963C188.639 181.272 187.921 182.532 187.171 183.713C184.267 188.26 180.884 191.643 177.134 193.765C173.608 195.744 169.986 196.749 166.555 196.749ZM172.06 169.815C169.428 169.815 166.603 170.916 164.258 172.926C161.21 175.543 159.614 179.149 160.093 182.325C160.444 184.638 161.657 186.41 163.508 187.303C165.965 188.5 169.364 188.069 172.81 186.106C176.448 184.048 179.895 179.66 182.4 174.043C179.767 172.113 177.884 171.203 174.629 170.198C173.8 169.943 172.938 169.815 172.06 169.815Z" fill="white"/>
<path d="M147.408 184.559V143.871H146.945V184.559H147.408Z" fill="#101010"/>
<path d="M198.308 203.864V163.175H197.845V203.864H198.308Z" fill="#101010"/>
<path d="M249.735 137.037H249.272V161.929H249.735V137.037Z" fill="#101010"/>
<path d="M84.2918 167.423C94.6929 166.067 98.7001 162.494 99.2301 158.96C99.2301 167.97 94.9901 173.8 89.1601 177.51C83.3301 181.22 72.7301 182.28 63.1901 176.45C55.5581 171.786 52.4134 162.494 52.0601 158.96C52.5901 157.9 55.6641 156.203 61.6001 157.899C69.0201 160.019 71.3879 169.106 84.2918 167.423Z" fill="white"/>
</svg>
