<svg width="171" height="71" viewBox="0 0 171 71" fill="none" xmlns="http://www.w3.org/2000/svg">
<path d="M18.1526 55.3475C18.1426 59.9934 18.1626 60.9895 18.1526 65.6354H22.6968V65.8537H13.3981V65.6354H17.8123C17.8123 60.9067 17.7922 60.1967 17.7922 55.3475" fill="#101010"/>
<path d="M152.188 12.1684V18.1158C152.107 21.2374 149.554 23.7469 146.421 23.7469V23.4307C149.381 23.4307 151.791 21.0639 151.873 18.1158H146.258V12.1684H152.188Z" fill="#101010"/>
<path d="M62.1506 65.6039H64.1035V65.8997H54.6542V65.6039H56.6071V31.8273V31.409C56.5461 29.0321 55.4171 26.849 53.515 25.4208C52.2232 24.4415 50.6772 23.911 49.0498 23.8702C49.0498 23.8702 48.9277 23.8702 48.8768 23.8702C46.0695 23.8702 43.3944 24.7577 41.1466 26.4307V65.6141H43.0995V65.9099H33.6502V65.6141H35.6031V2.77384H33.6502V2.478H41.1466V26.0635C43.4046 24.4415 46.0695 23.5744 48.8768 23.5744C48.9379 23.5744 49.0599 23.5744 49.0599 23.5744C51.8876 23.6152 54.583 24.5333 56.8411 26.2369C58.4482 27.4509 59.7908 29.0423 60.7062 30.8377C61.642 32.674 62.1302 34.653 62.1506 36.7341V36.8871V65.6039Z" fill="#101010"/>
<path d="M3.95985 48.9981C3.93951 48.9777 3.91917 48.9471 3.88865 48.9063C1.95608 46.1111 1.40682 43.7444 1.21357 42.7344C1.09151 42.0815 0.979622 41.4695 0.999965 40.6126C1.01014 40.3065 1.05082 39.0211 1.73231 37.2461C2.16968 36.1036 2.67825 35.2773 3.31905 34.2979C4.16328 33.0126 5.36351 31.2885 6.98077 29.2993C7.02145 29.3503 7.06214 29.3911 7.113 29.4421C5.45505 31.5436 4.22431 33.3696 3.34957 34.7366C2.62739 35.8587 2.21036 36.6238 1.82385 37.7358C1.40682 38.9293 1.32545 39.8066 1.30511 40.1739C1.29494 40.3269 1.2746 40.7248 1.30511 41.2246C1.3458 42.0713 1.49837 42.7752 1.64077 43.2751C1.64077 43.2751 1.77299 43.8158 2.04762 44.6115C3.25802 48.182 5.56694 51.1505 8.73025 53.2112C8.83197 53.2724 8.93368 53.3438 9.02523 53.405C9.05574 53.4255 9.08626 53.4356 9.11677 53.4561C9.19814 53.5071 9.27951 53.5581 9.36088 53.5989C9.38123 53.6091 9.40157 53.6295 9.43208 53.6397C9.5338 53.7009 9.63551 53.7621 9.73723 53.8131C9.75757 53.8233 9.77791 53.8335 9.80843 53.8539C9.89997 53.9049 9.98134 53.9457 10.0729 53.9967C10.0932 54.0069 10.1136 54.0171 10.1339 54.0273C13.3989 55.731 17.1319 56.3124 20.7936 55.6391L21.0784 55.5881C21.2106 55.5575 21.3327 55.5371 21.4649 55.5065L21.5971 55.4759C21.648 55.4657 21.6988 55.4555 21.7497 55.4351C25.1063 54.5986 28.0051 52.5277 29.8868 49.6203C31.8702 46.5599 32.5517 42.9079 31.799 39.3272C31.0463 35.7567 28.9409 32.6861 25.8894 30.6968C25.6758 30.554 25.4521 30.4214 25.2283 30.2888L24.4553 29.8705C20.1629 27.5752 12.7073 23.5661 12.4733 23.4437C9.47277 21.8421 7.76397 18.5266 8.21151 15.1806C8.21151 15.1806 8.22168 15.0684 8.23186 15.0582C8.54717 12.6201 9.41174 10.3146 10.7645 8.21307L11.0188 8.36609C10.2051 9.63106 9.89997 12.1814 10.8764 14.6297C11.6189 16.466 13.4295 17.6493 14.7212 18.3736L27.0286 24.9841C27.5779 25.3003 32.4093 28.2485 34.1588 34.808C35.4099 39.4598 34.6267 44.4483 32.0025 48.488C29.6325 52.1401 26.0115 54.7108 21.7904 55.731C21.7395 55.7412 21.6887 55.7616 21.6276 55.7718L21.5056 55.8024C21.4344 55.8228 21.3733 55.833 21.3021 55.8432C21.2411 55.8534 21.0987 55.884 21.0987 55.884L20.8139 55.935C17.3048 56.5777 13.7346 56.088 10.5509 54.5782C9.09643 53.8845 6.24843 52.2523 3.95985 48.9981Z" fill="#101010"/>
<path d="M41.1568 65.798V26.1556H40.8619V65.8082H41.1568V65.798Z" fill="#101010"/>
<path d="M127.695 49.4963V26.6045H127.4V49.4861H127.695V49.4963Z" fill="white"/>
<path d="M35.9083 65.798V26.1556H35.6133V65.8082H35.9083V65.798Z" fill="#101010"/>
<path d="M27.405 15.4759C27.4152 14.517 27.3135 13.0786 26.7643 11.4362C26.4286 10.4365 25.798 8.55942 24.2519 7.13124C24.018 6.91701 23.4077 6.39674 22.5126 5.94788C20.8343 5.11137 19.3188 5.09097 18.322 5.09097C17.1421 5.09097 15.1383 5.09097 13.165 6.34573C12.5954 6.70278 11.7105 7.27405 11.0596 8.386C10.0424 10.0794 10.2865 11.9055 10.3781 12.6502C10.49 13.5071 10.6709 14.1782 10.854 14.6271C9.99957 14.5659 9.18802 14.517 8.33362 14.4558C8.5879 13.1194 8.93373 12.0483 9.2287 11.2832C9.67625 10.0896 10.0221 9.1613 10.8154 8.15137C11.1918 7.67191 11.9445 6.81499 13.1447 6.1009C15.1688 4.88694 17.1421 4.87674 18.3118 4.87674C19.3696 4.87674 20.8852 4.88694 22.5533 5.70305C22.9398 5.89687 23.6721 6.29473 24.4248 6.98842C25.7674 8.21258 26.3269 9.55916 26.7439 10.5589C27.4966 12.4053 27.7 14.1294 27.7 15.4657C27.6085 15.4657 27.5068 15.4657 27.405 15.4759Z" fill="#101010"/>
<path d="M41.1466 26.432C40.8415 26.6769 39.865 27.4114 38.4105 27.4726C36.956 27.5338 35.9287 26.8809 35.6133 26.6565C35.6133 26.5137 35.6133 26.381 35.6133 26.2382C35.8778 26.4525 36.8949 27.2176 38.4003 27.1767C39.926 27.1359 40.9127 26.279 41.1568 26.0546C41.1466 26.1872 41.1466 26.3096 41.1466 26.432Z" fill="#101010"/>
<path fill-rule="evenodd" clip-rule="evenodd" d="M146.409 28.8429C149.541 25.4945 153.72 23.1282 158.24 23.3428C160.585 23.4542 162.633 24.3263 164.073 25.9631C165.484 27.5673 166.062 29.6217 166.062 31.664C166.062 35.6923 163.863 40.2096 160.012 43.7982C156.133 47.4116 151.424 49.4697 146.516 49.5213C146.074 49.5259 145.632 49.5143 145.191 49.4863C145.37 51.2656 145.761 52.9475 146.357 54.4313C147.645 57.639 149.76 59.691 152.605 60.2742C154.569 60.6741 156.727 60.037 158.966 58.2565C161.212 56.4704 163.301 53.6986 164.882 50.4566L169.907 52.9218C168.06 56.7086 165.5 60.2208 162.442 62.653C159.377 65.0902 155.576 66.6057 151.488 65.772L151.486 65.7715C146.316 64.7121 142.949 60.9647 141.167 56.5268C140.14 53.9675 139.598 51.1043 139.502 48.1846C137.059 47.202 134.717 45.6789 132.567 43.6179L132.544 43.596L132.522 43.5736C131.979 43.0292 129.733 41.0007 127.517 39.0176C126.431 38.0467 125.384 37.1139 124.607 36.4241C124.219 36.0792 123.899 35.7956 123.676 35.5988C123.564 35.5002 123.479 35.4246 123.422 35.3744C123.393 35.3488 123.374 35.3323 123.364 35.3235C123.358 35.3182 123.36 35.3202 123.367 35.3259C123.368 35.327 123.382 35.3395 123.402 35.3557C123.409 35.3609 123.438 35.3855 123.478 35.4156C123.502 35.4337 123.571 35.4841 123.617 35.5155C123.73 35.5876 124.489 35.9043 125.173 35.9893V30.3786C125.856 30.4637 126.615 30.7804 126.729 30.8526C126.775 30.8842 126.844 30.9347 126.869 30.9531C126.908 30.9832 126.938 31.008 126.946 31.0146L126.947 31.0149C126.969 31.0328 126.986 31.0479 126.991 31.0524L126.992 31.0525C127.006 31.065 127.021 31.0774 127.03 31.0857C127.051 31.1041 127.078 31.128 127.109 31.1553C127.173 31.2107 127.263 31.2904 127.376 31.3903C127.602 31.5905 127.925 31.8769 128.316 32.2235C129.096 32.917 130.149 33.8543 131.24 34.8305C133.352 36.7191 135.732 38.8645 136.452 39.581C137.579 40.6577 138.74 41.5167 139.917 42.1764C139.933 42.082 139.949 41.9878 139.966 41.8937C140.879 36.8616 143.248 32.2215 146.409 28.8429ZM145.314 43.8697C145.697 43.9013 146.079 43.9148 146.458 43.9109C149.794 43.8758 153.206 42.4807 156.204 39.6876C159.228 36.8698 160.468 33.7514 160.468 31.664C160.468 30.6484 160.186 30.0249 159.878 29.675C159.599 29.3576 159.068 28.9992 157.976 28.9473C155.62 28.8355 152.922 30.0805 150.489 32.682C148.083 35.2533 146.195 38.9018 145.47 42.8979C145.412 43.2213 145.36 43.5454 145.314 43.8697Z" fill="#101010"/>
<path d="M121.237 49.9357C122.111 54.159 120.809 58.5762 117.758 61.7386C117.697 61.7998 117.575 61.9325 117.565 61.9325C115.296 64.187 112.296 65.554 109.112 65.7784C108.797 65.7988 108.492 65.809 108.187 65.809C105.349 65.809 102.582 64.9113 100.304 63.228C100.304 63.228 99.9986 63.0036 99.8765 62.8914C99.3985 62.5854 98.839 62.4221 98.2796 62.4221C96.5912 62.4221 95.2078 63.8707 95.2078 65.6662H94.9129V52.5778H95.2078C95.2078 56.0361 96.5606 59.2903 99.012 61.7284C99.3476 62.0651 99.6934 62.3813 100.06 62.667L100.487 62.9934C102.958 64.8194 106.02 65.707 109.102 65.4927C112.225 65.2785 115.154 63.9421 117.371 61.7284L117.554 61.5346C119.182 59.8106 120.067 57.5561 120.036 55.1792C120.006 52.8023 119.06 50.5682 117.371 48.8849C116.761 48.2729 116.059 47.7526 115.317 47.3445C115.042 47.1915 114.757 47.0589 114.473 46.9365H114.462L98.2084 39.1018C96.6929 38.3367 95.6554 37.0718 95.1875 35.4396C94.7705 34.0012 94.862 32.3588 95.4113 30.9204C95.9402 29.4616 96.6827 28.2986 97.8016 27.1561C97.8321 27.1255 97.8626 27.0949 97.8931 27.0541L98.1067 27.2683C98.0762 27.2989 98.0457 27.3295 98.0152 27.3601C97.232 28.166 96.9268 28.9719 97.0794 29.8288C97.5168 32.3077 101.779 34.6745 106.305 36.8677L111.706 39.4691C113.689 40.4688 116.151 41.7848 117.575 43.213C118.022 43.6618 118.439 44.1311 118.816 44.6208C120.016 46.2122 120.84 48.0076 121.237 49.9357ZM127.39 57.5663C127.39 57.6377 127.39 57.7091 127.39 57.7805C127.39 57.8519 127.39 57.9131 127.39 57.9845C127.451 60.3615 128.58 62.5445 130.482 63.9727C131.774 64.9521 133.32 65.4825 134.948 65.5233C134.948 65.5233 135.07 65.5233 135.121 65.5233C137.958 65.5233 140.644 64.6256 142.912 62.922L143.085 63.1566C140.776 64.9011 138.019 65.8192 135.121 65.8192C135.059 65.8192 134.937 65.8192 134.937 65.8192C132.11 65.7784 129.414 64.8603 127.156 63.1566C125.539 61.9427 124.207 60.3513 123.291 58.5558C122.355 56.7196 121.867 54.7405 121.847 52.6594V52.5064V23.7284H119.904V23.4326H121.847V16.8017V3.85618C119.334 2.74424 116.578 2.39739 113.852 2.87685C111.035 3.36652 108.482 4.70289 106.447 6.73296C103.416 9.77297 101.758 14.2616 102.114 18.4645C102.399 21.7698 103.925 24.5649 106.417 26.3298C106.915 26.646 107.495 26.8194 108.095 26.8194C109.946 26.8194 111.34 25.4218 111.34 23.5754H111.635V36.4903H111.34C111.248 33.1749 109.895 30.0532 107.546 27.7069C107.139 27.2989 106.702 26.9214 106.254 26.5746C103.681 24.7587 102.104 21.8922 101.819 18.4951C101.453 14.2106 103.142 9.63015 106.234 6.52894C108.309 4.45806 110.923 3.09108 113.791 2.59122C116.527 2.11175 119.304 2.43819 121.837 3.53994L122.05 3.63175C123.606 4.33565 125.01 5.31498 126.231 6.52894C126.627 6.92679 127.39 7.84491 127.39 7.84491V17.1077V18.1687C127.38 18.5563 127.329 18.9338 127.238 19.2908C127.197 19.4642 127.146 19.6377 127.085 19.8009C126.363 21.8718 124.42 23.3714 122.132 23.4326H143.075V23.7284H127.38L127.39 57.5663Z" fill="#101010"/>
<path d="M74.6616 65.9919C73.1054 65.9919 71.6102 65.6655 70.2574 65.0024C67.4094 63.615 65.4972 60.9116 64.9988 57.6064C64.4088 53.6279 66.1074 49.4759 69.5454 46.5073C73.0444 43.4877 77.4994 42.4268 81.4561 43.651C83.5209 44.2936 85.0161 44.9363 86.5927 45.9361C87.854 40.4681 87.5285 35.2246 85.6976 32.0112C84.6601 30.1954 83.3073 29.2773 81.5477 29.216C79.9202 29.1548 78.0385 29.8077 76.0958 31.1033C73.9293 32.5417 71.8543 34.6942 70.0845 37.3057L70.0336 37.3873C66.7279 41.9371 64.4597 46.8542 61.8558 52.8118L56.7396 50.5573C59.3841 44.5181 61.8761 39.1114 65.4972 34.1229C67.6637 30.9299 70.2574 28.2673 73.0138 26.4413C75.9432 24.4928 78.9743 23.5135 81.7816 23.6257C85.4637 23.7685 88.5863 25.768 90.5697 29.2466C93.2957 34.0311 93.7127 41.3148 91.6784 48.721C91.5869 49.0577 91.4851 49.4045 91.3834 49.731C92.4921 50.7103 93.7941 51.7814 94.6993 52.6281C94.9841 52.8934 94.6281 65.6757 94.6281 65.6757H94.323C94.1195 62.3092 93.7839 61.0443 92.5938 59.0448C92.2887 58.5347 91.8818 57.9226 91.4851 57.5044C90.9867 56.9841 90.1425 56.1272 89.1661 55.2601C88.7389 56.0966 88.2812 56.9025 87.8031 57.6574C85.9519 60.5648 83.7956 62.7275 81.4053 64.0843C79.1574 65.3492 76.8485 65.9919 74.6616 65.9919ZM78.1708 48.772C76.4925 48.772 74.6921 49.4759 73.1969 50.7613C71.2542 52.4343 70.237 54.7398 70.5422 56.7699C70.766 58.2491 71.539 59.3814 72.7189 59.9527C74.2853 60.7178 76.4518 60.4424 78.6488 59.1876C80.9679 57.8716 83.1649 55.0663 84.7618 51.4754C83.0836 50.241 81.8833 49.6596 79.8084 49.0169C79.2794 48.8536 78.7302 48.772 78.1708 48.772Z" fill="#101010"/>
<path d="M62.4558 58.1984V32.1849H62.1608V58.1984H62.4558Z" fill="white"/>
<path d="M94.9025 70.5404V44.527H94.6076V70.5404H94.9025Z" fill="white"/>
<path d="M127.685 27.8162H127.39V43.7303H127.685V27.8162Z" fill="white"/>
<path d="M22.2221 47.2429C28.8523 46.3755 31.4068 44.0913 31.7446 41.8323C31.7446 47.5927 29.0418 51.3198 25.3254 53.6918C21.6091 56.0637 14.852 56.7414 8.77068 53.0141C3.90561 50.0322 1.90102 44.0915 1.67578 41.8323C2.01363 41.1546 3.97318 40.0695 7.75712 41.1538C12.4871 42.5092 13.9964 48.3189 22.2221 47.2429Z" fill="#101010"/>
</svg>
