<svg width="552" height="225" viewBox="0 0 552 225" fill="none" xmlns="http://www.w3.org/2000/svg">
<path d="M56.8936 175.158C56.861 190.253 56.9262 193.489 56.8936 208.584H71.7015V209.293H41.4007V208.584H55.7846C55.7846 193.22 55.7194 190.913 55.7194 175.158" fill="#101010"/>
<path d="M493.663 34.8664V54.1898C493.398 64.3321 485.079 72.4857 474.87 72.4857V71.4582C484.515 71.4582 492.371 63.7686 492.636 54.1898H474.34V34.8664H493.663Z" fill="#101010"/>
<path d="M200.266 208.482H206.63V209.443H175.838V208.482H182.202V98.7393V97.3803C182.003 89.6576 178.324 82.5646 172.126 77.9244C167.917 74.7425 162.879 73.0189 157.576 72.8864C157.576 72.8864 157.178 72.8864 157.012 72.8864C147.864 72.8864 139.147 75.77 131.822 81.2057V208.515H138.186V209.476H107.394V208.515H113.758V4.34301H107.394V3.38181H131.822V80.0125C139.18 74.7425 147.864 71.9252 157.012 71.9252C157.211 71.9252 157.609 71.9252 157.609 71.9252C166.823 72.0577 175.606 75.0408 182.964 80.5759C188.201 84.5202 192.576 89.6907 195.559 95.5242C198.609 101.49 200.2 107.92 200.266 114.682V115.179V208.482Z" fill="#101010"/>
<path d="M10.645 154.528C10.5787 154.462 10.5124 154.362 10.413 154.23C4.11549 145.148 2.32567 137.459 1.69592 134.177C1.29818 132.056 0.933586 130.067 0.999875 127.283C1.03302 126.289 1.1656 122.113 3.3863 116.345C4.81153 112.633 6.46876 109.948 8.55688 106.767C11.3079 102.59 15.219 96.9888 20.489 90.5256C20.6216 90.6913 20.7542 90.8239 20.9199 90.9896C15.5173 97.8175 11.5068 103.75 8.65632 108.192C6.30304 111.838 4.9441 114.324 3.6846 117.936C2.32566 121.814 2.06051 124.665 1.99422 125.858C1.96108 126.355 1.89479 127.648 1.99422 129.272C2.1268 132.023 2.62397 134.31 3.088 135.934C3.088 135.934 3.51888 137.691 4.41379 140.276C8.35802 151.877 15.8819 161.522 26.1899 168.217C26.5213 168.416 26.8528 168.648 27.1511 168.847C27.2505 168.913 27.35 168.946 27.4494 169.012C27.7146 169.178 27.9797 169.344 28.2449 169.476C28.3112 169.51 28.3775 169.576 28.4769 169.609C28.8083 169.808 29.1398 170.007 29.4712 170.173C29.5375 170.206 29.6038 170.239 29.7033 170.305C30.0016 170.471 30.2667 170.603 30.565 170.769C30.6313 170.802 30.6976 170.835 30.7639 170.869C41.4034 176.404 53.5675 178.293 65.4996 176.105L66.4277 175.94C66.8585 175.84 67.2563 175.774 67.6872 175.675L68.118 175.575C68.2838 175.542 68.4495 175.509 68.6152 175.443C79.553 172.725 88.9991 165.996 95.1309 156.55C101.594 146.607 103.815 134.741 101.362 123.107C98.9094 111.506 92.0485 101.53 82.1051 95.0664C81.409 94.6024 80.6799 94.1715 79.9507 93.7407L77.4317 92.3817C63.4446 84.9241 39.1495 71.8982 38.3872 71.5005C28.6095 66.2968 23.0412 55.5247 24.4995 44.6532C24.4995 44.6532 24.5327 44.2887 24.5658 44.2555C25.5933 36.3339 28.4106 28.8432 32.8189 22.0154L33.6475 22.5125C30.9959 26.6225 30.0016 34.9087 33.1835 42.8634C35.603 48.8295 41.5028 52.6743 45.7122 55.0276L85.8173 76.5054C87.6071 77.5329 103.351 87.1117 109.052 108.424C113.129 123.538 110.576 139.746 102.025 152.871C94.3023 164.737 82.5029 173.089 68.7478 176.404C68.5821 176.437 68.4164 176.503 68.2175 176.536L67.8197 176.636C67.5877 176.702 67.3889 176.735 67.1569 176.768C66.958 176.801 66.494 176.901 66.494 176.901L65.5659 177.067C54.1309 179.155 42.4971 177.564 32.1228 172.658C27.3831 170.405 18.1026 165.101 10.645 154.528Z" fill="#101010"/>
<path d="M131.856 209.112V80.3117H130.894V209.145H131.856V209.112Z" fill="#101010"/>
<path d="M413.851 156.147V81.77H412.89V156.114H413.851V156.147Z" fill="white"/>
<path d="M114.753 209.112V80.3117H113.791V209.145H114.753V209.112Z" fill="#101010"/>
<path d="M87.0438 45.6128C87.0769 42.4972 86.7455 37.8238 84.9557 32.4875C83.8619 29.2393 81.8069 23.1407 76.7689 18.5004C76.0066 17.8044 74.0179 16.114 71.1011 14.6556C65.6323 11.9377 60.6937 11.8714 57.4455 11.8714C53.6007 11.8714 47.0712 11.8714 40.6411 15.9482C38.785 17.1083 35.9014 18.9644 33.7801 22.5772C30.4657 28.0792 31.2611 34.0121 31.5594 36.4317C31.924 39.2159 32.5136 41.3964 33.1102 42.8548C30.3261 42.6559 27.6815 42.4972 24.8974 42.2983C25.726 37.9564 26.8529 34.4762 27.8141 31.9903C29.2725 28.1124 30.3994 25.0962 32.9847 21.8149C34.211 20.2571 36.6637 17.4729 40.5748 15.1528C47.1706 11.2085 53.6007 11.1754 57.4124 11.1754C60.8594 11.1754 65.798 11.2085 71.2337 13.8601C72.4932 14.4899 74.8796 15.7825 77.3324 18.0364C81.7075 22.0137 83.5304 26.3888 84.8894 29.637C87.3421 35.6362 88.005 41.2377 88.005 45.5797C87.7067 45.5797 87.3752 45.5797 87.0438 45.6128Z" fill="#101010"/>
<path d="M131.822 81.2098C130.828 82.0053 127.646 84.3917 122.906 84.5906C118.167 84.7894 114.819 82.6682 113.791 81.939C113.791 81.475 113.791 81.0441 113.791 80.5801C114.653 81.2761 117.968 83.762 122.873 83.6294C127.845 83.4968 131.06 80.7126 131.855 79.9835C131.822 80.4143 131.822 80.8121 131.822 81.2098Z" fill="#101010"/>
<path d="M405.631 103.147C405.664 103.147 432.014 126.448 436.024 130.459C460.021 153.395 490.548 151.771 512.953 130.956C535.359 110.141 535.359 81.3379 512.953 80.2773C490.548 79.2167 468.142 103.744 462.805 133.077C457.469 162.41 467.081 194.759 493.199 200.096C512.92 204.106 532.045 186.109 543.215 163.272" stroke="#101010" stroke-width="18.2296" stroke-miterlimit="10"/>
<path d="M392.804 157.575C395.655 171.296 391.412 185.648 381.469 195.923C381.27 196.122 380.872 196.553 380.839 196.553C373.448 203.878 363.67 208.319 353.296 209.048C352.268 209.115 351.274 209.148 350.28 209.148C341.032 209.148 332.017 206.231 324.592 200.762C324.592 200.762 323.598 200.033 323.2 199.668C321.643 198.674 319.82 198.144 317.997 198.144C312.495 198.144 307.987 202.85 307.987 208.684H307.026V166.159H307.987C307.987 177.395 312.395 187.968 320.383 195.89C321.477 196.984 322.604 198.011 323.797 198.939L325.189 200C333.243 205.933 343.22 208.816 353.263 208.12C363.438 207.424 372.984 203.082 380.209 195.89L380.806 195.26C386.109 189.659 388.993 182.334 388.893 174.611C388.794 166.888 385.711 159.63 380.209 154.161C378.221 152.172 375.934 150.482 373.514 149.156C372.619 148.659 371.691 148.228 370.763 147.83H370.73L317.765 122.375C312.826 119.889 309.445 115.779 307.921 110.476C306.562 105.802 306.86 100.466 308.65 95.7927C310.373 91.053 312.793 87.2745 316.439 83.5623C316.538 83.4629 316.638 83.3634 316.737 83.2309L317.433 83.9269C317.334 84.0263 317.234 84.1258 317.135 84.2252C314.583 86.8436 313.588 89.4621 314.086 92.2462C315.511 100.3 329.398 107.99 344.148 115.116L361.748 123.568C368.211 126.816 376.232 131.092 380.872 135.732C382.331 137.191 383.69 138.715 384.916 140.306C388.827 145.477 391.512 151.31 392.804 157.575ZM412.857 182.367C412.857 182.599 412.857 182.831 412.857 183.063C412.857 183.295 412.857 183.494 412.857 183.726C413.056 191.449 416.735 198.542 422.933 203.182C427.142 206.364 432.18 208.087 437.484 208.22C437.484 208.22 437.881 208.22 438.047 208.22C447.294 208.22 456.045 205.303 463.436 199.768L463.999 200.53C456.475 206.198 447.493 209.181 438.047 209.181C437.848 209.181 437.45 209.181 437.45 209.181C428.236 209.048 419.453 206.065 412.095 200.53C406.825 196.586 402.483 191.415 399.5 185.582C396.45 179.616 394.859 173.186 394.793 166.424V165.927V72.4257H388.462V71.4645H394.793V49.9204V7.85965C386.606 4.24687 377.624 3.11995 368.741 4.67775C359.56 6.2687 351.241 10.6107 344.612 17.2065C334.735 27.0836 329.332 41.6673 330.492 55.323C331.42 66.0619 336.392 75.1435 344.512 80.8776C346.137 81.9051 348.026 82.4685 349.981 82.4685C356.014 82.4685 360.555 77.9277 360.555 71.9285H361.516V113.89H360.555C360.256 103.118 355.848 92.9754 348.192 85.3521C346.866 84.0263 345.44 82.8 343.982 81.673C335.597 75.7733 330.459 66.4596 329.531 55.4224C328.338 41.5016 333.84 26.6196 343.916 16.5436C350.677 9.81519 359.196 5.37379 368.542 3.7497C377.458 2.1919 386.507 3.25253 394.76 6.83216L395.456 7.13047C400.527 9.41745 405.101 12.5994 409.078 16.5436C410.371 17.8362 412.857 20.8193 412.857 20.8193V50.9147V54.3618C412.824 55.6213 412.658 56.8476 412.36 58.0077C412.227 58.5711 412.061 59.1346 411.863 59.6649C409.509 66.3933 403.179 71.2656 395.721 71.4645H463.966V72.4257H412.824L412.857 182.367Z" fill="#101010"/>
<path d="M241.035 209.742C235.963 209.742 231.091 208.682 226.683 206.527C217.402 202.019 211.171 193.236 209.547 182.497C207.625 169.571 213.16 156.081 224.363 146.436C235.765 136.625 250.282 133.178 263.175 137.155C269.904 139.243 274.776 141.331 279.913 144.58C284.023 126.814 282.963 109.778 276.997 99.337C273.616 93.4372 269.208 90.4542 263.474 90.2553C258.17 90.0564 252.039 92.1777 245.708 96.3871C238.648 101.06 231.887 108.054 226.119 116.539L225.954 116.804C215.182 131.587 207.79 147.563 199.305 166.919L182.634 159.594C191.251 139.972 199.372 122.406 211.171 106.198C218.231 95.8236 226.683 87.1728 235.665 81.2399C245.211 74.9093 255.088 71.7274 264.236 72.092C276.234 72.556 286.41 79.0524 292.873 90.3547C301.756 105.9 303.115 129.565 296.486 153.628C296.187 154.722 295.856 155.849 295.525 156.909C299.137 160.091 303.38 163.572 306.33 166.323C307.258 167.184 306.098 208.715 306.098 208.715H305.103C304.441 197.777 303.347 193.667 299.469 187.171C298.474 185.513 297.149 183.525 295.856 182.166C294.232 180.475 291.481 177.691 288.299 174.874C286.907 177.592 285.415 180.21 283.858 182.663C277.825 192.109 270.799 199.136 263.01 203.544C255.685 207.654 248.161 209.742 241.035 209.742ZM252.47 153.794C247.001 153.794 241.134 156.081 236.262 160.257C229.931 165.693 226.617 173.184 227.611 179.779C228.34 184.585 230.859 188.264 234.704 190.12C239.808 192.606 246.868 191.711 254.027 187.635C261.584 183.359 268.744 174.244 273.947 162.577C268.478 158.567 264.567 156.677 257.806 154.589C256.082 154.059 254.293 153.794 252.47 153.794Z" fill="#101010"/>
<path d="M201.261 184.42V99.9013H200.299V184.42H201.261Z" fill="white"/>
<path d="M306.992 224.521V140.001H306.031V224.521H306.992Z" fill="white"/>
<path d="M413.818 85.707H412.857V137.413H413.818V85.707Z" fill="white"/>
<path d="M70.1545 148.826C91.7599 146.007 100.084 138.586 101.185 131.246C101.185 149.962 92.3773 162.072 80.2671 169.778C68.1569 177.485 46.1383 179.687 26.3216 167.576C10.4682 157.888 3.93599 138.586 3.20204 131.246C4.30297 129.044 10.6884 125.519 23.0188 129.042C38.4318 133.446 43.3503 152.322 70.1545 148.826Z" fill="#101010"/>
</svg>
