<svg width="264" height="225" viewBox="0 0 264 225" fill="none" xmlns="http://www.w3.org/2000/svg">
<g clip-path="url(#clip0)">
<path d="M10.4348 64.3171C34.889 15.001 81.5559 -6.31492 101.201 28.0433C120.846 62.4015 102.546 132.789 68.6767 151.986C44.0594 165.884 22.7027 154.798 19.6051 134.175C15.7332 108.335 45.4044 82.8208 71.1629 90.8092C82.4526 94.3143 88.6069 97.6564 98.8777 105.889C100.508 107.194 117.626 122.192 122.517 127.083C151.862 155.124 189.114 153.127 216.503 127.694C243.891 102.262 243.891 67.0886 216.503 65.7844C189.114 64.4802 161.766 94.4774 155.245 130.303C148.724 166.169 160.462 205.663 192.415 212.184C216.666 217.115 240.142 194.781 253.795 166.617" stroke="#101010" stroke-width="22.4164" stroke-miterlimit="10"/>
<path d="M130.342 119.054C142.162 130.303 155.693 136.212 169.632 136.212C169.795 136.212 169.958 136.212 170.121 136.212C179.903 136.131 189.562 133.115 198.488 127.49L197.795 126.472C189.032 131.974 179.658 134.868 170.121 134.99C169.958 134.99 169.795 134.99 169.632 134.99C156.06 134.99 142.773 129.162 131.198 118.157C125.777 112.736 108.456 97.6155 106.662 96.189C97.2475 88.6082 90.5633 84.5733 81.393 81.1497L81.0669 82.3316C90.0743 85.6737 96.6361 89.7086 105.929 97.1672C107.722 98.5937 124.922 113.633 130.342 119.054Z" fill="white"/>
<path d="M211.408 145.872C198.284 154.39 183.979 158.67 169.754 158.67C150.436 158.67 131.157 150.845 114.773 135.194L114.61 135.031C110.208 130.629 93.6201 116.079 91.8676 114.652C85.1426 109.272 80.7001 106.379 74.8311 104.015L74.505 105.197C80.1703 107.52 84.5313 110.332 91.0932 115.63C92.8457 117.057 109.352 131.526 113.754 135.927L113.958 136.131C122.109 143.957 131.117 149.948 140.735 153.983C150.109 157.936 159.891 159.933 169.795 159.933C179.536 159.933 189.155 157.977 198.447 154.146C203.175 152.19 207.74 149.785 212.142 146.891L211.408 145.872Z" fill="white"/>
</g>
<defs>
<clipPath id="clip0">
<rect width="264" height="224.348" fill="white"/>
</clipPath>
</defs>
</svg>
