<svg width="835" height="507" viewBox="0 0 835 507" fill="none" xmlns="http://www.w3.org/2000/svg">
<rect x="0.25" y="0.25" width="834.5" height="505.561" fill="white"/>
<path d="M100 388.769C102.525 355.489 115.837 174.053 115.952 157.298C116.078 139.166 123.824 127.84 133.625 133.107C143.437 138.386 149.565 157.93 144.332 167.558C140.533 174.558 133.774 175.098 129.952 170.634C125.178 165.045 128.46 154.521 135.805 152.593C139.018 151.744 140.992 151.629 144.676 152.065C145.261 152.134 151.585 153.167 153.478 153.603C164.679 155.91 173.286 149.873 176.028 139.729C178.771 129.572 173.527 121.172 166.79 124.936C160.054 128.712 157.988 139.947 161.775 149.483C165.562 159.02 174.261 166.709 182.857 163.495C191.452 160.294 191.682 148.691 189.96 138.937C187.872 127.094 186.908 112.335 191.223 103.935C195.538 95.5346 207.174 92 217.962 92" stroke="url(#paint0_linear)" stroke-width="6.3118" stroke-miterlimit="10"/>
<path d="M490 388.769C492.525 355.489 505.837 174.053 505.952 157.298C506.078 139.166 513.824 127.84 523.625 133.107C533.437 138.386 539.565 157.93 534.332 167.558C530.533 174.558 523.774 175.098 519.952 170.634C515.178 165.045 518.46 154.521 525.805 152.593C529.018 151.744 530.992 151.629 534.676 152.065C535.261 152.134 541.585 153.167 543.478 153.603C554.679 155.91 563.286 149.873 566.028 139.729C568.771 129.572 563.527 121.172 556.79 124.936C550.054 128.712 547.988 139.947 551.775 149.483C555.562 159.02 564.261 166.709 572.857 163.495C581.452 160.294 581.682 148.691 579.96 138.937C577.872 127.094 576.908 112.335 581.223 103.935C585.538 95.5346 597.174 92 607.962 92" stroke="url(#paint1_linear)" stroke-width="6.3118" stroke-miterlimit="10"/>
<path d="M223.227 388.769C225.752 355.489 239.064 174.053 239.179 157.298C239.305 139.166 247.052 127.84 256.852 133.107C266.664 138.386 272.792 157.93 267.559 167.558C263.761 174.558 257.001 175.098 253.18 170.634C248.406 165.045 251.688 154.521 259.033 152.593C262.246 151.744 264.22 151.629 267.904 152.065C268.489 152.134 274.812 153.167 276.706 153.603C287.906 155.91 296.513 149.873 299.256 139.729C301.999 129.572 296.754 121.172 290.018 124.936C283.281 128.712 281.216 139.947 285.003 149.483C288.79 159.02 297.489 166.709 306.084 163.495C314.68 160.294 314.909 148.691 313.188 138.937C311.099 127.094 310.135 112.335 314.45 103.935C318.765 95.5346 330.402 92 341.189 92" stroke="url(#paint2_linear)" stroke-width="6.3118" stroke-miterlimit="10"/>
<path d="M352 388.769C354.525 355.489 367.837 174.053 367.952 157.298C368.078 139.166 375.824 127.84 385.625 133.107C395.437 138.386 401.565 157.93 396.332 167.558C392.533 174.558 385.774 175.098 381.952 170.634C377.178 165.045 380.46 154.521 387.805 152.593C391.018 151.744 392.992 151.629 396.676 152.065C397.261 152.134 403.585 153.167 405.478 153.603C416.679 155.91 425.286 149.873 428.028 139.729C430.771 129.572 425.527 121.172 418.79 124.936C412.054 128.712 409.988 139.947 413.775 149.483C417.562 159.02 426.261 166.709 434.857 163.495C443.452 160.294 443.682 148.691 441.96 138.937C439.872 127.094 438.908 112.335 443.223 103.935C447.538 95.5346 459.174 92 469.962 92" stroke="url(#paint3_linear)" stroke-width="6.3118" stroke-miterlimit="10"/>
<path d="M630 388.769C632.525 355.489 645.837 174.053 645.952 157.298C646.078 139.166 653.824 127.84 663.625 133.107C673.437 138.386 679.565 157.93 674.332 167.558C670.533 174.558 663.774 175.098 659.952 170.634C655.178 165.045 658.46 154.521 665.805 152.593C669.018 151.744 670.992 151.629 674.676 152.065C675.261 152.134 681.585 153.167 683.478 153.603C694.679 155.91 703.286 149.873 706.028 139.729C708.771 129.572 703.527 121.172 696.79 124.936C690.054 128.712 687.988 139.947 691.775 149.483C695.562 159.02 704.261 166.709 712.857 163.495C721.452 160.294 721.682 148.691 719.96 138.937C717.872 127.094 716.908 112.335 721.223 103.935C725.538 95.5346 737.174 92 747.962 92" stroke="url(#paint4_linear)" stroke-width="6.3118" stroke-miterlimit="10"/>
<rect x="0.25" y="0.25" width="834.5" height="505.561" stroke="black" stroke-width="0.5"/>
<defs>
<linearGradient id="paint0_linear" x1="102.588" y1="183.498" x2="231.99" y2="207.903" gradientUnits="userSpaceOnUse">
<stop stop-color="#FFBD5B"/>
<stop offset="0.5" stop-color="#FF9047"/>
<stop offset="1" stop-color="#EB4843"/>
</linearGradient>
<linearGradient id="paint1_linear" x1="492.588" y1="183.498" x2="621.99" y2="207.903" gradientUnits="userSpaceOnUse">
<stop stop-color="#00F1D6"/>
<stop offset="0.479167" stop-color="#51D0E1"/>
<stop offset="1" stop-color="#009DF4"/>
</linearGradient>
<linearGradient id="paint2_linear" x1="225.816" y1="183.498" x2="355.217" y2="207.903" gradientUnits="userSpaceOnUse">
<stop stop-color="#74DEFF"/>
<stop offset="0.526042" stop-color="#76FCBB"/>
<stop offset="1" stop-color="#9FFF53"/>
</linearGradient>
<linearGradient id="paint3_linear" x1="352.627" y1="98.4331" x2="520.413" y2="244.375" gradientUnits="userSpaceOnUse">
<stop stop-color="#FFABEC"/>
<stop offset="0.526042" stop-color="#DBADFF"/>
<stop offset="1" stop-color="#97C3FF"/>
</linearGradient>
<linearGradient id="paint4_linear" x1="632.588" y1="183.498" x2="761.99" y2="207.903" gradientUnits="userSpaceOnUse">
<stop stop-color="#E28CCF"/>
<stop offset="0.489583" stop-color="#FFADAD"/>
<stop offset="1" stop-color="#FFD250"/>
</linearGradient>
</defs>
</svg>
