<svg width="360" height="210" viewBox="0 0 360 210" fill="none" xmlns="http://www.w3.org/2000/svg">
<path d="M120.43 128.106C120.417 134.163 120.443 135.462 120.43 141.52H126.372V141.804H114.213V141.52H119.985C119.985 135.354 119.959 134.428 119.959 128.106" fill="#101010"/>
<path d="M295.705 71.8081V79.5625C295.598 83.6326 292.26 86.9046 288.163 86.9046V86.4923C292.034 86.4923 295.186 83.4065 295.292 79.5625H287.95V71.8081H295.705Z" fill="#101010"/>
<path d="M177.965 141.479H180.519V141.865H168.162V141.479H170.716V97.4401V96.8947C170.636 93.7956 169.16 90.9492 166.672 89.0871C164.983 87.8102 162.962 87.1185 160.833 87.0653C160.833 87.0653 160.674 87.0653 160.607 87.0653C156.936 87.0653 153.438 88.2225 150.499 90.4039V141.493H153.052V141.878H140.696V141.493H143.25V59.5591H140.696V59.1733H150.499V89.925C153.451 87.8102 156.936 86.6796 160.607 86.6796C160.687 86.6796 160.847 86.6796 160.847 86.6796C164.544 86.7328 168.069 87.9299 171.022 90.1512C173.123 91.734 174.879 93.8089 176.076 96.1499C177.3 98.544 177.938 101.124 177.965 103.838V104.037V141.479Z" fill="#101010"/>
<path d="M101.871 119.828C101.844 119.801 101.817 119.761 101.777 119.708C99.2502 116.064 98.532 112.978 98.2793 111.661C98.1197 110.81 97.9733 110.012 97.9999 108.895C98.0132 108.496 98.0664 106.82 98.9576 104.505C99.5295 103.016 100.195 101.938 101.033 100.661C102.137 98.9854 103.706 96.7376 105.821 94.1439C105.874 94.2104 105.927 94.2636 105.994 94.3301C103.826 97.0701 102.216 99.4509 101.072 101.233C100.128 102.696 99.5828 103.694 99.0773 105.144C98.532 106.7 98.4256 107.844 98.399 108.323C98.3857 108.522 98.3591 109.041 98.399 109.693C98.4522 110.797 98.6517 111.714 98.8379 112.366C98.8379 112.366 99.0108 113.071 99.3699 114.109C100.953 118.764 103.972 122.634 108.109 125.321C108.242 125.401 108.375 125.494 108.494 125.574C108.534 125.601 108.574 125.614 108.614 125.64C108.72 125.707 108.827 125.773 108.933 125.827C108.96 125.84 108.987 125.867 109.026 125.88C109.159 125.96 109.292 126.039 109.425 126.106C109.452 126.119 109.479 126.133 109.519 126.159C109.638 126.226 109.745 126.279 109.864 126.345C109.891 126.359 109.918 126.372 109.944 126.385C114.214 128.607 119.095 129.365 123.884 128.487L124.256 128.42C124.429 128.38 124.588 128.354 124.761 128.314L124.934 128.274C125.001 128.261 125.067 128.247 125.134 128.221C129.523 127.13 133.314 124.43 135.775 120.639C138.368 116.649 139.259 111.887 138.275 107.219C137.291 102.563 134.538 98.5598 130.547 95.9661C130.268 95.7799 129.975 95.607 129.683 95.4341L128.672 94.8887C123.059 91.896 113.309 86.6688 113.003 86.5091C109.08 84.4209 106.845 80.0981 107.43 75.7354C107.43 75.7354 107.444 75.5891 107.457 75.5758C107.869 72.3969 109 69.3909 110.769 66.6509L111.101 66.8504C110.037 68.4997 109.638 71.8249 110.915 75.0172C111.886 77.4113 114.254 78.9542 115.943 79.8986L132.037 88.5176C132.755 88.9299 139.073 92.7739 141.361 101.326C142.997 107.392 141.973 113.896 138.541 119.163C135.442 123.925 130.707 127.276 125.187 128.607C125.121 128.62 125.054 128.646 124.974 128.66L124.815 128.7C124.721 128.726 124.642 128.74 124.549 128.753C124.469 128.766 124.283 128.806 124.283 128.806L123.91 128.873C119.321 129.711 114.653 129.072 110.49 127.104C108.587 126.199 104.863 124.071 101.871 119.828Z" fill="#101010"/>
<path d="M150.512 141.732V90.0449H150.126V141.746H150.512V141.732Z" fill="#101010"/>
<path d="M263.676 120.477V90.6299H263.291V120.464H263.676V120.477Z" fill="white"/>
<path d="M143.649 141.732V90.0449H143.263V141.746H143.649V141.732Z" fill="#101010"/>
<path d="M132.529 76.1204C132.542 74.8701 132.409 72.9947 131.691 70.8533C131.252 69.5498 130.428 67.1024 128.406 65.2403C128.1 64.961 127.302 64.2826 126.131 63.6974C123.937 62.6067 121.955 62.5801 120.651 62.5801C119.109 62.5801 116.488 62.5801 113.908 64.2161C113.163 64.6816 112.006 65.4265 111.155 66.8763C109.824 69.0842 110.144 71.4651 110.263 72.4361C110.41 73.5534 110.646 74.4284 110.886 75.0136C109.768 74.9338 108.707 74.8701 107.59 74.7903C107.922 73.0479 108.375 71.6513 108.76 70.6538C109.346 69.0975 109.798 67.8872 110.835 66.5704C111.327 65.9452 112.312 64.828 113.881 63.8969C116.528 62.3141 119.109 62.3008 120.638 62.3008C122.021 62.3008 124.003 62.3141 126.185 63.3782C126.69 63.6309 127.648 64.1496 128.632 65.0541C130.388 66.6502 131.119 68.4059 131.665 69.7094C132.649 72.1169 132.915 74.3647 132.915 76.1071C132.795 76.1071 132.662 76.1071 132.529 76.1204Z" fill="#101010"/>
<path d="M150.499 90.4052C150.1 90.7244 148.823 91.6821 146.921 91.7619C145.019 91.8417 143.675 90.9905 143.263 90.6978C143.263 90.5116 143.263 90.3387 143.263 90.1525C143.609 90.4318 144.939 91.4294 146.907 91.3762C148.902 91.323 150.193 90.2057 150.512 89.9131C150.499 90.086 150.499 90.2456 150.499 90.4052Z" fill="#101010"/>
<path d="M260.377 99.2085C260.391 99.2085 270.965 108.559 272.574 110.168C282.204 119.373 294.454 118.721 303.446 110.368C312.437 102.015 312.437 90.4565 303.446 90.0309C294.454 89.6053 285.463 99.4479 283.321 111.219C281.18 122.991 285.037 135.972 295.518 138.114C303.432 139.723 311.107 132.501 315.589 123.336" stroke="#101010" stroke-width="7.3155" stroke-miterlimit="10"/>
<path d="M255.23 121.05C256.374 126.556 254.672 132.315 250.681 136.439C250.601 136.519 250.442 136.691 250.429 136.691C247.462 139.631 243.539 141.413 239.375 141.706C238.963 141.733 238.564 141.746 238.165 141.746C234.454 141.746 230.836 140.575 227.857 138.381C227.857 138.381 227.458 138.088 227.298 137.942C226.673 137.543 225.942 137.33 225.21 137.33C223.002 137.33 221.193 139.219 221.193 141.56H220.807V124.495H221.193C221.193 129.004 222.962 133.247 226.168 136.425C226.607 136.864 227.059 137.277 227.538 137.649L228.096 138.075C231.328 140.456 235.332 141.613 239.362 141.333C243.446 141.054 247.276 139.312 250.176 136.425L250.415 136.173C252.543 133.925 253.701 130.985 253.661 127.886C253.621 124.787 252.384 121.874 250.176 119.68C249.378 118.882 248.46 118.203 247.489 117.671C247.13 117.472 246.757 117.299 246.385 117.139H246.372L225.117 106.924C223.135 105.926 221.778 104.277 221.166 102.149C220.621 100.274 220.741 98.1321 221.459 96.2567C222.151 94.3547 223.122 92.8383 224.585 91.3486C224.625 91.3087 224.665 91.2688 224.705 91.2156L224.984 91.495C224.944 91.5349 224.904 91.5748 224.864 91.6147C223.84 92.6654 223.441 93.7162 223.64 94.8335C224.212 98.0656 229.786 101.151 235.704 104.011L242.767 107.403C245.361 108.706 248.58 110.422 250.442 112.284C251.027 112.87 251.572 113.481 252.065 114.12C253.634 116.195 254.711 118.536 255.23 121.05ZM263.277 130.999C263.277 131.092 263.277 131.185 263.277 131.278C263.277 131.371 263.277 131.451 263.277 131.544C263.357 134.643 264.833 137.49 267.321 139.352C269.01 140.629 271.032 141.32 273.16 141.373C273.16 141.373 273.319 141.373 273.386 141.373C277.097 141.373 280.608 140.203 283.574 137.982L283.801 138.288C280.781 140.562 277.177 141.759 273.386 141.759C273.306 141.759 273.146 141.759 273.146 141.759C269.449 141.706 265.924 140.509 262.971 138.288C260.856 136.705 259.114 134.63 257.917 132.289C256.693 129.895 256.055 127.314 256.028 124.601V124.401V86.8795H253.488V86.4938H256.028V77.8482V60.9694C252.743 59.5196 249.138 59.0673 245.574 59.6925C241.889 60.3309 238.551 62.0733 235.891 64.7202C231.927 68.6839 229.759 74.5363 230.224 80.0163C230.597 84.3258 232.592 87.9702 235.851 90.2713C236.502 90.6836 237.261 90.9097 238.045 90.9097C240.466 90.9097 242.288 89.0875 242.288 86.68H242.674V103.519H242.288C242.169 99.1962 240.4 95.1261 237.327 92.0669C236.795 91.5349 236.223 91.0427 235.638 90.5905C232.273 88.2229 230.211 84.4854 229.839 80.0562C229.36 74.4698 231.568 68.4977 235.611 64.4542C238.325 61.7541 241.743 59.9718 245.494 59.32C249.072 58.6949 252.703 59.1205 256.015 60.557L256.294 60.6767C258.329 61.5945 260.165 62.8714 261.761 64.4542C262.28 64.9729 263.277 66.17 263.277 66.17V78.2472V79.6305C263.264 80.136 263.197 80.6281 263.078 81.0936C263.024 81.3198 262.958 81.5459 262.878 81.7587C261.934 84.4588 259.393 86.414 256.401 86.4938H283.787V86.8795H263.264L263.277 130.999Z" fill="#101010"/>
<path d="M194.325 141.985C192.29 141.985 190.335 141.559 188.566 140.695C184.842 138.886 182.341 135.361 181.689 131.052C180.918 125.864 183.139 120.451 187.635 116.58C192.21 112.643 198.036 111.26 203.21 112.856C205.91 113.694 207.866 114.532 209.927 115.835C211.577 108.706 211.151 101.869 208.757 97.6795C207.4 95.312 205.631 94.1149 203.33 94.0351C201.202 93.9553 198.741 94.8065 196.201 96.4957C193.368 98.3712 190.654 101.178 188.34 104.583L188.273 104.689C183.951 110.621 180.984 117.032 177.579 124.8L170.889 121.861C174.347 113.986 177.606 106.937 182.341 100.433C185.174 96.2696 188.566 92.7981 192.171 90.4172C196.001 87.8767 199.965 86.5999 203.636 86.7462C208.451 86.9324 212.534 89.5394 215.128 94.075C218.693 100.313 219.238 109.81 216.578 119.466C216.458 119.905 216.325 120.358 216.192 120.783C217.642 122.06 219.344 123.457 220.528 124.561C220.901 124.907 220.435 141.573 220.435 141.573H220.036C219.77 137.183 219.331 135.534 217.775 132.927C217.376 132.262 216.844 131.464 216.325 130.919C215.673 130.24 214.569 129.123 213.292 127.992C212.734 129.083 212.135 130.134 211.51 131.118C209.089 134.909 206.27 137.729 203.144 139.498C200.204 141.147 197.185 141.985 194.325 141.985ZM198.914 119.533C196.719 119.533 194.365 120.451 192.41 122.127C189.87 124.308 188.539 127.314 188.938 129.961C189.231 131.889 190.242 133.366 191.785 134.111C193.833 135.108 196.666 134.749 199.539 133.113C202.572 131.397 205.445 127.74 207.533 123.058C205.338 121.448 203.769 120.69 201.056 119.852C200.364 119.639 199.646 119.533 198.914 119.533Z" fill="#101010"/>
<path d="M178.364 131.823V97.9058H177.978V131.823H178.364Z" fill="white"/>
<path d="M220.794 147.915V113.998H220.408V147.915H220.794Z" fill="white"/>
<path d="M263.663 92.21H263.277V112.959H263.663V92.21Z" fill="white"/>
<path d="M125.752 117.539C134.422 116.408 137.762 113.43 138.204 110.485C138.204 117.995 134.669 122.855 129.81 125.947C124.95 129.04 116.114 129.924 108.161 125.064C101.8 121.176 99.1782 113.43 98.8837 110.485C99.3255 109.601 101.888 108.186 106.836 109.6C113.021 111.367 114.995 118.942 125.752 117.539Z" fill="#101010"/>
<rect x="0.25" y="0.25" width="359.5" height="209.5" stroke="black" stroke-width="0.5"/>
<path d="M62.5 67L70.6948 92.2209H97.2136L75.7594 107.808L83.9542 133.029L62.5 117.442L41.0458 133.029L49.2406 107.808L27.7864 92.2209H54.3052L62.5 67Z" fill="#101010"/>
</svg>
