<svg width="360" height="210" viewBox="0 0 360 210" fill="none" xmlns="http://www.w3.org/2000/svg">
<rect x="0.25" y="0.25" width="359.5" height="209.5" stroke="black" stroke-width="0.5"/>
<path d="M75.6032 129.203C75.5877 134.784 75.6187 135.981 75.6032 141.562H82.6512V141.824H68.2292V141.562H75.0754C75.0754 135.881 75.0443 135.028 75.0443 129.203" fill="#101010"/>
<path d="M283.489 77.3301V84.475C283.363 88.2252 279.403 91.24 274.544 91.24V90.8601C279.135 90.8601 282.873 88.0168 283 84.475H274.292V77.3301H283.489Z" fill="#101010"/>
<path d="M143.843 141.525H146.872V141.88H132.216V141.525H135.245V100.947V100.444C135.151 97.5889 133.399 94.9662 130.449 93.2505C128.446 92.0739 126.048 91.4367 123.524 91.3876C123.524 91.3876 123.335 91.3876 123.256 91.3876C118.902 91.3876 114.753 92.4539 111.266 94.4637V141.537H114.295V141.892H99.6396V141.537H102.669V66.0434H99.6396V65.688H111.266V94.0226C114.768 92.0739 118.902 91.0322 123.256 91.0322C123.35 91.0322 123.54 91.0322 123.54 91.0322C127.925 91.0812 132.106 92.1842 135.608 94.2309C138.101 95.6893 140.183 97.6011 141.603 99.7581C143.054 101.964 143.811 104.342 143.843 106.842V107.026V141.525Z" fill="#101010"/>
<path d="M53.5906 121.575C53.5591 121.551 53.5275 121.514 53.4802 121.465C50.4828 118.107 49.631 115.264 49.3312 114.051C49.1419 113.266 48.9684 112.531 48.9999 111.501C49.0157 111.134 49.0788 109.59 50.1358 107.457C50.8141 106.085 51.6029 105.092 52.5968 103.915C53.9062 102.371 55.7677 100.3 58.276 97.9101C58.3391 97.9714 58.4022 98.0204 58.4811 98.0817C55.9097 100.606 54.0008 102.8 52.6441 104.442C51.524 105.79 50.8772 106.71 50.2778 108.045C49.631 109.479 49.5048 110.533 49.4732 110.974C49.4574 111.158 49.4259 111.636 49.4732 112.237C49.5363 113.254 49.7729 114.1 49.9938 114.7C49.9938 114.7 50.1989 115.35 50.6248 116.306C52.5021 120.595 56.0832 124.161 60.9894 126.637C61.1472 126.71 61.3049 126.796 61.4469 126.87C61.4942 126.894 61.5416 126.907 61.5889 126.931C61.7151 126.992 61.8413 127.054 61.9675 127.103C61.9991 127.115 62.0306 127.139 62.0779 127.152C62.2357 127.225 62.3934 127.299 62.5512 127.36C62.5828 127.372 62.6143 127.384 62.6616 127.409C62.8036 127.47 62.9298 127.519 63.0718 127.581C63.1033 127.593 63.1349 127.605 63.1665 127.617C68.2304 129.664 74.0201 130.363 79.6993 129.554L80.141 129.492C80.3461 129.456 80.5354 129.431 80.7405 129.394L80.9456 129.358C81.0245 129.345 81.1034 129.333 81.1822 129.309C86.3882 128.304 90.8842 125.816 93.8027 122.323C96.8789 118.646 97.9359 114.259 96.7685 109.957C95.6011 105.668 92.3356 101.979 87.6029 99.5891C87.2716 99.4175 86.9245 99.2582 86.5775 99.0989L85.3785 98.5964C78.7212 95.839 67.1577 91.0226 66.7949 90.8755C62.141 88.9514 59.4907 84.9684 60.1849 80.9486C60.1849 80.9486 60.2006 80.8138 60.2164 80.8015C60.7055 77.8725 62.0464 75.1027 64.1445 72.5781L64.5389 72.762C63.2769 74.2816 62.8036 77.3455 64.3181 80.2868C65.4697 82.4928 68.2778 83.9144 70.2813 84.7845L89.3697 92.7261C90.2216 93.106 97.7151 96.6478 100.428 104.528C102.369 110.117 101.154 116.109 97.084 120.963C93.4083 125.35 87.7922 128.438 81.2453 129.664C81.1665 129.676 81.0876 129.701 80.9929 129.713L80.8036 129.75C80.6932 129.774 80.5985 129.787 80.4881 129.799C80.3935 129.811 80.1726 129.848 80.1726 129.848L79.7309 129.909C74.2883 130.681 68.751 130.093 63.8133 128.279C61.5573 127.446 57.1402 125.485 53.5906 121.575Z" fill="#101010"/>
<path d="M111.282 141.758V94.1333H110.825V141.77H111.282V141.758Z" fill="#101010"/>
<path d="M245.501 122.174V94.6724H245.044V122.161H245.501V122.174Z" fill="white"/>
<path d="M103.142 141.758V94.1333H102.684V141.77H103.142V141.758Z" fill="#101010"/>
<path d="M89.9535 81.3032C89.9693 80.1512 89.8115 78.4232 88.9596 76.4501C88.439 75.249 87.4609 72.994 85.0631 71.2783C84.7002 71.0209 83.7537 70.3959 82.3654 69.8566C79.7624 68.8517 77.4119 68.8272 75.8659 68.8272C74.0359 68.8272 70.9281 68.8272 67.8676 70.3346C66.9842 70.7635 65.6117 71.4499 64.6021 72.7857C63.0245 74.8201 63.4031 77.0138 63.5451 77.9085C63.7186 78.9379 63.9992 79.7442 64.2832 80.2834C62.958 80.2099 61.6993 80.1512 60.3742 80.0777C60.7686 78.4722 61.305 77.1854 61.7624 76.2662C62.4566 74.8324 62.9929 73.7171 64.2234 72.5038C64.8071 71.9278 65.9745 70.8984 67.8361 70.0405C70.9754 68.5821 74.0359 68.5698 75.8501 68.5698C77.4907 68.5698 79.8413 68.5821 82.4285 69.5625C83.028 69.7954 84.1638 70.2733 85.3312 71.1067C87.4136 72.5774 88.2813 74.1951 88.9281 75.3961C90.0955 77.6143 90.411 79.6855 90.411 81.291C90.269 81.291 90.1113 81.291 89.9535 81.3032Z" fill="#101010"/>
<path d="M111.266 94.4652C110.793 94.7593 109.279 95.6417 107.023 95.7152C104.767 95.7888 103.173 95.0044 102.684 94.7348C102.684 94.5632 102.684 94.4039 102.684 94.2323C103.095 94.4897 104.672 95.4088 107.007 95.3598C109.373 95.3108 110.903 94.2813 111.282 94.0117C111.266 94.171 111.266 94.3181 111.266 94.4652Z" fill="#101010"/>
<path d="M241.589 102.576C241.604 102.576 254.146 111.192 256.055 112.675C267.476 121.156 282.006 120.555 292.67 112.859C303.334 105.162 303.334 94.5123 292.67 94.1202C282.006 93.728 271.341 102.797 268.802 113.643C266.262 124.489 270.837 136.45 283.268 138.424C292.654 139.907 301.757 133.252 307.073 124.808" stroke="#101010" stroke-width="8.6834" stroke-miterlimit="10"/>
<path d="M235.484 122.701C236.84 127.775 234.821 133.081 230.088 136.88C229.994 136.954 229.805 137.113 229.789 137.113C226.271 139.822 221.617 141.464 216.679 141.734C216.19 141.758 215.717 141.77 215.244 141.77C210.842 141.77 206.551 140.692 203.018 138.67C203.018 138.67 202.544 138.4 202.355 138.265C201.613 137.898 200.746 137.702 199.878 137.702C197.259 137.702 195.114 139.442 195.114 141.599H194.656V125.875H195.114C195.114 130.03 197.212 133.939 201.014 136.868C201.535 137.273 202.071 137.653 202.639 137.996L203.301 138.388C207.135 140.582 211.883 141.648 216.663 141.39C221.507 141.133 226.05 139.528 229.489 136.868L229.773 136.635C232.297 134.564 233.67 131.856 233.622 129C233.575 126.145 232.108 123.461 229.489 121.439C228.542 120.703 227.454 120.078 226.302 119.588C225.876 119.404 225.435 119.245 224.993 119.098H224.977L199.768 109.686C197.417 108.766 195.808 107.247 195.082 105.286C194.436 103.558 194.578 101.585 195.429 99.8568C196.25 98.1043 197.401 96.7071 199.137 95.3345C199.184 95.2978 199.231 95.261 199.279 95.212L199.61 95.4693C199.563 95.5061 199.515 95.5429 199.468 95.5796C198.253 96.5478 197.78 97.516 198.017 98.5455C198.695 101.524 205.305 104.367 212.325 107.002L220.702 110.127C223.778 111.328 227.596 112.909 229.805 114.625C230.499 115.164 231.145 115.728 231.729 116.316C233.591 118.228 234.868 120.385 235.484 122.701ZM245.028 131.868C245.028 131.954 245.028 132.04 245.028 132.125C245.028 132.211 245.028 132.285 245.028 132.37C245.123 135.226 246.874 137.849 249.824 139.564C251.827 140.741 254.225 141.378 256.749 141.427C256.749 141.427 256.939 141.427 257.017 141.427C261.419 141.427 265.584 140.349 269.102 138.302L269.37 138.584C265.789 140.68 261.514 141.783 257.017 141.783C256.923 141.783 256.734 141.783 256.734 141.783C252.348 141.734 248.167 140.631 244.665 138.584C242.157 137.126 240.09 135.214 238.67 133.057C237.219 130.851 236.462 128.473 236.43 125.973V125.789V91.2167H233.417V90.8613H236.43V82.8953V67.3431C232.534 66.0073 228.259 65.5906 224.031 66.1666C219.661 66.7548 215.701 68.3603 212.546 70.7991C207.845 74.4513 205.273 79.8436 205.826 84.8929C206.267 88.8637 208.634 92.2216 212.499 94.3418C213.272 94.7218 214.171 94.9301 215.102 94.9301C217.973 94.9301 220.134 93.2511 220.134 91.0329H220.592V106.548H220.134C219.992 102.565 217.894 98.8151 214.25 95.9963C213.619 95.5061 212.94 95.0527 212.246 94.636C208.255 92.4545 205.81 89.0107 205.368 84.9297C204.8 79.7824 207.419 74.2797 212.215 70.554C215.433 68.0662 219.487 66.4239 223.936 65.8234C228.18 65.2474 232.486 65.6396 236.415 66.9632L236.746 67.0735C239.159 67.9191 241.337 69.0956 243.23 70.554C243.845 71.032 245.028 72.135 245.028 72.135V83.2629V84.5375C245.012 85.0032 244.933 85.4566 244.791 85.8856C244.728 86.0939 244.649 86.3023 244.555 86.4984C243.435 88.9862 240.422 90.7878 236.872 90.8613H269.354V91.2167H245.012L245.028 131.868Z" fill="#101010"/>
<path d="M163.247 141.991C160.834 141.991 158.515 141.599 156.416 140.802C151.999 139.135 149.033 135.888 148.26 131.917C147.345 127.137 149.98 122.149 155.312 118.583C160.739 114.955 167.649 113.681 173.785 115.151C176.988 115.923 179.307 116.696 181.752 117.897C183.708 111.328 183.203 105.028 180.364 101.168C178.755 98.9864 176.656 97.8834 173.927 97.8099C171.403 97.7364 168.485 98.5207 165.472 100.077C162.111 101.805 158.893 104.391 156.148 107.528L156.069 107.627C150.942 113.092 147.424 119 143.386 126.157L135.451 123.448C139.552 116.193 143.417 109.698 149.033 103.705C152.394 99.8688 156.416 96.6701 160.692 94.4764C165.235 92.1356 169.936 90.9591 174.29 91.0939C180.001 91.2655 184.844 93.6676 187.92 97.8467C192.148 103.594 192.795 112.345 189.64 121.242C189.498 121.647 189.34 122.063 189.182 122.456C190.902 123.632 192.921 124.919 194.325 125.936C194.767 126.255 194.215 141.611 194.215 141.611H193.742C193.426 137.567 192.905 136.047 191.06 133.645C190.586 133.032 189.955 132.297 189.34 131.794C188.567 131.169 187.258 130.14 185.743 129.098C185.081 130.103 184.371 131.071 183.629 131.978C180.758 135.471 177.414 138.069 173.706 139.699C170.22 141.219 166.639 141.991 163.247 141.991ZM168.69 121.304C166.087 121.304 163.295 122.149 160.976 123.693C157.962 125.703 156.385 128.473 156.858 130.912C157.205 132.689 158.404 134.049 160.234 134.736C162.663 135.655 166.024 135.324 169.431 133.816C173.028 132.235 176.436 128.865 178.912 124.551C176.309 123.068 174.448 122.37 171.23 121.598C170.409 121.402 169.557 121.304 168.69 121.304Z" fill="#101010"/>
<path d="M144.316 132.627V101.376H143.859V132.627H144.316Z" fill="white"/>
<path d="M194.64 147.455V116.204H194.183V147.455H194.64Z" fill="white"/>
<path d="M245.485 96.1284H245.028V115.247H245.485V96.1284Z" fill="white"/>
<path d="M81.9149 119.467C92.1982 118.425 96.1601 115.68 96.6841 112.967C96.6841 119.887 92.4921 124.365 86.7281 127.214C80.9641 130.064 70.4841 130.878 61.0521 126.4C53.5065 122.818 50.3974 115.681 50.0481 112.967C50.5721 112.152 53.6113 110.849 59.4801 112.152C66.8161 113.78 69.1571 120.759 81.9149 119.467Z" fill="#101010"/>
</svg>
