<svg width="360" height="210" viewBox="0 0 360 210" fill="none" xmlns="http://www.w3.org/2000/svg">
<path d="M92.43 128.106C92.4169 134.163 92.4431 135.462 92.43 141.52H98.3723V141.804H86.2127V141.52H91.9849C91.9849 135.354 91.9588 134.428 91.9588 128.106" fill="#D0A0FF"/>
<path d="M267.705 71.8081V79.5625C267.598 83.6326 264.26 86.9046 260.163 86.9046V86.4923C264.034 86.4923 267.186 83.4065 267.292 79.5625H259.95V71.8081H267.705Z" fill="#D0A0FF"/>
<path d="M149.965 141.479H152.519V141.865H140.162V141.479H142.716V97.4401V96.8947C142.636 93.7956 141.16 90.9492 138.672 89.0871C136.983 87.8102 134.962 87.1185 132.833 87.0653C132.833 87.0653 132.674 87.0653 132.607 87.0653C128.936 87.0653 125.438 88.2225 122.499 90.4039V141.493H125.052V141.878H112.696V141.493H115.25V59.5591H112.696V59.1733H122.499V89.925C125.451 87.8102 128.936 86.6796 132.607 86.6796C132.687 86.6796 132.847 86.6796 132.847 86.6796C136.544 86.7328 140.069 87.9299 143.022 90.1512C145.123 91.734 146.879 93.8089 148.076 96.1499C149.3 98.544 149.938 101.124 149.965 103.838V104.037V141.479Z" fill="#D0A0FF"/>
<path d="M73.8705 119.828C73.8439 119.801 73.8173 119.761 73.7774 119.708C71.2502 116.064 70.532 112.978 70.2793 111.661C70.1197 110.81 69.9733 110.012 69.9999 108.895C70.0132 108.496 70.0664 106.82 70.9576 104.505C71.5295 103.016 72.1946 101.938 73.0326 100.661C74.1365 98.9854 75.706 96.7376 77.8209 94.1439C77.8741 94.2104 77.9273 94.2636 77.9938 94.3301C75.8257 97.0701 74.2163 99.4509 73.0725 101.233C72.1281 102.696 71.5828 103.694 71.0773 105.144C70.532 106.7 70.4256 107.844 70.399 108.323C70.3857 108.522 70.3591 109.041 70.399 109.693C70.4522 110.797 70.6517 111.714 70.8379 112.366C70.8379 112.366 71.0108 113.071 71.3699 114.109C72.9527 118.764 75.9721 122.634 80.1086 125.321C80.2416 125.401 80.3747 125.494 80.4944 125.574C80.5343 125.601 80.5742 125.614 80.6141 125.64C80.7205 125.707 80.8269 125.773 80.9333 125.827C80.9599 125.84 80.9865 125.867 81.0264 125.88C81.1594 125.96 81.2924 126.039 81.4254 126.106C81.452 126.119 81.4786 126.133 81.5185 126.159C81.6382 126.226 81.7447 126.279 81.8644 126.345C81.891 126.359 81.9176 126.372 81.9442 126.385C86.2138 128.607 91.0952 129.365 95.8835 128.487L96.256 128.42C96.4289 128.38 96.5885 128.354 96.7614 128.314L96.9343 128.274C97.0008 128.261 97.0673 128.247 97.1338 128.221C101.523 127.13 105.314 124.43 107.775 120.639C110.368 116.649 111.259 111.887 110.275 107.219C109.291 102.563 106.538 98.5598 102.547 95.9661C102.268 95.7799 101.975 95.607 101.683 95.4341L100.672 94.8887C95.0589 91.896 85.3093 86.6688 85.0034 86.5091C81.0796 84.4209 78.8451 80.0981 79.4303 75.7354C79.4303 75.7354 79.4436 75.5891 79.4569 75.5758C79.8692 72.3969 80.9998 69.3909 82.7688 66.6509L83.1013 66.8504C82.0373 68.4997 81.6382 71.8249 82.9151 75.0172C83.8861 77.4113 86.2537 78.9542 87.9429 79.8986L104.037 88.5176C104.755 88.9299 111.073 92.7739 113.361 101.326C114.997 107.392 113.973 113.896 110.541 119.163C107.442 123.925 102.707 127.276 97.187 128.607C97.1205 128.62 97.054 128.646 96.9742 128.66L96.8146 128.7C96.7215 128.726 96.6417 128.74 96.5486 128.753C96.4688 128.766 96.2826 128.806 96.2826 128.806L95.9101 128.873C91.3213 129.711 86.6527 129.072 82.4895 127.104C80.5875 126.199 76.8632 124.071 73.8705 119.828Z" fill="#D0A0FF"/>
<path d="M122.512 141.732V90.0449H122.126V141.746H122.512V141.732Z" fill="#D0A0FF"/>
<path d="M235.676 120.477V90.6299H235.291V120.464H235.676V120.477Z" fill="white"/>
<path d="M115.649 141.732V90.0449H115.263V141.746H115.649V141.732Z" fill="#D0A0FF"/>
<path d="M104.529 76.1204C104.542 74.8701 104.409 72.9947 103.691 70.8533C103.252 69.5498 102.428 67.1024 100.406 65.2403C100.1 64.961 99.3019 64.2826 98.1314 63.6974C95.9368 62.6067 93.9549 62.5801 92.6514 62.5801C91.1085 62.5801 88.4882 62.5801 85.9079 64.2161C85.163 64.6816 84.0058 65.4265 83.1546 66.8763C81.8245 69.0842 82.1437 71.4651 82.2634 72.4361C82.4097 73.5534 82.6463 74.4284 82.8857 75.0136C81.7685 74.9338 80.7072 74.8701 79.5899 74.7903C79.9225 73.0479 80.3747 71.6513 80.7604 70.6538C81.3457 69.0975 81.7979 67.8872 82.8354 66.5704C83.3275 65.9452 84.3118 64.828 85.8813 63.8969C88.5281 62.3141 91.1085 62.3008 92.6381 62.3008C94.0214 62.3008 96.0033 62.3141 98.1846 63.3782C98.69 63.6309 99.6477 64.1496 100.632 65.0541C102.388 66.6502 103.119 68.4059 103.665 69.7094C104.649 72.1169 104.915 74.3647 104.915 76.1071C104.795 76.1071 104.662 76.1071 104.529 76.1204Z" fill="#D0A0FF"/>
<path d="M122.499 90.4052C122.1 90.7244 120.823 91.6821 118.921 91.7619C117.019 91.8417 115.675 90.9905 115.263 90.6978C115.263 90.5116 115.263 90.3387 115.263 90.1525C115.609 90.4318 116.939 91.4294 118.907 91.3762C120.902 91.323 122.193 90.2057 122.512 89.9131C122.499 90.086 122.499 90.2456 122.499 90.4052Z" fill="#D0A0FF"/>
<path d="M232.377 99.2085C232.391 99.2085 242.965 108.559 244.574 110.168C254.204 119.373 266.454 118.721 275.446 110.368C284.437 102.015 284.437 90.4565 275.446 90.0309C266.454 89.6053 257.463 99.4479 255.321 111.219C253.18 122.991 257.037 135.972 267.518 138.114C275.432 139.723 283.107 132.501 287.589 123.336" stroke="#D0A0FF" stroke-width="7.3155" stroke-miterlimit="10"/>
<path d="M227.23 121.05C228.374 126.556 226.672 132.315 222.681 136.439C222.601 136.519 222.442 136.691 222.429 136.691C219.462 139.631 215.539 141.413 211.375 141.706C210.963 141.733 210.564 141.746 210.165 141.746C206.454 141.746 202.836 140.575 199.857 138.381C199.857 138.381 199.458 138.088 199.298 137.942C198.673 137.543 197.942 137.33 197.21 137.33C195.002 137.33 193.193 139.219 193.193 141.56H192.807V124.495H193.193C193.193 129.004 194.962 133.247 198.168 136.425C198.607 136.864 199.059 137.277 199.538 137.649L200.096 138.075C203.328 140.456 207.332 141.613 211.362 141.333C215.446 141.054 219.276 139.312 222.176 136.425L222.415 136.173C224.543 133.925 225.701 130.985 225.661 127.886C225.621 124.787 224.384 121.874 222.176 119.68C221.378 118.882 220.46 118.203 219.489 117.671C219.13 117.472 218.757 117.299 218.385 117.139H218.372L197.117 106.924C195.135 105.926 193.778 104.277 193.166 102.149C192.621 100.274 192.741 98.1321 193.459 96.2567C194.151 94.3547 195.122 92.8383 196.585 91.3486C196.625 91.3087 196.665 91.2688 196.705 91.2156L196.984 91.495C196.944 91.5349 196.904 91.5748 196.864 91.6147C195.84 92.6654 195.441 93.7162 195.64 94.8335C196.212 98.0656 201.785 101.151 207.704 104.011L214.767 107.403C217.361 108.706 220.58 110.422 222.442 112.284C223.027 112.87 223.572 113.481 224.065 114.12C225.634 116.195 226.711 118.536 227.23 121.05ZM235.277 130.999C235.277 131.092 235.277 131.185 235.277 131.278C235.277 131.371 235.277 131.451 235.277 131.544C235.357 134.643 236.833 137.49 239.321 139.352C241.01 140.629 243.032 141.32 245.16 141.373C245.16 141.373 245.319 141.373 245.386 141.373C249.097 141.373 252.608 140.203 255.574 137.982L255.801 138.288C252.781 140.562 249.177 141.759 245.386 141.759C245.306 141.759 245.146 141.759 245.146 141.759C241.449 141.706 237.924 140.509 234.971 138.288C232.856 136.705 231.114 134.63 229.917 132.289C228.693 129.895 228.055 127.314 228.028 124.601V124.401V86.8795H225.488V86.4938H228.028V77.8482V60.9694C224.743 59.5196 221.138 59.0673 217.574 59.6925C213.889 60.3309 210.551 62.0733 207.891 64.7202C203.927 68.6839 201.759 74.5363 202.224 80.0163C202.597 84.3258 204.592 87.9702 207.851 90.2713C208.502 90.6836 209.261 90.9097 210.045 90.9097C212.466 90.9097 214.288 89.0875 214.288 86.68H214.674V103.519H214.288C214.169 99.1962 212.4 95.1261 209.327 92.0669C208.795 91.5349 208.223 91.0427 207.638 90.5905C204.273 88.2229 202.211 84.4854 201.839 80.0562C201.36 74.4698 203.568 68.4977 207.611 64.4542C210.325 61.7541 213.743 59.9718 217.494 59.32C221.072 58.6949 224.703 59.1205 228.015 60.557L228.294 60.6767C230.329 61.5945 232.165 62.8714 233.761 64.4542C234.28 64.9729 235.277 66.17 235.277 66.17V78.2472V79.6305C235.264 80.136 235.197 80.6281 235.078 81.0936C235.024 81.3198 234.958 81.5459 234.878 81.7587C233.934 84.4588 231.393 86.414 228.401 86.4938H255.787V86.8795H235.264L235.277 130.999Z" fill="#D0A0FF"/>
<path d="M166.325 141.985C164.29 141.985 162.335 141.559 160.566 140.695C156.842 138.886 154.341 135.361 153.689 131.052C152.918 125.864 155.139 120.451 159.635 116.58C164.21 112.643 170.036 111.26 175.21 112.856C177.91 113.694 179.866 114.532 181.927 115.835C183.577 108.706 183.151 101.869 180.757 97.6795C179.4 95.312 177.631 94.1149 175.33 94.0351C173.202 93.9553 170.741 94.8065 168.201 96.4957C165.368 98.3712 162.654 101.178 160.34 104.583L160.273 104.689C155.951 110.621 152.984 117.032 149.579 124.8L142.889 121.861C146.347 113.986 149.606 106.937 154.341 100.433C157.174 96.2696 160.566 92.7981 164.171 90.4172C168.001 87.8767 171.965 86.5999 175.636 86.7462C180.451 86.9324 184.534 89.5394 187.128 94.075C190.693 100.313 191.238 109.81 188.578 119.466C188.458 119.905 188.325 120.358 188.192 120.783C189.642 122.06 191.344 123.457 192.528 124.561C192.901 124.907 192.435 141.573 192.435 141.573H192.036C191.77 137.183 191.331 135.534 189.775 132.927C189.376 132.262 188.844 131.464 188.325 130.919C187.673 130.24 186.569 129.123 185.292 127.992C184.734 129.083 184.135 130.134 183.51 131.118C181.089 134.909 178.27 137.729 175.144 139.498C172.204 141.147 169.185 141.985 166.325 141.985ZM170.914 119.533C168.719 119.533 166.365 120.451 164.41 122.127C161.87 124.308 160.539 127.314 160.938 129.961C161.231 131.889 162.242 133.366 163.785 134.111C165.833 135.108 168.666 134.749 171.539 133.113C174.572 131.397 177.445 127.74 179.533 123.058C177.338 121.448 175.769 120.69 173.056 119.852C172.364 119.639 171.646 119.533 170.914 119.533Z" fill="#D0A0FF"/>
<path d="M150.364 131.823V97.9058H149.978V131.823H150.364Z" fill="white"/>
<path d="M192.794 147.915V113.998H192.408V147.915H192.794Z" fill="white"/>
<path d="M235.663 92.21H235.277V112.959H235.663V92.21Z" fill="white"/>
<path d="M97.7515 117.539C106.422 116.408 109.762 113.43 110.204 110.485C110.204 117.995 106.669 122.855 101.81 125.947C96.9499 129.04 88.1139 129.924 80.1615 125.064C73.7995 121.176 71.1782 113.43 70.8837 110.485C71.3255 109.601 73.8879 108.186 78.8361 109.6C85.0213 111.367 86.9951 118.942 97.7515 117.539Z" fill="#D0A0FF"/>
<rect x="0.25" y="0.25" width="359.5" height="209.5" stroke="black" stroke-width="0.5"/>
</svg>
