<svg width="360" height="210" viewBox="0 0 360 210" fill="none" xmlns="http://www.w3.org/2000/svg">
<path d="M162.488 52.7072C158.786 52.6992 157.993 52.7152 154.291 52.7072L154.291 56.3386L154.117 56.3386L154.117 48.9077L154.291 48.9077L154.291 52.4352C158.059 52.4352 158.624 52.4192 162.488 52.4192" fill="#101010"/>
<path d="M196.892 159.82L192.154 159.82C189.666 159.755 187.667 157.715 187.667 155.211L187.919 155.211C187.919 157.576 189.804 159.503 192.154 159.568L192.154 155.081L196.892 155.081L196.892 159.82Z" fill="#101010"/>
<path d="M154.315 87.8675L154.315 89.4281L154.08 89.4281L154.08 81.8769L154.315 81.8769L154.315 83.4375L181.228 83.4375L181.562 83.4375C183.455 83.3887 185.195 82.4865 186.333 80.9665C187.113 79.9342 187.536 78.6987 187.568 77.3981C187.568 77.3981 187.568 77.3006 187.568 77.2599C187.568 75.0165 186.861 72.8788 185.528 71.0824L154.307 71.0824L154.307 72.643L154.071 72.643L154.071 65.0918L154.307 65.0918L154.307 66.6524L204.378 66.6524L204.378 65.0918L204.614 65.0918L204.614 71.0824L185.821 71.0824C187.113 72.8869 187.804 75.0165 187.804 77.2599C187.804 77.3087 187.804 77.4063 187.804 77.4063C187.772 79.6659 187.04 81.82 185.683 83.6245C184.715 84.9087 183.447 85.9817 182.017 86.7132C180.554 87.461 178.977 87.8512 177.319 87.8675L177.197 87.8675L154.315 87.8675Z" fill="#101010"/>
<path d="M167.547 41.3653C167.563 41.3491 167.587 41.3328 167.62 41.3084C169.847 39.764 171.733 39.3251 172.538 39.1707C173.058 39.0731 173.546 38.9837 174.228 39C174.472 39.0081 175.496 39.0406 176.911 39.5852C177.821 39.9347 178.479 40.3411 179.26 40.8532C180.284 41.5279 181.658 42.487 183.243 43.7794C183.202 43.812 183.17 43.8445 183.129 43.8851C181.454 42.5602 179.999 41.5767 178.91 40.8776C178.016 40.3005 177.407 39.9672 176.521 39.6584C175.57 39.3251 174.871 39.2601 174.578 39.2438C174.456 39.2357 174.139 39.2194 173.741 39.2438C173.066 39.2763 172.505 39.3983 172.107 39.5121C172.107 39.5121 171.676 39.6177 171.042 39.8372C168.197 40.8045 165.832 42.6496 164.19 45.1775C164.141 45.2588 164.084 45.3401 164.035 45.4132C164.019 45.4376 164.011 45.462 163.995 45.4864C163.954 45.5514 163.913 45.6165 163.881 45.6815C163.873 45.6977 163.857 45.714 163.848 45.7384C163.8 45.8197 163.751 45.9009 163.71 45.9822C163.702 45.9985 163.694 46.0147 163.678 46.0391C163.637 46.1123 163.605 46.1773 163.564 46.2505C163.556 46.2667 163.548 46.283 163.54 46.2992C162.182 48.9084 161.719 51.8916 162.255 54.8178L162.296 55.0454C162.32 55.151 162.337 55.2486 162.361 55.3542L162.385 55.4599C162.393 55.5005 162.402 55.5412 162.418 55.5818C163.084 58.2642 164.734 60.5807 167.051 62.0845C169.49 63.6695 172.399 64.2141 175.253 63.6126C178.097 63.0111 180.544 61.3286 182.129 58.8901C182.243 58.7194 182.349 58.5405 182.454 58.3617L182.788 57.744C184.616 54.3138 187.811 48.3557 187.908 48.1688C189.185 45.7709 191.826 44.4053 194.492 44.763C194.492 44.763 194.582 44.7711 194.59 44.7792C196.533 45.0312 198.37 45.7221 200.044 46.8032L199.922 47.0064C198.914 46.3561 196.882 46.1123 194.931 46.8926C193.468 47.486 192.525 48.9328 191.948 49.9651L186.681 59.8004C186.429 60.2394 184.08 64.1003 178.853 65.4984C175.147 66.4982 171.172 65.8723 167.953 63.7752C165.043 61.8813 162.995 58.9876 162.182 55.6143C162.174 55.5737 162.158 55.5331 162.15 55.4843L162.125 55.3867C162.109 55.3298 162.101 55.2811 162.093 55.2242C162.085 55.1754 162.06 55.0616 162.06 55.0616L162.02 54.834C161.507 52.0297 161.898 49.1767 163.101 46.6325C163.653 45.4701 164.954 43.1942 167.547 41.3653Z" fill="#101010"/>
<path d="M154.161 71.0907L185.747 71.0907L185.747 70.855L154.153 70.855L154.153 71.0907L154.161 71.0907Z" fill="#101010"/>
<path d="M167.15 140.247L185.39 140.247L185.39 140.011L167.158 140.011L167.158 140.247L167.15 140.247Z" fill="white"/>
<path d="M154.161 66.8964L185.747 66.8964L185.747 66.6606L154.153 66.6606L154.153 66.8964L154.161 66.8964Z" fill="#101010"/>
<path d="M194.257 60.101C195.021 60.1091 196.167 60.0279 197.476 59.5889C198.272 59.3207 199.768 58.8167 200.906 57.5812C201.077 57.3943 201.491 56.9066 201.849 56.1913C202.515 54.8501 202.532 53.639 202.532 52.8424C202.532 51.8995 202.532 50.2982 201.532 48.7213C201.247 48.2661 200.792 47.559 199.906 47.0388C198.557 46.2259 197.102 46.421 196.509 46.4942C195.826 46.5836 195.291 46.7281 194.933 46.8745C194.982 46.1917 195.021 45.5431 195.07 44.8604C196.135 45.0636 196.988 45.3399 197.598 45.5756C198.549 45.9333 199.288 46.2097 200.093 46.8437C200.475 47.1444 201.158 47.7459 201.727 48.7051C202.694 50.3226 202.702 51.8995 202.702 52.8343C202.702 53.6796 202.694 54.8907 202.044 56.2238C201.89 56.5327 201.573 57.1179 201.02 57.7194C200.044 58.7924 198.971 59.2394 198.175 59.5727C196.704 60.1742 195.33 60.3367 194.265 60.3367C194.265 60.2636 194.265 60.1823 194.257 60.101Z" fill="#101010"/>
<path d="M185.527 71.0825C185.332 70.8386 184.747 70.0583 184.698 68.8959C184.65 67.7336 185.17 66.9126 185.349 66.6606C185.462 66.6606 185.568 66.6606 185.682 66.6606C185.511 66.872 184.902 67.6848 184.934 68.8878C184.967 70.1071 185.649 70.8955 185.828 71.0906C185.722 71.0825 185.625 71.0825 185.527 71.0825Z" fill="#101010"/>
<path d="M180.148 138.231C180.148 138.239 174.433 144.701 173.45 145.685C167.825 151.57 168.223 159.056 173.328 164.551C178.432 170.045 185.496 170.045 185.756 164.551C186.016 159.056 180.001 153.561 172.808 152.252C165.614 150.944 157.681 153.301 156.372 159.706C155.389 164.542 159.802 169.233 165.403 171.972" stroke="#101010" stroke-width="4.4706" stroke-miterlimit="10"/>
<path d="M166.8 135.085C163.435 135.784 159.915 134.744 157.395 132.305C157.347 132.256 157.241 132.159 157.241 132.151C155.445 130.338 154.355 127.94 154.177 125.396C154.16 125.144 154.152 124.9 154.152 124.656C154.152 122.389 154.868 120.178 156.209 118.357C156.209 118.357 156.388 118.113 156.477 118.015C156.721 117.633 156.851 117.186 156.851 116.739C156.851 115.39 155.697 114.285 154.266 114.285L154.266 114.049L164.695 114.049L164.695 114.285C161.939 114.285 159.346 115.366 157.404 117.325C157.135 117.593 156.883 117.869 156.656 118.162L156.396 118.503C154.941 120.478 154.234 122.925 154.404 125.388C154.575 127.883 155.64 130.224 157.404 131.996L157.558 132.143C158.932 133.443 160.728 134.15 162.622 134.126C164.516 134.101 166.296 133.346 167.637 131.996C168.125 131.509 168.539 130.948 168.865 130.354C168.987 130.135 169.092 129.907 169.19 129.68L169.19 129.672L175.432 116.682C176.042 115.471 177.05 114.642 178.35 114.268C179.496 113.935 180.805 114.008 181.951 114.447C183.114 114.87 184.04 115.463 184.951 116.357C184.975 116.382 184.999 116.406 185.032 116.43L184.861 116.601C184.837 116.577 184.812 116.552 184.788 116.528C184.146 115.902 183.504 115.658 182.821 115.78C180.846 116.13 178.96 119.535 177.212 123.153L175.14 127.469C174.343 129.054 173.295 131.021 172.157 132.159C171.799 132.516 171.425 132.85 171.035 133.15C169.767 134.11 168.336 134.768 166.8 135.085ZM160.72 140.003C160.663 140.003 160.606 140.003 160.549 140.003C160.492 140.003 160.444 140.003 160.387 140.003C158.493 140.051 156.753 140.954 155.615 142.474C154.835 143.506 154.412 144.742 154.38 146.042C154.38 146.042 154.38 146.14 154.38 146.18C154.38 148.448 155.095 150.594 156.453 152.407L156.266 152.545C154.876 150.7 154.144 148.497 154.144 146.18C154.144 146.131 154.144 146.034 154.144 146.034C154.177 143.774 154.908 141.62 156.266 139.816C157.233 138.523 158.501 137.459 159.932 136.727C161.395 135.979 162.972 135.589 164.63 135.573L164.752 135.573L187.682 135.573L187.682 134.02L187.917 134.02L187.917 135.573L193.201 135.573L203.516 135.573C204.402 133.565 204.678 131.362 204.296 129.184C203.906 126.932 202.841 124.892 201.224 123.266C198.801 120.844 195.225 119.519 191.876 119.804C189.242 120.031 187.015 121.251 185.609 123.242C185.357 123.64 185.219 124.104 185.219 124.583C185.219 126.063 186.332 127.176 187.804 127.176L187.804 127.412L177.513 127.412L177.513 127.176C180.155 127.103 182.642 126.022 184.512 124.144C184.837 123.819 185.138 123.47 185.414 123.112C186.861 121.055 189.145 119.796 191.852 119.568C195.266 119.275 198.915 120.625 201.386 123.096C203.036 124.754 204.125 126.843 204.524 129.135C204.906 131.322 204.646 133.541 203.768 135.565L203.695 135.735C203.134 136.979 202.353 138.101 201.386 139.076C201.069 139.393 200.338 140.003 200.338 140.003L192.957 140.003L192.112 140.003C191.803 139.995 191.502 139.954 191.218 139.881C191.079 139.848 190.941 139.808 190.811 139.759C189.161 139.182 187.966 137.629 187.917 135.8L187.917 152.537L187.682 152.537L187.682 139.995L160.72 140.003Z" fill="#101010"/>
<path d="M154.006 97.8656C154.006 96.622 154.266 95.4271 154.795 94.346C155.9 92.0701 158.054 90.542 160.688 90.1437C163.858 89.6722 167.166 91.0297 169.531 93.7771C171.937 96.5732 172.783 100.133 171.807 103.295C171.295 104.945 170.783 106.14 169.987 107.4C174.343 108.408 178.521 108.148 181.082 106.685C182.529 105.856 183.26 104.775 183.309 103.369C183.358 102.068 182.838 100.564 181.805 99.0117C180.659 97.2804 178.944 95.6222 176.863 94.2079L176.798 94.1672C173.173 91.5255 169.255 89.7129 164.508 87.632L166.304 83.5435C171.116 85.6568 175.424 87.6483 179.399 90.542C181.943 92.2733 184.065 94.346 185.52 96.5488C187.072 98.8898 187.853 101.312 187.763 103.555C187.649 106.498 186.056 108.993 183.285 110.578C179.472 112.757 173.669 113.09 167.768 111.464C167.499 111.391 167.223 111.31 166.963 111.229C166.182 112.115 165.329 113.155 164.654 113.878C164.443 114.106 154.258 113.822 154.258 113.822L154.258 113.578C156.941 113.415 157.948 113.147 159.542 112.196C159.948 111.952 160.436 111.627 160.769 111.31C161.184 110.912 161.866 110.237 162.557 109.457C161.891 109.115 161.249 108.75 160.647 108.367C158.33 106.888 156.607 105.165 155.526 103.255C154.518 101.458 154.006 99.6132 154.006 97.8656ZM167.727 100.67C167.727 99.3287 167.166 97.89 166.142 96.6951C164.809 95.1426 162.972 94.3298 161.354 94.5736C160.176 94.7525 159.273 95.3702 158.818 96.3131C158.209 97.5649 158.428 99.2962 159.428 101.052C160.476 102.905 162.712 104.661 165.573 105.937C166.556 104.596 167.02 103.637 167.532 101.979C167.662 101.556 167.727 101.117 167.727 100.67Z" fill="#101010"/>
<path d="M160.216 88.1117L180.944 88.1117L180.944 87.876L160.216 87.876L160.216 88.1117Z" fill="white"/>
<path d="M150.382 114.041L171.109 114.041L171.109 113.805L150.382 113.805L150.382 114.041Z" fill="white"/>
<path d="M184.424 140.239L184.424 140.003L171.744 140.003L171.744 140.239L184.424 140.239Z" fill="white"/>
<path d="M168.945 55.9593C169.636 61.2578 171.457 63.2991 173.256 63.5691C168.667 63.5691 165.697 61.4092 163.807 58.4393C161.917 55.4694 161.377 50.0696 164.347 45.2098C166.723 41.322 171.456 39.72 173.257 39.54C173.796 39.81 174.661 41.376 173.797 44.3999C172.717 48.1797 168.088 49.3859 168.945 55.9593Z" fill="#101010"/>
<rect x="0.25" y="0.25" width="359.5" height="209.5" stroke="black" stroke-width="0.5"/>
</svg>
